G04 ================== begin FILE IDENTIFICATION RECORD ==================*
G04 Layout Name:  AS2258_ASM235CM_BGA272_V2_0801.brd*
G04 Film Name:    ART04*
G04 File Format:  Gerber RS274X*
G04 File Origin:  Cadence Allegro -unreleased*
G04 Origin Date:  Tue Aug  3 11:42:56 2021*
G04 *
G04 Layer:  BOARD GEOMETRY/OUTLINE*
G04 Layer:  ETCH/ART04*
G04 Layer:  PIN/ART04*
G04 Layer:  VIA CLASS/ART04*
G04 *
G04 Offset:    (0.000 0.000)*
G04 Mirror:    No*
G04 Mode:      Positive*
G04 Rotation:  0*
G04 FullContactRelief:  No*
G04 UndefLineWidth:     0.000*
G04 ================== end FILE IDENTIFICATION RECORD ====================*
%FSLAX25Y25*MOIN*%
%IR0*IPPOS*OFA0.00000B0.00000*MIA0B0*SFA1.00000B1.00000*%
%ADD10O,.14961X.07087*%
%ADD12C,.014*%
%ADD11C,.03937*%
%ADD13C,.003*%
%ADD14C,.008*%
%ADD15C,.0035*%
%ADD16C,.012*%
%ADD17C,.015*%
%ADD18C,.020004*%
G75*
%LPD*%
G75*
G36*
G01X4599700Y2665100D02*
X4598950Y2665850D01*
Y2665945D01*
G03X4598700Y2667349I-950J555D01*
G01Y2668656D01*
X4598838Y2668701D01*
G03X4600313Y2672336I-799J2441D01*
G02X4600710Y2672920I354J186D01*
G03X4600187Y2674693I105J995D01*
G02X4599898Y2674964I-125J156D01*
G03X4600026Y2675202I-898J636D01*
G01X4600041Y2675241D01*
X4603600Y2678800D01*
X4611000D01*
X4613000Y2680800D01*
X4621657D01*
X4621832Y2680625D01*
X4623975D01*
X4624100Y2680500D01*
Y2679300D01*
X4619000Y2674200D01*
X4616163D01*
X4616109Y2674317D01*
G03X4614291I-909J-417D01*
G01X4614237Y2674200D01*
X4606400D01*
X4605400Y2673200D01*
Y2666000D01*
X4604500Y2665100D01*
X4599700D01*
G37*
G36*
G01X4621090Y2653510D02*
X4618700Y2655900D01*
Y2657700D01*
X4619900Y2658900D01*
X4631900D01*
X4639750Y2666750D01*
X4646450D01*
X4647200Y2666000D01*
Y2663600D01*
X4638230Y2654630D01*
X4638196Y2654615D01*
G03X4637685Y2654104I404J-915D01*
G01X4637670Y2654070D01*
X4637431Y2653831D01*
X4637272Y2653990D01*
X4637259Y2654012D01*
G03X4635731Y2654244I-859J-512D01*
G02X4635160Y2654281I-267J297D01*
G03X4633402Y2653697I-760J-650D01*
G01X4633390Y2653510D01*
X4631713D01*
X4631696Y2653692D01*
G03X4630015Y2654328I-996J-92D01*
G02X4629500Y2654300I-274J291D01*
G03X4627915Y2653675I-600J-800D01*
G01X4627886Y2653510D01*
X4621090D01*
G37*
G36*
G01X4675100Y2706000D02*
X4711900D01*
X4713800Y2704100D01*
Y2693561D01*
G02X4713198Y2693215I-400J0D01*
G03X4711747Y2692029I-504J-864D01*
G02X4711369Y2691500I-379J-129D01*
G01X4710889D01*
G02X4710505Y2692011I0J400D01*
G03X4708568Y2692503I-961J278D01*
G02X4707894Y2692306I-391J86D01*
G01X4707329Y2692872D01*
G03X4706977Y2693223I-934J-582D01*
G01X4706412Y2693788D01*
G02X4706609Y2694462I283J283D01*
G03X4706126Y2696402I-214J977D01*
G02X4705618Y2696788I-108J385D01*
G01Y2701482D01*
X4703200Y2703900D01*
X4688700D01*
X4682500Y2697700D01*
X4679423D01*
G02X4679046Y2698236I0J400D01*
G03X4677175I-936J353D01*
G02X4676798Y2697700I-376J-135D01*
G01X4674100D01*
X4673800Y2698000D01*
Y2699930D01*
G02X4674000Y2700130I200J0D01*
G03Y2702130I0J1000D01*
G02X4673800Y2702330I0J200D01*
G01Y2704700D01*
X4675100Y2706000D01*
G37*
G36*
G01X4665842Y2680947D02*
G03X4666943Y2682539I758J653D01*
G02X4666798Y2683198I137J376D01*
G01X4666900Y2683300D01*
X4691200D01*
X4693600Y2680900D01*
Y2676700D01*
X4693050Y2676150D01*
X4689050D01*
X4686900Y2678300D01*
X4686419D01*
G03X4686381I-19J-1100D01*
G01X4685500D01*
X4685350Y2678150D01*
X4681006D01*
X4678506Y2675650D01*
X4671094D01*
X4669766Y2676978D01*
X4669751Y2677026D01*
G03X4667627Y2676942I-1051J-325D01*
G02X4666954Y2676746I-390J88D01*
G01X4664700Y2679000D01*
Y2680537D01*
X4664817Y2680591D01*
G03X4665214Y2680919I-417J909D01*
G02X4665842Y2680947I325J-233D01*
G37*
G36*
G01X4648300Y2658600D02*
X4646800Y2660100D01*
Y2661600D01*
X4649700Y2664500D01*
Y2674048D01*
G03Y2675485I-833J718D01*
G01Y2677162D01*
X4649717Y2677200D01*
G03Y2678000I-917J400D01*
G01X4649700Y2678038D01*
Y2678200D01*
X4649000Y2678900D01*
X4646700D01*
X4646214Y2678414D01*
G03X4646018Y2678221I599J-801D01*
G01X4646010Y2678210D01*
X4643300Y2675500D01*
X4636799D01*
G03X4634998I-900J-632D01*
G01X4629038D01*
G03X4627237I-900J-632D01*
G01X4626700D01*
X4622100Y2670900D01*
X4619200D01*
Y2673693D01*
X4624207Y2678700D01*
X4637700D01*
X4647200Y2688200D01*
X4648100D01*
X4649275Y2687025D01*
Y2683182D01*
X4654075Y2678382D01*
Y2674593D01*
G02X4653425Y2674281I-400J0D01*
G03X4653696Y2673055I-625J-781D01*
G01X4653751Y2673166D01*
X4654075D01*
Y2672783D01*
X4654500Y2672357D01*
Y2662100D01*
X4651000Y2658600D01*
X4648300D01*
G37*
G36*
G01X4626907Y2675000D02*
X4643507D01*
X4645478Y2676970D01*
G02X4646061Y2676952I283J-283D01*
G03X4647518Y2676903I751J660D01*
G02X4648086Y2676900I282J-283D01*
G03X4648800Y2676600I714J700D01*
G02X4649200Y2676200I0J-400D01*
G01Y2675860D01*
X4648990D01*
X4648979Y2675861D01*
G03X4648089Y2675545I-113J-1094D01*
G01X4646300Y2673756D01*
Y2668650D01*
X4637306D01*
X4630706Y2662050D01*
X4611094D01*
X4610194Y2662950D01*
X4601756D01*
G02X4601368Y2663450I0J400D01*
G03X4601334Y2664057I-968J250D01*
G02X4601708Y2664600I374J143D01*
G01X4604707D01*
X4605900Y2665793D01*
Y2672993D01*
X4606607Y2673700D01*
X4614210D01*
X4614257Y2673566D01*
G03X4616143I943J333D01*
G01X4616190Y2673700D01*
X4618700D01*
Y2670400D01*
X4622307D01*
X4626907Y2675000D01*
G37*
G36*
G01X4646726Y2688433D02*
X4637493Y2679200D01*
X4637277D01*
G02X4636888Y2679692I0J400D01*
G03X4636044Y2680913I-974J230D01*
G02X4635697Y2681281I52J397D01*
G03X4635129Y2682165I-1097J-81D01*
G01X4635025Y2682222D01*
Y2684083D01*
X4635418Y2684475D01*
X4642018D01*
X4646318Y2688775D01*
X4646585D01*
G02X4646726Y2688433I0J-200D01*
G37*
G36*
G01X4613026Y2681983D02*
X4614842Y2683800D01*
X4616932D01*
G02X4617323Y2683314I0J-400D01*
G03X4619161Y2682590I977J-214D01*
G02X4619788Y2682670I344J-204D01*
G01X4620474Y2681983D01*
G02X4620191Y2681300I-283J-283D01*
G01X4613309D01*
G02X4613026Y2681983I0J400D01*
G37*
G36*
G01X4596984Y2682159D02*
X4593925Y2685218D01*
Y2690382D01*
X4596025Y2692482D01*
Y2696018D01*
X4592023Y2700020D01*
X4590062D01*
G03X4588738Y2700536I-967J-525D01*
G02X4588208Y2700914I-130J378D01*
G01Y2706100D01*
X4611522D01*
G02X4611912Y2705612I0J-400D01*
G03X4613863I976J-220D01*
G02X4614253Y2706100I390J88D01*
G01X4614559D01*
Y2705856D01*
X4614540Y2705815D01*
G03X4614568Y2704913I906J-424D01*
G01X4614639Y2704782D01*
X4613575Y2703718D01*
Y2694682D01*
X4619824Y2688433D01*
G02X4619541Y2687750I-283J-283D01*
G01X4612906D01*
X4608106Y2682950D01*
X4599257D01*
X4599213Y2682973D01*
G03X4597649Y2682324I-513J-973D01*
G02X4596984Y2682159I-382J118D01*
G37*
G36*
G01X4621508Y2684135D02*
X4620476Y2685167D01*
G02X4620759Y2685850I283J283D01*
G01X4624006D01*
X4625038Y2684818D01*
G02X4624755Y2684135I-283J-283D01*
G01X4621508D01*
G37*
G36*
G01X4627818Y2686825D02*
X4626938Y2687704D01*
G02X4627221Y2688387I283J283D01*
G01X4631977D01*
G02X4632366Y2687894I0J-400D01*
G03X4632389Y2687350I973J-232D01*
G02X4632009Y2686825I-380J-125D01*
G01X4627818D01*
G37*
G36*
G01X4626555Y2689923D02*
G03X4626514Y2690489I-977J214D01*
G02X4626889Y2691030I374J141D01*
G01X4632000D01*
G02X4632383Y2690513I0J-400D01*
G03X4632378Y2689947I957J-292D01*
G02X4631993Y2689438I-385J-110D01*
G01X4626946D01*
G02X4626555Y2689923I0J400D01*
G37*
G36*
G01X4617217Y2692526D02*
X4614625Y2695118D01*
Y2696473D01*
G02X4615140Y2696856I400J0D01*
G03X4616046Y2697029I287J958D01*
G02X4616311Y2697014I124J-157D01*
G01X4617900Y2695425D01*
Y2692809D01*
G02X4617217Y2692526I-400J0D01*
G37*
G36*
G01X4631618Y2697025D02*
X4630751Y2697892D01*
G02X4631034Y2698575I283J283D01*
G01X4637866D01*
G02X4638149Y2697892I0J-400D01*
G01X4637282Y2697025D01*
X4631618D01*
G37*
G36*
G01X4634207Y2705151D02*
G03X4634211Y2705612I-971J240D01*
G02X4634601Y2706100I390J88D01*
G01X4638932D01*
G02X4639323Y2705614I0J-400D01*
G03X4639331Y2705154I977J-214D01*
G02X4638943Y2704655I-388J-98D01*
G01X4634595D01*
G02X4634207Y2705151I0J400D01*
G37*
G36*
G01X4588208Y2653382D02*
Y2688289D01*
G02X4588749Y2688664I400J0D01*
G03Y2690537I351J937D01*
G02X4588208Y2690911I-140J375D01*
G01Y2698076D01*
G02X4588738Y2698454I400J0D01*
G03X4590062Y2698970I357J1041D01*
G01X4591588D01*
X4593903Y2696655D01*
G02X4593700Y2695980I-283J-283D01*
G03X4594382Y2694124I200J-980D01*
G02X4594975Y2693773I193J-350D01*
G01Y2692918D01*
X4592875Y2690818D01*
Y2684782D01*
X4596949Y2680708D01*
G02X4596666Y2680025I-283J-283D01*
G01X4596218D01*
X4591959Y2684284D01*
X4591980Y2684388D01*
G03X4591112Y2683520I-1080J212D01*
G01X4591216Y2683541D01*
X4595782Y2678975D01*
X4602102D01*
G02X4602385Y2678292I0J-400D01*
G01X4598200Y2674107D01*
Y2673910D01*
G02X4598003Y2673710I-200J0D01*
G03Y2668574I36J-2568D01*
G02X4598200Y2668374I-3J-200D01*
G01Y2667800D01*
G02X4598000Y2667600I-200J0D01*
G03X4597027Y2665987I0J-1100D01*
G01X4597050Y2665943D01*
Y2663206D01*
X4599206Y2661050D01*
X4609406D01*
X4610306Y2660150D01*
X4631494D01*
X4638094Y2666750D01*
X4638560D01*
G02X4638701Y2666408I0J-200D01*
G01X4631693Y2659400D01*
X4619693D01*
X4618200Y2657907D01*
Y2655693D01*
X4619828Y2654065D01*
G02X4619545Y2653382I-283J-283D01*
G01X4588208D01*
G37*
G36*
G01X4642300D02*
G02X4641900Y2653787I0J400D01*
G03X4640054Y2654333I-1000J13D01*
G02X4639397Y2654305I-338J213D01*
G03X4639298Y2654417I-797J-605D01*
G02X4639294Y2654986I279J287D01*
G01X4645617Y2661310D01*
G02X4646300Y2661027I283J-283D01*
G01Y2659893D01*
X4648093Y2658100D01*
X4651207D01*
X4651523Y2658416D01*
X4653189Y2656750D01*
X4660904D01*
G02X4661274Y2656198I0J-400D01*
G03X4662879Y2655085I926J-379D01*
G02X4663421I271J-294D01*
G03X4664767Y2655074I679J735D01*
G02X4665033I133J-149D01*
G03X4666626Y2656198I667J746D01*
G02X4666996Y2656750I370J151D01*
G01X4682389D01*
X4684349Y2654790D01*
X4709351D01*
X4715250Y2660689D01*
Y2682595D01*
G03X4715371Y2682728I-750J805D01*
G01X4715730Y2682606D01*
Y2653382D01*
X4642300D01*
G37*
G36*
G01X4684971Y2656290D02*
X4683011Y2658250D01*
X4653811D01*
X4652584Y2659477D01*
X4655000Y2661893D01*
Y2670891D01*
G02X4655683Y2671174I400J0D01*
G01X4661982Y2664875D01*
X4663182D01*
X4663375Y2664682D01*
Y2663483D01*
X4668082Y2658775D01*
X4686267D01*
G02X4686618Y2658184I0J-400D01*
G03X4688376I879J-478D01*
G02X4688727Y2658775I351J191D01*
G01X4709418D01*
X4713125Y2662482D01*
Y2674818D01*
X4709659Y2678284D01*
X4709680Y2678388D01*
G03X4708716Y2679694I-1080J212D01*
G01X4708645Y2679702D01*
X4708454Y2679893D01*
X4708750Y2680189D01*
Y2683311D01*
X4707411Y2684650D01*
X4706820D01*
Y2684969D01*
X4706924Y2685026D01*
G03X4706183Y2687070I-529J965D01*
G01X4706078Y2687049D01*
X4705525Y2687603D01*
Y2693002D01*
G02X4706208Y2693285I400J0D01*
G01X4708493Y2691000D01*
X4713407D01*
X4714300Y2691893D01*
Y2704307D01*
X4713190Y2705417D01*
G02X4713473Y2706100I283J283D01*
G01X4715730D01*
Y2684650D01*
G02X4715108Y2684317I-400J0D01*
G03X4713750Y2682595I-608J-917D01*
G01Y2661311D01*
X4708729Y2656290D01*
X4684971D01*
G37*
G36*
G01X4695076Y2659825D02*
G02X4694711Y2660387I0J400D01*
G03X4694475Y2661528I-914J405D01*
G01X4694411Y2661587D01*
Y2661875D01*
X4694618D01*
X4696025Y2663282D01*
Y2665491D01*
X4696630Y2666096D01*
X4696734Y2666075D01*
G03X4697985Y2667518I212J1080D01*
G02X4698362Y2668050I378J132D01*
G01X4710711D01*
X4711392Y2668731D01*
G02X4712075Y2668448I283J-283D01*
G01Y2662918D01*
X4708982Y2659825D01*
X4704525D01*
G02X4704160Y2660387I0J400D01*
G03X4702331I-914J406D01*
G02X4701965Y2659825I-366J-162D01*
G01X4695076D01*
G37*
G36*
G01X4676551Y2660508D02*
X4677918Y2661875D01*
X4683154D01*
G02X4683513Y2661298I0J-400D01*
G03X4683517Y2660405I897J-442D01*
G02X4683160Y2659825I-357J-180D01*
G01X4676834D01*
G02X4676551Y2660508I0J400D01*
G37*
G36*
G01X4678922Y2663519D02*
G03X4678996Y2664323I-874J486D01*
G02X4679376Y2664850I379J127D01*
G01X4683082D01*
G02X4683461Y2664323I0J-400D01*
G03X4683535Y2663519I948J-318D01*
G02X4683186Y2662925I-350J-194D01*
G01X4679272D01*
G02X4678922Y2663519I0J400D01*
G37*
G36*
G01X4685284D02*
G03X4685358Y2664323I-874J486D01*
G02X4685738Y2664850I379J127D01*
G01X4692311D01*
X4695511Y2668050D01*
X4695847D01*
G02X4696016Y2667743I0J-200D01*
G03X4695866Y2666943I930J-588D01*
G01X4695887Y2666838D01*
X4694975Y2665926D01*
Y2663718D01*
X4694182Y2662925D01*
X4685634D01*
G02X4685284Y2663519I0J400D01*
G37*
G36*
G01X4685750Y2666350D02*
G02X4685367Y2666866I0J400D01*
G03X4685384Y2667383I-958J289D01*
G02X4685773Y2667875I389J91D01*
G01X4687717D01*
X4689418Y2669575D01*
X4693948D01*
G02X4694231Y2668892I0J-400D01*
G01X4691689Y2666350D01*
X4685750D01*
G37*
G36*
G01X4685986Y2671729D02*
G02X4685331Y2671866I-283J283D01*
G03X4685120Y2672194I-931J-366D01*
G02X4685123Y2672752I288J278D01*
G03X4685369Y2673737I-713J701D01*
G02X4685753Y2674250I384J113D01*
G01X4694084D01*
X4694292Y2674458D01*
G02X4694975Y2674175I283J-283D01*
G01Y2673022D01*
X4694582Y2672630D01*
X4686887D01*
X4685986Y2671729D01*
G37*
G36*
G01X4663011Y2674212D02*
G03X4662261Y2674241I-411J-912D01*
G02X4661725Y2674617I-136J376D01*
G01Y2675718D01*
X4655225Y2682218D01*
Y2684660D01*
G02X4655750Y2685040I400J0D01*
G03X4656286Y2685015I313J950D01*
G02X4656775Y2684625I89J-390D01*
G01Y2683282D01*
X4663575Y2676482D01*
Y2674577D01*
G02X4663011Y2674212I-400J0D01*
G37*
G36*
G01X4704283Y2684650D02*
G02X4703987Y2685319I0J400D01*
G03X4702749Y2686859I-741J671D01*
G01X4702703Y2686832D01*
X4702450D01*
Y2687111D01*
X4701288Y2688273D01*
G02X4701429Y2688615I141J141D01*
G01X4701468D01*
X4702125Y2689272D01*
Y2690718D01*
X4701418Y2691425D01*
X4696018D01*
X4695725Y2691718D01*
Y2693282D01*
X4695918Y2693475D01*
X4701218D01*
X4702125Y2694382D01*
Y2699618D01*
X4701018Y2700725D01*
X4700979D01*
X4700832Y2701061D01*
G03X4701067Y2701979I-736J678D01*
G02X4701455Y2702475I388J96D01*
G01X4702232D01*
X4704475Y2700233D01*
Y2687168D01*
X4705336Y2686307D01*
X4705315Y2686202D01*
G03X4705538Y2685301I1080J-212D01*
G02X4705226Y2684650I-312J-251D01*
G01X4704283D01*
G37*
G36*
G01X4668418Y2684825D02*
X4668225Y2685018D01*
Y2686232D01*
X4668268Y2686275D01*
X4670568D01*
X4671225Y2686932D01*
Y2688068D01*
X4670568Y2688725D01*
X4668268D01*
X4668225Y2688768D01*
Y2689618D01*
X4661225Y2696618D01*
Y2699518D01*
X4659965Y2700778D01*
Y2702668D01*
X4659699Y2702933D01*
G02X4659841Y2703275I141J141D01*
G01X4661932D01*
X4661975Y2703232D01*
Y2696482D01*
X4668282Y2690175D01*
X4676863D01*
G02X4677219Y2689593I0J-400D01*
G03X4679002I891J-454D01*
G02X4679358Y2690175I357J181D01*
G01X4683099D01*
G02X4683456Y2689593I0J-400D01*
G03X4685239I891J-454D01*
G02X4685595Y2690175I357J181D01*
G01X4685719D01*
X4689587Y2686307D01*
X4689567Y2686202D01*
G03X4689700Y2685429I1080J-212D01*
G02X4689356Y2684825I-344J-204D01*
G01X4688670D01*
G02X4688335Y2685444I0J400D01*
G03X4686659I-838J546D01*
G02X4686324Y2684825I-335J-219D01*
G01X4685520D01*
G02X4685185Y2685444I0J400D01*
G03X4683510I-838J546D01*
G02X4683175Y2684825I-335J-219D01*
G01X4682399D01*
X4682356Y2684868D01*
Y2688868D01*
X4681699Y2689525D01*
X4680564D01*
X4679906Y2688868D01*
Y2684868D01*
X4679864Y2684825D01*
X4679266D01*
G02X4678933Y2685446I0J400D01*
G03X4677267I-833J553D01*
G02X4676934Y2684825I-333J-221D01*
G01X4675726D01*
X4675684Y2684868D01*
Y2688168D01*
X4675026Y2688825D01*
X4673891D01*
X4673234Y2688168D01*
Y2684868D01*
X4673191Y2684825D01*
X4668418D01*
G37*
G36*
G01X4664281Y2685500D02*
G02X4663903Y2686031I0J400D01*
G03X4662524Y2687437I-1040J359D01*
G02X4662000Y2687817I-123J381D01*
G01Y2688004D01*
G02X4662217Y2688203I200J0D01*
G03X4661346Y2689502I83J997D01*
G02X4660682Y2689340I-381J121D01*
G01X4658200Y2691822D01*
Y2697207D01*
X4656807Y2698600D01*
X4650409D01*
G02X4650126Y2699283I0J400D01*
G01X4650318Y2699475D01*
X4652308D01*
X4653140Y2700307D01*
X4653972Y2699475D01*
X4655108D01*
X4655940Y2700307D01*
X4656772Y2699475D01*
X4657908D01*
X4658565Y2700132D01*
Y2700209D01*
G02X4658907Y2700351I200J0D01*
G01X4659010Y2700247D01*
G02X4658866Y2699589I-283J-283D01*
G03X4659614Y2697735I347J-938D01*
G02X4660175Y2697369I161J-366D01*
G01Y2696182D01*
X4662388Y2693969D01*
G02X4662161Y2693290I-283J-283D01*
G03X4663290Y2692161I139J-990D01*
G02X4663969Y2692388I396J-56D01*
G01X4665503Y2690855D01*
G02X4665300Y2690180I-283J-283D01*
G03X4666488Y2689358I200J-980D01*
G01X4666472Y2689458D01*
X4666685Y2689672D01*
X4667175Y2689182D01*
Y2688333D01*
X4668007Y2687500D01*
X4667504Y2686996D01*
G02X4666898Y2687042I-283J283D01*
G03X4664938Y2686154I-886J-652D01*
G01X4664961Y2686047D01*
X4664415Y2685500D01*
X4664281D01*
G37*
G36*
G01X4691593Y2685429D02*
G03X4690435Y2687070I-946J561D01*
G01X4690330Y2687049D01*
X4686154Y2691225D01*
X4679343D01*
G02X4678991Y2691815I0J400D01*
G03X4678983Y2692779I-880J475D01*
G02X4679332Y2693375I349J196D01*
G01X4682818D01*
X4690318Y2700875D01*
X4691921D01*
X4691963Y2700833D01*
Y2699647D01*
G02X4691301Y2699345I-400J0D01*
G03Y2697833I-655J-756D01*
G02X4691963Y2697530I262J-302D01*
G01Y2696232D01*
X4692621Y2695575D01*
X4693756D01*
X4694414Y2696232D01*
Y2699633D01*
X4694456Y2699675D01*
X4695726D01*
G02X4696074Y2699079I0J-400D01*
G03X4697818I872J-490D01*
G02X4698167Y2699675I349J196D01*
G01X4700582D01*
X4701075Y2699182D01*
Y2694818D01*
X4700782Y2694525D01*
X4698249D01*
G02X4697876Y2695072I0J400D01*
G03X4696016I-930J367D01*
G02X4695644Y2694525I-372J-147D01*
G01X4695482D01*
X4694675Y2693718D01*
Y2693605D01*
G02X4694138Y2693229I-400J0D01*
G03X4693470Y2693235I-342J-940D01*
G02X4692940Y2693613I-130J378D01*
G01Y2694206D01*
X4691749Y2695398D01*
X4691746Y2695476D01*
G03X4690609Y2694339I-1100J-37D01*
G01X4690688Y2694337D01*
X4691440Y2693585D01*
Y2693133D01*
X4691187D01*
X4691141Y2693159D01*
G03X4690927Y2691330I-494J-869D01*
G02X4691440Y2690946I112J-384D01*
G01Y2690484D01*
G02X4690927Y2690100I-400J0D01*
G03X4691098Y2688247I-281J-960D01*
G01X4691227Y2688312D01*
X4692689Y2686850D01*
X4695624D01*
G02X4696001Y2686318I0J-400D01*
G03X4696108Y2685444I945J-328D01*
G02X4695773Y2684825I-335J-219D01*
G01X4691937D01*
G02X4691593Y2685429I0J400D01*
G37*
G36*
G01X4660000Y2686891D02*
X4659756D01*
X4659716Y2686909D01*
G03X4659032Y2686964I-417J-909D01*
G02X4658525Y2687349I-107J385D01*
G01Y2687818D01*
X4657118Y2689225D01*
X4654818D01*
X4653925Y2690118D01*
Y2693568D01*
X4653268Y2694225D01*
X4642183D01*
G02X4641826Y2694805I0J400D01*
G03X4641671Y2695930I-893J450D01*
G02X4641966Y2696600I295J270D01*
G01X4651692D01*
G02X4652066Y2696057I0J-400D01*
G03X4653934I934J-357D01*
G02X4654308Y2696600I374J143D01*
G01X4655979D01*
X4656200Y2696378D01*
Y2690993D01*
X4660000Y2687193D01*
Y2686891D01*
G37*
G36*
G01X4668718Y2691225D02*
X4663025Y2696918D01*
Y2700666D01*
G02X4663708Y2700949I400J0D01*
G01X4663782Y2700875D01*
X4669782D01*
X4669975Y2700683D01*
Y2699712D01*
G02X4669314Y2699409I-400J0D01*
G03Y2697892I-652J-758D01*
G02X4669975Y2697589I261J-303D01*
G01Y2694232D01*
X4670832Y2693375D01*
X4676890D01*
G02X4677238Y2692779I0J-400D01*
G03X4677230Y2691815I872J-490D01*
G02X4676878Y2691225I-352J-190D01*
G01X4668718D01*
G37*
G36*
G01X4679010Y2695000D02*
G03X4679061Y2695750I-899J438D01*
G02X4679441Y2696275I380J124D01*
G01X4683368D01*
X4689568Y2702475D01*
X4695587D01*
G02X4695975Y2701979I0J-400D01*
G03X4696047Y2701300I971J-240D01*
G02X4695687Y2700725I-360J-175D01*
G01X4694021D01*
X4693696Y2700401D01*
G02X4693014Y2700684I-283J283D01*
G01Y2701268D01*
X4692356Y2701925D01*
X4689882D01*
X4682382Y2694425D01*
X4679369D01*
G02X4679010Y2695000I0J400D01*
G37*
%LPC*%
G75*
G36*
G01X4682072Y2702522D02*
G03X4681533Y2702489I-251J-311D01*
G02X4681443Y2703963I-718J696D01*
G03X4681982Y2703996I251J311D01*
G02X4682072Y2702522I718J-696D01*
G37*
G36*
G01X4679933Y2678954D02*
G03X4679667I-133J-149D01*
G02X4679290Y2678743I-667J746D01*
G03X4679156Y2678493I58J-191D01*
G02X4677515Y2677472I-956J-293D01*
G03X4677000Y2677500I-274J-291D01*
G02X4675401Y2678341I-600J800D01*
G03X4675115Y2678741I-400J17D01*
G02X4676079Y2680435I285J959D01*
G03X4676621I271J294D01*
G02X4678008Y2680406I679J-735D01*
G03X4678292I142J141D01*
G02X4679667Y2680446I708J-706D01*
G03X4679933I133J149D01*
G02Y2678954I667J-746D01*
G37*
G36*
G01X4616946Y2667433D02*
G03Y2667167I149J-133D01*
G02X4615454I-746J-667D01*
G03Y2667433I-149J133D01*
G02X4616946I746J667D01*
G37*
G36*
G01X4606604Y2699281D02*
G03X4606132Y2699038I-99J-388D01*
G02X4605446Y2700369I-932J362D01*
G03X4605918Y2700612I99J388D01*
G02X4606082Y2700890I932J-362D01*
G03X4606068Y2701419I-307J256D01*
G02X4606530Y2703063I733J681D01*
G03X4606816Y2703520I-108J385D01*
G02X4608070Y2702737I984J180D01*
G03X4607784Y2702280I108J-385D01*
G02X4607568Y2701460I-984J-180D01*
G03X4607582Y2700931I307J-256D01*
G02X4606604Y2699281I-733J-681D01*
G37*
G36*
G01X4600440Y2687944D02*
G03X4600667Y2687430I374J-142D01*
G02X4599354Y2686172I-367J-930D01*
G03X4598850Y2686421I-378J-131D01*
G02X4599537Y2690945I-811J2437D01*
G03X4600122Y2691078I233J325D01*
G02X4600991Y2689600I878J-478D01*
G03X4600591Y2689154I-3J-400D01*
G02X4600440Y2687944I-2552J-296D01*
G37*
G36*
G01X4713694Y2686001D02*
G02X4712616Y2686987I-1000J-11D01*
G03X4712800Y2687189I-16J199D01*
G02X4712881Y2687594I1000J11D01*
G03X4712565Y2688148I-368J157D01*
G02X4713614Y2688746I129J992D01*
G03X4713929Y2688192I368J-157D01*
G02X4713879Y2686203I-129J-992D01*
G03X4713694Y2686001I16J-199D01*
G37*
G54D18*
X4678426Y2701230D03*
X4653000Y2667300D03*
X4598100Y2696200D03*
X4601300Y2694900D03*
X4591600Y2670500D03*
X4656001Y2660856D03*
X4709544Y2689140D03*
Y2663942D03*
%LPD*%
G75*
G54D10*
X4598039Y2656969D03*
Y2703031D03*
G54D11*
Y2688858D03*
Y2671142D03*
G54D12*
X4662863Y2686390D03*
X4620564Y2702833D03*
X4696946Y2667155D03*
X4620564Y2705391D03*
X4696946Y2689140D03*
X4625683Y2702833D03*
X4618005D03*
X4666012Y2686390D03*
X4598000Y2666500D03*
X4648867Y2674767D03*
X4647400Y2667700D03*
X4706395Y2685990D03*
X4623124Y2705391D03*
X4708600Y2678600D03*
X4634600Y2681200D03*
X4620500Y2679900D03*
X4623100D03*
X4599700Y2667700D03*
X4600100Y2665900D03*
X4620800Y2655883D03*
X4632500Y2653600D03*
X4646200Y2665600D03*
X4690646Y2685990D03*
X4623124Y2702833D03*
X4615426Y2700374D03*
X4706395Y2673454D03*
X4690646Y2695439D03*
X4671800Y2662100D03*
Y2664800D03*
X4700096Y2685990D03*
X4625663Y2700374D03*
X4617985D03*
X4709544Y2673454D03*
X4704400Y2680500D03*
X4668600Y2673454D03*
X4686400Y2677200D03*
X4668700Y2676700D03*
X4706395Y2698651D03*
X4709544Y2695501D03*
X4674961Y2698651D03*
X4668200Y2679900D03*
X4666700Y2679800D03*
X4690700Y2676900D03*
X4690600Y2678400D03*
X4598700Y2682000D03*
X4633256Y2685020D03*
X4589095Y2699495D03*
X4628200Y2682500D03*
X4714500Y2683400D03*
X4648100Y2687000D03*
X4620590Y2671690D03*
X4647500Y2660800D03*
X4620500Y2700400D03*
X4703245Y2673454D03*
X4590900Y2684600D03*
X4630700Y2682500D03*
X4658300Y2656050D03*
X4656480Y2655870D03*
X4662363Y2664005D03*
X4659213D03*
X4589100Y2664100D03*
X4589000Y2683500D03*
X4623300Y2684900D03*
X4606300Y2705300D03*
X4595000Y2685900D03*
X4592900Y2664300D03*
X4595200Y2662000D03*
X4605900Y2657900D03*
X4606300Y2654200D03*
X4612900D03*
X4615200Y2654300D03*
X4635815Y2705391D03*
X4638354D03*
X4595100Y2674100D03*
X4599000Y2675600D03*
X4629300Y2663400D03*
X4631100Y2663700D03*
Y2666200D03*
X4630200Y2669400D03*
X4631900Y2671200D03*
X4641016Y2672309D03*
X4637700Y2670800D03*
X4635898Y2672309D03*
Y2674868D03*
X4628137D03*
X4627800Y2672200D03*
X4630696Y2687578D03*
X4628137D03*
X4630500Y2690200D03*
X4628222Y2690222D03*
X4635815Y2697815D03*
X4643400Y2695100D03*
X4635815Y2682544D03*
X4662300Y2676600D03*
X4681261Y2692352D03*
Y2695501D03*
X4709544Y2667155D03*
X4700096Y2692289D03*
X4703245Y2695439D03*
X4706395Y2692289D03*
X4700096Y2698589D03*
X4709544Y2685990D03*
X4703245Y2692289D03*
X4700096Y2695439D03*
X4703245Y2698589D03*
X4681198Y2660856D03*
Y2664005D03*
X4693796Y2701738D03*
Y2664005D03*
X4690646D03*
Y2667155D03*
X4693796Y2673454D03*
X4696946Y2664005D03*
X4706395Y2667155D03*
X4703245D03*
Y2664005D03*
X4706395D03*
X4665512Y2695501D03*
X4655000Y2690100D03*
X4659213Y2695502D03*
X4659200Y2692700D03*
X4671811Y2692289D03*
Y2689140D03*
Y2685990D03*
X4617000Y2694700D03*
X4589200Y2705200D03*
X4589000Y2702000D03*
X4588940Y2686820D03*
X4589180Y2669600D03*
X4589100Y2654300D03*
X4589300Y2657900D03*
X4590800Y2667300D03*
X4615300Y2682300D03*
X4610309Y2705291D03*
X4601400Y2698600D03*
X4612867Y2700374D03*
X4612700Y2691100D03*
X4591500Y2694900D03*
X4589095Y2694505D03*
X4597000Y2683700D03*
X4615280Y2671900D03*
G54D13*
G01X4620564Y2702833D02*
X4620664Y2702933D01*
X4621167D01*
X4625050Y2699050D01*
X4626350D01*
X4626900Y2698500D01*
Y2697200D01*
X4628300Y2695800D01*
X4637986D01*
X4640286Y2698100D01*
X4656600D01*
X4657700Y2697000D01*
Y2691614D01*
X4661500Y2687814D01*
Y2687014D01*
X4662124Y2686390D01*
X4662863D01*
G01X4618005Y2702833D02*
Y2702813D01*
X4619198Y2701620D01*
X4621066D01*
X4624293Y2698393D01*
Y2697307D01*
X4625100Y2696500D01*
X4626186D01*
X4627886Y2694800D01*
X4638400D01*
X4640700Y2697100D01*
X4656186D01*
X4656700Y2696586D01*
Y2691200D01*
X4660500Y2687400D01*
Y2686600D01*
X4662100Y2685000D01*
X4664622D01*
X4666012Y2686390D01*
G54D14*
G01X4690646Y2695439D02*
X4692190Y2693896D01*
Y2688410D01*
X4693000Y2687600D01*
X4700900D01*
X4701700Y2686800D01*
Y2685200D01*
X4703000Y2683900D01*
X4707100D01*
X4708000Y2683000D01*
Y2680500D01*
X4706782Y2679282D01*
Y2678150D01*
X4707582Y2677350D01*
X4707750D01*
X4711300Y2673800D01*
Y2669700D01*
X4710400Y2668800D01*
X4695200D01*
X4692000Y2665600D01*
X4675000D01*
X4673566Y2664166D01*
X4672434D01*
X4671811Y2664789D01*
G01D02*
Y2662111D01*
X4671800Y2662100D01*
G01Y2664800D02*
X4671811Y2664789D01*
G01X4714500Y2683400D02*
Y2661000D01*
X4709040Y2655540D01*
X4684660D01*
X4682700Y2657500D01*
X4653500D01*
X4650200Y2660800D01*
G01X4647500D02*
X4650200D01*
G54D15*
G01X4696946Y2667155D02*
X4695500Y2665709D01*
Y2663500D01*
X4694400Y2662400D01*
X4677700D01*
X4676000Y2660700D01*
X4669200D01*
X4667105Y2662795D01*
Y2664805D01*
X4663010Y2668900D01*
X4661700D01*
X4657800Y2672800D01*
Y2677700D01*
X4651000Y2684500D01*
Y2690000D01*
X4650400Y2690600D01*
X4646000D01*
X4641700Y2686300D01*
X4627600D01*
X4625800Y2688100D01*
X4620900D01*
X4614100Y2694900D01*
Y2703500D01*
X4614800Y2704200D01*
X4619353D01*
X4620544Y2705391D01*
X4620564D01*
G01X4625683Y2702833D02*
X4625783Y2702933D01*
X4628467D01*
X4629810Y2701590D01*
X4645090D01*
X4648400Y2704900D01*
X4662900D01*
X4663600Y2704200D01*
Y2701800D01*
X4664000Y2701400D01*
X4670000D01*
X4670500Y2700900D01*
Y2694450D01*
X4671050Y2693900D01*
X4682600D01*
X4690100Y2701400D01*
X4692138D01*
X4692488Y2701050D01*
Y2696450D01*
X4692839Y2696100D01*
X4693538D01*
X4693889Y2696450D01*
Y2699850D01*
X4694238Y2700200D01*
X4700800D01*
X4701600Y2699400D01*
Y2694600D01*
X4701000Y2694000D01*
X4695700D01*
X4695200Y2693500D01*
Y2691500D01*
X4695800Y2690900D01*
X4701200D01*
X4701600Y2690500D01*
Y2689490D01*
X4701250Y2689140D01*
X4696946D01*
G01X4706395Y2685990D02*
X4705000Y2687385D01*
Y2700450D01*
X4702450Y2703000D01*
X4689350D01*
X4683150Y2696800D01*
X4674000D01*
X4672700Y2698100D01*
Y2702312D01*
X4672350Y2702662D01*
X4665250D01*
X4664900Y2703012D01*
Y2703712D01*
X4665250Y2704062D01*
X4672350D01*
X4672700Y2704412D01*
Y2705300D01*
X4672080Y2705920D01*
X4648140D01*
X4646350Y2704130D01*
X4624385D01*
X4623124Y2705391D01*
G01X4708600Y2678600D02*
X4712600Y2674600D01*
Y2662700D01*
X4709200Y2659300D01*
X4668300D01*
X4663900Y2663700D01*
Y2664900D01*
X4663400Y2665400D01*
X4662200D01*
X4654600Y2673000D01*
Y2678600D01*
X4649800Y2683400D01*
Y2687300D01*
X4647800Y2689300D01*
X4646100D01*
X4641800Y2685000D01*
X4635200D01*
X4634500Y2684300D01*
Y2681300D01*
X4634600Y2681200D01*
G01X4623124Y2702833D02*
X4623204D01*
X4624436Y2701600D01*
X4627700D01*
X4630200Y2699100D01*
X4639000D01*
X4640300Y2700400D01*
X4648700D01*
X4652100Y2703800D01*
X4662150D01*
X4662500Y2703450D01*
Y2696700D01*
X4668500Y2690700D01*
X4685937D01*
X4690646Y2685990D01*
G01X4706395Y2673454D02*
X4707546D01*
X4708100Y2672900D01*
Y2672000D01*
X4707700Y2671600D01*
X4705900D01*
X4704400Y2670100D01*
X4689200D01*
X4687500Y2668400D01*
X4675200D01*
X4673000Y2666200D01*
X4670900D01*
X4670300Y2665600D01*
X4668000D01*
X4661200Y2672400D01*
Y2675500D01*
X4654700Y2682000D01*
Y2686100D01*
X4651800Y2689000D01*
Y2690950D01*
X4651250Y2691500D01*
X4644900D01*
X4642312Y2688912D01*
X4621588D01*
X4618425Y2692075D01*
Y2695642D01*
X4616760Y2697307D01*
Y2699040D01*
X4615426Y2700374D01*
G01X4700096Y2685990D02*
X4698406Y2684300D01*
X4682181D01*
X4681831Y2684650D01*
Y2688650D01*
X4681481Y2689000D01*
X4680781D01*
X4680431Y2688650D01*
Y2684650D01*
X4680081Y2684300D01*
X4675509D01*
X4675159Y2684650D01*
Y2687950D01*
X4674809Y2688300D01*
X4674109D01*
X4673759Y2687950D01*
Y2684650D01*
X4673409Y2684300D01*
X4668200D01*
X4667700Y2684800D01*
Y2686450D01*
X4668050Y2686800D01*
X4670350D01*
X4670700Y2687150D01*
Y2687850D01*
X4670350Y2688200D01*
X4668050D01*
X4667700Y2688550D01*
Y2689400D01*
X4660700Y2696400D01*
Y2699300D01*
X4659440Y2700560D01*
Y2702450D01*
X4659090Y2702800D01*
X4658390D01*
X4658040Y2702450D01*
Y2700350D01*
X4657690Y2700000D01*
X4656990D01*
X4656640Y2700350D01*
Y2702450D01*
X4656290Y2702800D01*
X4655590D01*
X4655240Y2702450D01*
Y2700350D01*
X4654890Y2700000D01*
X4654190D01*
X4653840Y2700350D01*
Y2702450D01*
X4653490Y2702800D01*
X4652790D01*
X4652440Y2702450D01*
Y2700350D01*
X4652090Y2700000D01*
X4650100D01*
X4649600Y2699500D01*
X4640500D01*
X4637500Y2696500D01*
X4631400D01*
X4627526Y2700374D01*
X4625663D01*
G01X4709544Y2673454D02*
X4707621Y2675378D01*
X4706328D01*
X4704800Y2673850D01*
Y2672354D01*
X4703500Y2671054D01*
X4688454D01*
X4686650Y2669250D01*
X4683250D01*
X4681700Y2670800D01*
X4680688D01*
X4680338Y2670450D01*
Y2669650D01*
X4679988Y2669300D01*
X4679288D01*
X4678938Y2669650D01*
Y2670450D01*
X4678588Y2670800D01*
X4677888D01*
X4677538Y2670450D01*
Y2669650D01*
X4677188Y2669300D01*
X4676488D01*
X4676138Y2669650D01*
Y2670450D01*
X4675788Y2670800D01*
X4674200D01*
X4672200Y2668800D01*
X4667850D01*
X4667200Y2669450D01*
Y2671400D01*
X4664100Y2674500D01*
Y2676700D01*
X4657300Y2683500D01*
Y2687200D01*
X4656800Y2687700D01*
X4654300D01*
X4652500Y2689500D01*
Y2692000D01*
X4652200Y2692300D01*
X4639626D01*
X4638881Y2691555D01*
X4637866D01*
X4637149Y2692273D01*
X4634480D01*
X4633763Y2691555D01*
X4626170D01*
X4626086Y2691472D01*
X4622512D01*
X4621795Y2692189D01*
Y2693291D01*
X4619300Y2695785D01*
Y2699059D01*
X4617985Y2700374D01*
G01X4628200Y2682500D02*
X4627090Y2683610D01*
X4621290D01*
X4619300Y2685600D01*
X4614200D01*
X4609300Y2680700D01*
X4597700D01*
X4593400Y2685000D01*
Y2690600D01*
X4595500Y2692700D01*
Y2695800D01*
X4591805Y2699495D01*
X4589095D01*
G01X4620500Y2700400D02*
X4621770Y2699130D01*
Y2696880D01*
X4622150Y2696500D01*
X4623700D01*
X4624300Y2695900D01*
Y2694600D01*
X4624900Y2694000D01*
X4626500D01*
X4626600Y2694100D01*
X4639400D01*
X4639800Y2693700D01*
X4653050D01*
X4653400Y2693350D01*
Y2689900D01*
X4654600Y2688700D01*
X4656900D01*
X4658000Y2687600D01*
Y2684000D01*
X4666200Y2675800D01*
Y2673800D01*
X4668400Y2671600D01*
X4682300D01*
X4683700Y2670200D01*
X4685200D01*
X4687104Y2672104D01*
X4694800D01*
X4695500Y2672804D01*
Y2674600D01*
X4696762Y2675862D01*
X4697257D01*
X4697812Y2675307D01*
X4698307D01*
X4698802Y2675802D01*
Y2676297D01*
X4698247Y2676852D01*
Y2677347D01*
X4699500Y2678600D01*
X4700501D01*
X4700851Y2678250D01*
Y2675450D01*
X4701201Y2675100D01*
X4701901D01*
X4702251Y2675450D01*
Y2678250D01*
X4702601Y2678600D01*
X4704500D01*
X4705000Y2678100D01*
Y2676300D01*
X4703245Y2674545D01*
Y2673454D01*
G01X4630700Y2682500D02*
X4629350Y2681150D01*
X4622050D01*
X4618875Y2684325D01*
X4614625D01*
X4609800Y2679500D01*
X4596000D01*
X4590900Y2684600D01*
G54D16*
G01X4598000Y2666500D02*
Y2663600D01*
X4599600Y2662000D01*
X4609800D01*
X4610700Y2661100D01*
X4631100D01*
X4637700Y2667700D01*
X4647400D01*
G01X4632500Y2656300D02*
X4621217D01*
X4620800Y2655883D01*
G01X4632500Y2653600D02*
Y2656300D01*
G01D02*
X4635700Y2659500D01*
X4640100D01*
X4646200Y2665600D01*
G01X4704400Y2680500D02*
X4698990D01*
X4693690Y2675200D01*
X4682900D01*
X4680600Y2672900D01*
X4669154D01*
X4668600Y2673454D01*
G01X4668700Y2676700D02*
X4670700Y2674700D01*
X4678900D01*
X4681400Y2677200D01*
X4686400D01*
G01X4633256Y2685020D02*
X4626180D01*
X4624400Y2686800D01*
X4613300D01*
X4608500Y2682000D01*
X4598700D01*
G01X4648100Y2682700D02*
X4650700Y2680100D01*
Y2664000D01*
X4647500Y2660800D01*
G01X4648100Y2687000D02*
Y2682700D01*
G01D02*
X4642200Y2676800D01*
X4625700D01*
X4620590Y2671690D01*
G54D17*
G01X4647400Y2667700D02*
Y2673300D01*
X4648867Y2674767D01*
M02*
