G04 ================== begin FILE IDENTIFICATION RECORD ==================*
G04 Layout Name:  AS2258_ASM235CM_BGA272_V2_0801.brd*
G04 Film Name:    ART03*
G04 File Format:  Gerber RS274X*
G04 File Origin:  Cadence Allegro -unreleased*
G04 Origin Date:  Tue Aug  3 11:42:56 2021*
G04 *
G04 Layer:  BOARD GEOMETRY/OUTLINE*
G04 Layer:  ETCH/ART03*
G04 Layer:  PIN/ART03*
G04 Layer:  VIA CLASS/ART03*
G04 *
G04 Offset:    (0.000 0.000)*
G04 Mirror:    No*
G04 Mode:      Positive*
G04 Rotation:  0*
G04 FullContactRelief:  No*
G04 UndefLineWidth:     0.000*
G04 ================== end FILE IDENTIFICATION RECORD ====================*
%FSLAX25Y25*MOIN*%
%IR0*IPPOS*OFA0.00000B0.00000*MIA0B0*SFA1.00000B1.00000*%
%ADD10O,.14961X.07087*%
%ADD13C,.012*%
%ADD12C,.014*%
%ADD11C,.03937*%
%ADD14C,.003*%
%ADD15C,.008*%
%ADD16C,.0035*%
%ADD17C,.004299*%
%ADD18C,.01*%
%ADD19C,.020004*%
G75*
%LPD*%
G75*
G36*
G01X4704645Y2673100D02*
G02X4704245Y2673487I0J400D01*
G03X4704097Y2673979I-1000J-33D01*
G01X4704014Y2674114D01*
X4705500Y2675600D01*
Y2679100D01*
G02X4705900Y2679500I400J0D01*
G03X4706646Y2681167I0J1000D01*
G02Y2681433I149J133D01*
G03X4705900Y2683100I-746J667D01*
G02X4705500Y2683500I0J400D01*
G01Y2684680D01*
G02X4706041Y2685055I400J0D01*
G03Y2686926I353J936D01*
G02X4705500Y2687300I-141J374D01*
G01Y2690980D01*
G02X4706041Y2691354I400J0D01*
G03Y2693225I353J936D01*
G02X4705500Y2693599I-141J374D01*
G01Y2694129D01*
G02X4706041Y2694503I400J0D01*
G03Y2696375I353J936D01*
G02X4705500Y2696749I-141J374D01*
G01Y2704200D01*
X4707000Y2705700D01*
X4713500D01*
X4715720Y2703480D01*
Y2684535D01*
G02X4715086Y2684211I-400J0D01*
G03Y2682589I-586J-811D01*
G02X4715720Y2682265I234J-324D01*
G01Y2673100D01*
X4710944D01*
G02X4710544Y2673487I0J400D01*
G03X4708545I-1000J-33D01*
G02X4708145Y2673100I-400J13D01*
G01X4707794D01*
G02X4707395Y2673487I0J400D01*
G03X4705395I-1000J-33D01*
G02X4704996Y2673100I-400J13D01*
G01X4704645D01*
G37*
G36*
G01X4688459Y2657434D02*
G03X4687917Y2658614I-963J272D01*
G02X4687802Y2659259I168J363D01*
G01X4689525Y2660982D01*
Y2667918D01*
X4687151Y2670292D01*
G02X4687434Y2670975I283J283D01*
G01X4689782D01*
X4691975Y2668782D01*
Y2659518D01*
X4689382Y2656925D01*
X4688844D01*
G02X4688459Y2657434I0J400D01*
G37*
G36*
G01X4691129Y2672929D02*
X4694875Y2669182D01*
Y2662018D01*
G02X4694281Y2661668I-400J0D01*
G03X4693531Y2661757I-485J-875D01*
G02X4693025Y2662143I-106J386D01*
G01Y2669218D01*
X4690218Y2672025D01*
X4685367D01*
G03X4685239Y2672212I-967J-525D01*
G02X4685241Y2672733I305J259D01*
G03X4685376Y2672929I-831J720D01*
G01X4691129D01*
G37*
G36*
G01X4635525Y2699214D02*
G03X4636095Y2699219I275J1065D01*
G01X4636207Y2699250D01*
X4638875Y2696583D01*
Y2694925D01*
X4637518D01*
X4635025Y2697418D01*
Y2698826D01*
G02X4635525Y2699214I400J0D01*
G37*
G36*
G01X4634199Y2705123D02*
G03X4634211Y2705612I-963J269D01*
G02X4634601Y2706100I390J88D01*
G01X4638932D01*
G02X4639323Y2705614I0J-400D01*
G03X4639338Y2705125I977J-214D01*
G02X4638954Y2704615I-385J-110D01*
G01X4634584D01*
G02X4634199Y2705123I0J400D01*
G37*
G36*
G01X4588208Y2653382D02*
Y2688289D01*
G02X4588749Y2688664I400J0D01*
G03Y2690537I351J937D01*
G02X4588208Y2690911I-140J375D01*
G01Y2698182D01*
G02X4588747Y2698557I400J0D01*
G03Y2700433I348J938D01*
G02X4588208Y2700808I-139J375D01*
G01Y2706100D01*
X4611419D01*
G02X4611811Y2705618I0J-400D01*
G03X4612028Y2704704I1077J-226D01*
G02X4611999Y2704171I-312J-250D01*
G01X4609972Y2702145D01*
X4609725Y2702247D01*
Y2702318D01*
X4608806Y2703237D01*
X4608844Y2703354D01*
G03X4606708Y2703567I-1044J346D01*
G02X4606441Y2703140I-397J-48D01*
G03X4606049Y2701296I359J-1040D01*
G02X4606056Y2701012I-137J-146D01*
G03X4605849Y2700707I794J-762D01*
G02X4605409Y2700480I-364J166D01*
G03X4605182Y2698300I-209J-1080D01*
G02X4605575Y2697900I-7J-400D01*
G01Y2672582D01*
X4609182Y2668975D01*
X4614883D01*
G02X4615259Y2668439I0J-400D01*
G03X4615257Y2668434I937J-349D01*
G01X4615210Y2668300D01*
X4608407D01*
X4604900Y2671807D01*
Y2691437D01*
X4603237Y2693100D01*
X4602107D01*
X4602000Y2693207D01*
Y2694186D01*
G03X4600883Y2693991I-700J714D01*
G01X4601000Y2693937D01*
Y2692793D01*
X4601743Y2692050D01*
X4601263Y2691570D01*
X4601162Y2691587D01*
G03X4600122Y2691078I-162J-987D01*
G02X4599537Y2690945I-351J191D01*
G03X4598850Y2686421I-1498J-2087D01*
G02X4599354Y2686172I126J-380D01*
G03X4600667Y2687430I945J327D01*
G02X4600440Y2687944I147J372D01*
G03X4600591Y2689154I-2401J914D01*
G02X4600991Y2689600I397J46D01*
G03X4601987Y2690762I9J1000D01*
G01X4601970Y2690863D01*
X4602189Y2691082D01*
X4602411D01*
X4602900Y2690593D01*
Y2670978D01*
X4607578Y2666300D01*
X4615210D01*
X4615257Y2666167D01*
G03X4616946Y2667167I943J334D01*
G02Y2667433I149J133D01*
G03X4617141Y2668439I-746J667D01*
G02X4617517Y2668975I376J136D01*
G01X4618982D01*
X4620235Y2667722D01*
Y2662408D01*
X4624778Y2657865D01*
X4641688D01*
X4645488Y2654065D01*
G02X4645205Y2653382I-283J-283D01*
G01X4642300D01*
G02X4641900Y2653787I0J400D01*
G03X4640054Y2654333I-1000J13D01*
G02X4639397Y2654305I-338J213D01*
G03X4637759Y2654241I-797J-605D01*
G02X4637130Y2654184I-337J216D01*
G03X4635731Y2654244I-730J-684D01*
G02X4635160Y2654281I-267J297D01*
G03X4633709Y2654354I-760J-650D01*
G02X4633167Y2654346I-276J289D01*
G03X4631857Y2654366I-667J-746D01*
G02X4631343I-257J306D01*
G03X4630015Y2654328I-643J-766D01*
G02X4629500Y2654300I-274J291D01*
G03X4627902Y2653568I-600J-800D01*
G01X4627889Y2653382D01*
X4588208D01*
G37*
G36*
G01X4695990D02*
G02X4695708Y2654065I0J400D01*
G01X4699775Y2658132D01*
Y2671956D01*
G02X4700154Y2672355I400J0D01*
G03X4699016Y2673242I-58J1099D01*
G01X4699037Y2673138D01*
X4698725Y2672826D01*
Y2672767D01*
X4698478Y2672665D01*
X4698005Y2673138D01*
X4698026Y2673242D01*
G03X4697158Y2672374I-1080J212D01*
G01X4697262Y2672395D01*
X4697675Y2671982D01*
Y2668516D01*
G02X4697181Y2668127I-400J0D01*
G03X4696503Y2668051I-235J-972D01*
G02X4695925Y2668410I-177J359D01*
G01Y2669618D01*
X4691564Y2673979D01*
X4685376D01*
G03X4683915Y2674437I-967J-525D01*
G01X4683873Y2674415D01*
X4683625D01*
Y2674982D01*
X4684825Y2676182D01*
Y2683168D01*
X4679170Y2688823D01*
X4679190Y2688928D01*
G03X4677396Y2689976I-1080J212D01*
G02X4676736Y2690280I-260J304D01*
G01Y2691284D01*
G02X4677415Y2691571I400J0D01*
G03Y2693008I696J718D01*
G02X4676736Y2693295I-278J287D01*
G01Y2694434D01*
G02X4677415Y2694721I400J0D01*
G03X4677132Y2695645I696J718D01*
G01X4677098Y2695486D01*
X4676736D01*
Y2696472D01*
X4677794Y2697530D01*
X4677899Y2697509D01*
G03X4677031Y2698377I212J1080D01*
G01X4677052Y2698272D01*
X4675686Y2696906D01*
Y2685672D01*
X4678382Y2682975D01*
X4679482D01*
X4681875Y2680582D01*
Y2678418D01*
X4680875Y2677418D01*
Y2669982D01*
X4682882Y2667975D01*
X4682970D01*
G02X4683354Y2667463I0J-400D01*
G03X4683330Y2666943I1056J-308D01*
G01X4683351Y2666838D01*
X4682175Y2665662D01*
Y2663918D01*
X4681283Y2663025D01*
X4680125D01*
Y2666142D01*
X4679150Y2667117D01*
X4679147Y2667196D01*
G03X4678469Y2666138I-1099J-41D01*
G01X4678593Y2666189D01*
X4679075Y2665707D01*
Y2665368D01*
G02X4678508Y2665005I-400J0D01*
G03X4677836Y2665085I-460J-1000D01*
G01X4677732Y2665064D01*
X4673471Y2669325D01*
X4673186D01*
G02X4672816Y2669878I0J400D01*
G03X4671818Y2671400I-1016J421D01*
G02X4671425Y2671800I7J400D01*
G01Y2680518D01*
X4669925Y2682018D01*
Y2690218D01*
X4665418Y2694725D01*
X4654277D01*
G02X4653912Y2695289I0J400D01*
G03X4652088I-912J411D01*
G02X4651723Y2694725I-365J-164D01*
G01X4646382D01*
X4645582Y2693925D01*
X4642110D01*
G02X4641796Y2694573I0J400D01*
G03X4641984Y2694930I-863J682D01*
G01X4641998Y2694977D01*
X4644722Y2697701D01*
X4658656D01*
X4658700Y2697678D01*
G03X4660264Y2698326I513J973D01*
G01X4660279Y2698373D01*
X4661355Y2699450D01*
X4667320D01*
G02X4667703Y2698936I0J-400D01*
G03X4669621I959J-285D01*
G02X4670004Y2699450I383J114D01*
G01X4671456D01*
X4673206Y2697701D01*
X4674404D01*
X4674448Y2697678D01*
G03Y2699624I513J973D01*
G01X4674404Y2699601D01*
X4673993D01*
X4673663Y2699931D01*
X4673866Y2700135D01*
X4673955Y2700131D01*
G03X4673037Y2701400I45J999D01*
G02X4672369Y2701225I-385J108D01*
G01X4672244Y2701350D01*
X4660568D01*
X4658935Y2699717D01*
X4658888Y2699702D01*
G03X4658700Y2699624I326J-1051D01*
G01X4658656Y2699601D01*
X4643935D01*
X4640654Y2696321D01*
X4640607Y2696306D01*
G03X4640487Y2696262I326J-1051D01*
G02X4639925Y2696627I-162J366D01*
G01Y2697018D01*
X4638315Y2698628D01*
G02X4638536Y2699306I283J283D01*
G03X4638890Y2701157I-153J988D01*
G02X4638884Y2701844I202J345D01*
G03X4639250Y2702207I-571J941D01*
G02X4639932Y2702205I341J-210D01*
G03X4641799Y2702182I940J571D01*
G01X4647034D01*
X4647734Y2702883D01*
G02X4648403Y2702703I283J-283D01*
G03X4650338Y2703210I967J257D01*
G02X4650726Y2703710I387J100D01*
G01X4676879D01*
X4677920Y2702670D01*
G02X4677862Y2702056I-283J-283D01*
G03X4679252Y2700666I564J-826D01*
G02X4679865Y2700724I330J-226D01*
G01X4679939Y2700650D01*
X4689136D01*
X4689896Y2699889D01*
Y2699393D01*
G03Y2697784I750J-805D01*
G01Y2696244D01*
G03X4691397I750J-805D01*
G01Y2697784D01*
G03Y2699393I-750J805D01*
G01Y2700511D01*
X4689757Y2702150D01*
X4683882D01*
G02X4683545Y2702764I0J400D01*
G03X4681982Y2703996I-845J536D01*
G02X4681443Y2703963I-287J278D01*
G03X4679898Y2703585I-628J-778D01*
G02X4679249Y2703462I-367J160D01*
G01X4678209Y2704502D01*
G02X4678492Y2705185I283J283D01*
G01X4684343D01*
X4684442Y2705086D01*
Y2703396D01*
X4685203Y2702635D01*
X4686531D01*
X4687292Y2703396D01*
Y2705116D01*
X4687390Y2705215D01*
X4687782D01*
X4687881Y2705116D01*
Y2703396D01*
X4688642Y2702635D01*
X4689970D01*
X4690731Y2703396D01*
Y2705066D01*
X4690830Y2705165D01*
X4691221D01*
X4691320Y2705066D01*
Y2703396D01*
X4692081Y2702635D01*
X4693409D01*
X4694170Y2703396D01*
Y2705036D01*
X4694269Y2705135D01*
X4694661D01*
X4694759Y2705036D01*
Y2703396D01*
X4695520Y2702635D01*
X4695637D01*
G02X4696011Y2702093I0J-400D01*
G03X4697484Y2702582I935J-355D01*
G02X4697416Y2703202I215J337D01*
G01X4697609Y2703396D01*
Y2705056D01*
X4697708Y2705155D01*
X4698332D01*
X4698431Y2705056D01*
Y2703596D01*
X4699192Y2702835D01*
X4699498D01*
Y2702545D01*
X4699431Y2702485D01*
G03X4700764Y2702482I665J-747D01*
G02X4700748Y2703063I267J298D01*
G01X4700852Y2703167D01*
G02X4701535Y2702884I283J-283D01*
G01Y2702396D01*
X4702296Y2701634D01*
X4704036D01*
X4704135Y2701536D01*
Y2687679D01*
X4703517Y2687061D01*
X4703416Y2687077D01*
G03X4704332Y2686161I-171J-1087D01*
G01X4704316Y2686262D01*
X4704658Y2686604D01*
G02X4705000Y2686462I141J-141D01*
G01Y2683486D01*
G02X4704543Y2683090I-400J0D01*
G03X4703654Y2681433I-143J-990D01*
G02Y2681167I-149J-133D01*
G03X4704543Y2679510I746J-667D01*
G02X4705000Y2679114I57J-396D01*
G01Y2675807D01*
X4703592Y2674399D01*
X4703482Y2674426D01*
G03X4702274Y2673217I-237J-972D01*
G01X4702300Y2673108D01*
X4702134Y2672941D01*
G03X4702275Y2672600I141J-141D01*
G01X4702722D01*
X4702767Y2672576D01*
G03X4703724I478J878D01*
G01X4703768Y2672600D01*
X4705872D01*
X4705917Y2672576D01*
G03X4706873I478J878D01*
G01X4706918Y2672600D01*
X4709022D01*
X4709066Y2672576D01*
G03X4710023I478J878D01*
G01X4710068Y2672600D01*
X4711750D01*
Y2663052D01*
X4710341Y2661643D01*
X4703944D01*
G03Y2659943I-698J-850D01*
G01X4711045D01*
X4713450Y2662348D01*
Y2672600D01*
X4715730D01*
Y2653382D01*
X4695990D01*
G37*
G36*
G01X4647368Y2655155D02*
X4642557Y2659965D01*
X4625648D01*
X4622335Y2663278D01*
Y2668592D01*
X4620823Y2670105D01*
G02X4620958Y2670760I283J283D01*
G03X4619602Y2671536I-368J930D01*
G02X4619206Y2671075I-395J-61D01*
G01X4610052D01*
X4607725Y2673403D01*
Y2676267D01*
G02X4608408Y2676550I400J0D01*
G01X4610282Y2674675D01*
X4613851D01*
G02X4614236Y2674168I0J-400D01*
G03X4616164I964J-268D01*
G02X4616549Y2674675I385J107D01*
G01X4621882D01*
X4623165Y2673392D01*
Y2663882D01*
X4626272Y2660775D01*
X4642962D01*
X4646562Y2657175D01*
X4661176D01*
G02X4661468Y2656502I0J-400D01*
G03X4661218Y2655631I732J-682D01*
G02X4660825Y2655155I-393J-76D01*
G01X4647368D01*
G37*
G36*
G01X4696608Y2657936D02*
G02X4695925Y2658219I-283J283D01*
G01Y2665900D01*
G02X4696503Y2666258I400J0D01*
G03X4697181Y2666182I443J897D01*
G02X4697675Y2665794I94J-389D01*
G01Y2659002D01*
X4696608Y2657936D01*
G37*
G36*
G01X4658918Y2663225D02*
X4657801Y2664342D01*
G02X4658084Y2665025I283J283D01*
G01X4664257D01*
G02X4664615Y2664448I0J-400D01*
G03X4664550Y2663734I897J-443D01*
G02X4664164Y2663225I-385J-109D01*
G01X4658918D01*
G37*
G36*
G01X4627038Y2662615D02*
X4625115Y2664538D01*
Y2667446D01*
G02X4625798Y2667729I400J0D01*
G01X4626592Y2666935D01*
X4640002D01*
X4643639Y2663298D01*
G02X4643356Y2662615I-283J-283D01*
G01X4627038D01*
G37*
G36*
G01X4645032Y2664661D02*
X4641008Y2668685D01*
X4627578D01*
X4627025Y2669238D01*
Y2675308D01*
X4623755Y2678578D01*
G02X4623770Y2679157I283J283D01*
G03X4622224Y2679418I-670J743D01*
G02X4621873Y2678825I-350J-193D01*
G01X4621727D01*
G02X4621376Y2679418I0J400D01*
G03X4619624I-876J482D01*
G02X4619273Y2678825I-350J-193D01*
G01X4613538D01*
X4611825Y2680538D01*
Y2701047D01*
X4615115Y2704337D01*
X4615220Y2704315D01*
G03X4616523Y2705618I226J1077D01*
G02X4616914Y2706100I391J82D01*
G01X4619199D01*
G02X4619589Y2705612I0J-400D01*
G03X4621540I976J-220D01*
G02X4621930Y2706100I390J88D01*
G01X4622236D01*
Y2705856D01*
X4622218Y2705815D01*
G03X4624029I906J-424D01*
G01X4624011Y2705856D01*
Y2706100D01*
X4624214D01*
G02X4624606Y2705618I0J-400D01*
G03X4625854Y2704304I1077J-226D01*
G01X4625954Y2704320D01*
X4626285Y2703990D01*
X4626061Y2703766D01*
X4625949Y2703797D01*
G03X4626666Y2703013I-266J-964D01*
G02X4627060Y2703485I393J72D01*
G01X4629301D01*
G02X4629694Y2703010I0J-400D01*
G03X4630130Y2701987I983J-186D01*
G02X4630121Y2701311I-219J-335D01*
G03X4630171Y2699407I576J-938D01*
G01Y2696986D01*
X4632866Y2694291D01*
G02X4632775Y2693658I-283J-283D01*
G03X4633555Y2691826I480J-877D01*
G02X4634075Y2691444I120J-382D01*
G01Y2691096D01*
X4633828D01*
X4633786Y2691117D01*
G03X4633579Y2689251I-446J-895D01*
G02X4634075Y2688862I96J-388D01*
G01Y2688537D01*
X4633828D01*
X4633786Y2688558D01*
G03X4632389Y2687350I-446J-895D01*
G02X4632009Y2686825I-380J-125D01*
G01X4625418D01*
X4623537Y2688706D01*
G02X4623591Y2689317I283J283D01*
G03X4622025Y2690240I-572J821D01*
G02X4621344Y2689999I-398J41D01*
G01X4620885Y2690458D01*
Y2695658D01*
X4620404Y2696139D01*
G02X4620646Y2696820I283J283D01*
G03X4619602Y2697479I-102J995D01*
G01X4619645Y2697360D01*
X4619414Y2697129D01*
X4619044Y2697498D01*
X4619065Y2697603D01*
G03X4617047Y2698389I-1080J212D01*
G02X4616365I-341J209D01*
G03X4615638Y2696735I-938J-574D01*
G01X4615743Y2696756D01*
X4616824Y2695675D01*
X4617882D01*
X4618275Y2695282D01*
Y2688882D01*
X4621282Y2685875D01*
X4623482D01*
X4626082Y2683275D01*
X4626851D01*
G02X4627236Y2682768I0J-400D01*
G03X4629164I964J-268D01*
G02X4629549Y2683275I385J107D01*
G01X4629846D01*
Y2683024D01*
X4629822Y2682979D01*
G03X4631664Y2682768I878J-479D01*
G02X4632049Y2683275I385J107D01*
G01X4632424D01*
Y2683020D01*
X4632396Y2682972D01*
G03X4633221Y2681461I859J-512D01*
G02X4633605Y2681101I-14J-400D01*
G03X4634470Y2680208I995J99D01*
G02X4634817Y2679841I-52J-397D01*
G03X4635589Y2678871I1097J81D01*
G01X4635636Y2678856D01*
X4644350Y2670143D01*
Y2666106D01*
X4645134Y2665322D01*
X4645149Y2665274D01*
G03X4645331Y2664925I1051J326D01*
G01X4645032Y2664661D01*
G37*
G36*
G01X4653167Y2666075D02*
X4652225Y2667018D01*
Y2668566D01*
G02X4652908Y2668849I400J0D01*
G01X4654182Y2667575D01*
X4661118D01*
X4661818Y2668275D01*
X4664682D01*
X4666199Y2666758D01*
G02X4665916Y2666075I-283J-283D01*
G01X4653167D01*
G37*
G36*
G01X4657535Y2674286D02*
G02X4656972Y2674284I-283J283D01*
G03X4656644Y2674506I-772J-784D01*
G01X4656525Y2674559D01*
Y2678918D01*
X4655476Y2679967D01*
Y2680027D01*
X4656731Y2681282D01*
Y2682212D01*
X4655928Y2683015D01*
X4654751D01*
Y2684192D01*
X4653948Y2684995D01*
X4653813D01*
G02X4653663Y2685327I0J200D01*
G03X4652424Y2685119I-749J663D01*
G02X4652510Y2684487I-196J-349D01*
G01X4651763Y2683740D01*
X4651703D01*
X4650425Y2685018D01*
Y2687318D01*
X4645551Y2692192D01*
G02X4645834Y2692875I283J283D01*
G01X4646018D01*
X4646818Y2693675D01*
X4661295D01*
G02X4661582Y2692996I0J-400D01*
G03X4663018I718J-696D01*
G02X4663305Y2693675I287J278D01*
G01X4664982D01*
X4668875Y2689782D01*
Y2681582D01*
X4670375Y2680082D01*
Y2675721D01*
G02X4670033Y2675580I-200J0D01*
G01X4669888Y2675725D01*
X4669617D01*
G02X4669464Y2676054I0J200D01*
G03X4667936I-764J646D01*
G01X4667983Y2675998D01*
Y2675725D01*
X4667618D01*
X4667125Y2676218D01*
Y2677618D01*
X4666612Y2678131D01*
G02X4666839Y2678810I283J283D01*
G03X4667377Y2679064I-139J990D01*
G02X4667627Y2679080I135J-147D01*
G03X4668106Y2680896I573J820D01*
G02X4667677Y2681376I-38J398D01*
G03X4667225Y2682505I-1077J224D01*
G01Y2682888D01*
X4666488Y2683625D01*
X4661212D01*
X4660475Y2682888D01*
Y2679882D01*
X4664575Y2675782D01*
Y2675034D01*
G02X4663892Y2674751I-400J0D01*
G01X4663318Y2675325D01*
X4658574D01*
X4657535Y2674286D01*
G37*
G36*
G01X4652532Y2674464D02*
G02X4652025Y2674849I-107J385D01*
G01Y2677918D01*
X4643618Y2686325D01*
X4639414D01*
G02X4639117Y2686993I0J400D01*
G03X4639349Y2687886I-743J670D01*
G02X4639738Y2688375I390J89D01*
G01X4642182D01*
X4653575Y2676982D01*
Y2674849D01*
G02X4653068Y2674464I-400J0D01*
G03X4652532I-268J-964D01*
G37*
G36*
G01X4642192Y2674988D02*
X4636980Y2680200D01*
X4636966Y2680247D01*
G03X4635965Y2681021I-1051J-325D01*
G02X4635588Y2681357I18J400D01*
G03X4634635Y2682200I-988J-157D01*
G02X4634251Y2682560I14J400D01*
G03X4634211Y2682756I-995J-99D01*
G02X4634593Y2683275I382J118D01*
G01X4639882D01*
X4642875Y2680282D01*
Y2675271D01*
G02X4642192Y2674988I-400J0D01*
G37*
%LPC*%
G75*
G36*
G01X4600959Y2664529D02*
G02X4599400Y2663700I-559J-829D01*
G03X4599000Y2664100I-400J0D01*
G01X4594990D01*
X4590750Y2668340D01*
Y2669802D01*
G02X4591856Y2671570I850J698D01*
G03X4592350Y2671959I93J389D01*
G01Y2694794D01*
X4592834Y2695278D01*
X4592849Y2695326D01*
G02X4594366Y2694003I1051J-325D01*
G01X4594250Y2693949D01*
Y2669674D01*
X4596474Y2667450D01*
X4597443D01*
X4597487Y2667473D01*
G02X4598166Y2667588I513J-973D01*
G03X4598620Y2667908I60J395D01*
G02X4598658Y2668054I1080J-208D01*
G03X4598247Y2668582I-379J129D01*
G02X4599235Y2673415I-208J2560D01*
G03X4599819Y2673811I186J354D01*
G02X4600710Y2672920I995J104D01*
G03X4600313Y2672336I-42J-398D01*
G02X4599914Y2669386I-2274J-1194D01*
G03X4600071Y2668736I292J-273D01*
G02X4600626Y2667107I-371J-1036D01*
G03X4600688Y2666830I168J-108D01*
G02X4600894Y2665138I-588J-930D01*
G03X4600959Y2664529I289J-277D01*
G37*
G36*
G01X4691420Y2677827D02*
G03X4691436Y2677577I164J-115D01*
G02X4689880Y2677473I-736J-677D01*
G03X4689864Y2677723I-164J115D01*
G02X4691420Y2677827I736J677D01*
G37*
G54D19*
X4708600Y2678600D03*
X4712694Y2689140D03*
Y2692352D03*
X4709544Y2692289D03*
Y2689140D03*
Y2685990D03*
X4590900Y2684600D03*
X4598100Y2696200D03*
X4620800Y2655883D03*
X4598700Y2682000D03*
X4693796Y2689140D03*
X4696946Y2695439D03*
Y2689140D03*
X4693796Y2692289D03*
X4687497Y2685990D03*
X4690646D03*
Y2689140D03*
Y2692289D03*
X4696946Y2685990D03*
X4686400Y2677200D03*
X4684347Y2685990D03*
Y2689140D03*
X4696946Y2698589D03*
X4706400Y2670300D03*
X4709600D03*
X4700096Y2685990D03*
X4709544Y2663942D03*
X4623124Y2702833D03*
X4620564D03*
X4618005D03*
X4623150Y2682340D03*
X4615426Y2700374D03*
X4618300Y2683100D03*
X4625663Y2700374D03*
Y2697815D03*
X4620500Y2700400D03*
X4617985Y2700374D03*
X4623020Y2695256D03*
Y2692696D03*
X4628222Y2697815D03*
X4625578Y2690137D03*
X4630696Y2692780D03*
X4628137D03*
X4662863Y2686390D03*
X4659300Y2686000D03*
X4666012Y2686390D03*
X4665500Y2689200D03*
X4656064Y2685990D03*
X4662300Y2689200D03*
%LPD*%
G75*
G54D10*
X4598039Y2656969D03*
Y2703031D03*
G54D11*
Y2688858D03*
Y2671142D03*
G54D12*
X4684410Y2660856D03*
X4678111Y2698589D03*
X4684410Y2673454D03*
X4606800Y2702100D03*
X4684410Y2664005D03*
X4615426Y2697815D03*
X4672100Y2667500D03*
X4648800Y2677600D03*
X4665512Y2670304D03*
X4633236Y2700279D03*
X4662600Y2673300D03*
X4630696Y2700374D03*
X4593900Y2695000D03*
X4598000Y2666500D03*
X4666600Y2681600D03*
X4668662Y2667155D03*
X4599700Y2667700D03*
X4591600Y2670500D03*
X4600100Y2665900D03*
X4684400Y2671500D03*
X4607800Y2703700D03*
X4646200Y2665600D03*
X4648100D03*
X4635915Y2679922D03*
X4678048Y2667155D03*
X4646812Y2677612D03*
X4605200Y2699400D03*
X4700096Y2673454D03*
X4668662Y2670304D03*
X4662400Y2681500D03*
X4606850Y2700250D03*
X4696946Y2673454D03*
X4703245Y2685990D03*
X4625683Y2705391D03*
X4690646Y2695439D03*
Y2698589D03*
X4640873Y2702777D03*
X4659400Y2673300D03*
X4635755Y2702785D03*
X4684410Y2667155D03*
X4617985Y2697815D03*
X4656200Y2673500D03*
X4638314Y2702785D03*
X4713800Y2687200D03*
X4712694Y2685990D03*
X4703245Y2660793D03*
X4706395Y2698651D03*
X4709544Y2695501D03*
X4659213Y2698651D03*
X4674961Y2698651D03*
X4640933Y2695256D03*
X4678111Y2689140D03*
X4612887Y2705391D03*
X4635800Y2700279D03*
X4671800Y2670300D03*
X4678048Y2664005D03*
X4664400Y2681500D03*
X4678100Y2686000D03*
X4615446Y2705391D03*
X4658300Y2656050D03*
X4656480Y2655870D03*
X4662363Y2664005D03*
X4659213D03*
X4589100Y2664100D03*
X4589000Y2683500D03*
X4625578Y2695256D03*
X4623300Y2684900D03*
X4606300Y2705300D03*
X4595000Y2685900D03*
X4592900Y2664300D03*
X4595200Y2662000D03*
X4605900Y2657900D03*
X4606300Y2654200D03*
X4612900D03*
X4615200Y2654300D03*
X4635815Y2705391D03*
X4638354D03*
X4595100Y2674100D03*
X4599000Y2675600D03*
X4629300Y2663400D03*
X4631100Y2663700D03*
Y2666200D03*
X4630200Y2669400D03*
X4631900Y2671200D03*
X4641016Y2672309D03*
X4637700Y2670800D03*
X4635898Y2672309D03*
Y2674868D03*
X4628137D03*
X4627800Y2672200D03*
X4630696Y2687578D03*
X4628137D03*
X4630500Y2690200D03*
X4628222Y2690222D03*
X4635815Y2697815D03*
X4643400Y2695100D03*
X4640932Y2687579D03*
X4635815Y2682544D03*
X4662300Y2676600D03*
X4681261Y2692352D03*
Y2695501D03*
X4709544Y2667155D03*
X4700096Y2692289D03*
X4703245Y2695439D03*
X4700096Y2698589D03*
X4703245Y2692289D03*
X4700096Y2695439D03*
X4703245Y2698589D03*
X4681198Y2664005D03*
X4693796Y2701738D03*
Y2664005D03*
X4690646D03*
Y2667155D03*
X4693796Y2673454D03*
X4696946Y2664005D03*
X4706395Y2667155D03*
X4703245D03*
Y2664005D03*
X4706395D03*
X4623000Y2697900D03*
X4653000Y2667300D03*
X4680600Y2679700D03*
X4678200Y2678200D03*
X4676400Y2678300D03*
X4679000Y2679700D03*
X4677300D03*
X4675400D03*
X4665512Y2695501D03*
X4655000Y2690100D03*
X4659213Y2695502D03*
X4659200Y2692700D03*
X4649700Y2689200D03*
X4671811Y2692289D03*
Y2689140D03*
Y2685990D03*
X4617000Y2694700D03*
X4589200Y2705200D03*
X4589000Y2702000D03*
X4588940Y2686820D03*
X4589180Y2669600D03*
X4589100Y2654300D03*
X4589300Y2657900D03*
X4590800Y2667300D03*
X4615300Y2682300D03*
X4610309Y2705291D03*
X4601400Y2698600D03*
X4612867Y2700374D03*
X4618005Y2705391D03*
X4615446Y2702825D03*
X4612700Y2691100D03*
X4591500Y2694900D03*
X4589095Y2694505D03*
X4597000Y2683700D03*
X4615280Y2671900D03*
G54D13*
G01X4598000Y2666500D02*
X4596080D01*
X4593300Y2669280D01*
Y2694400D01*
X4593900Y2695000D01*
G01X4646200Y2665600D02*
X4648100D01*
G01X4635915Y2679922D02*
X4645300Y2670536D01*
Y2666500D01*
X4646200Y2665600D01*
G01X4674961Y2698651D02*
X4673599D01*
X4671850Y2700400D01*
X4660962D01*
X4659213Y2698651D01*
G01D02*
X4644328D01*
X4640933Y2695256D01*
X4601000Y2690600D03*
X4616200Y2666500D03*
X4601300Y2694900D03*
X4616200Y2668100D03*
G54D14*
G01X4601000Y2690600D02*
X4601982Y2691582D01*
X4602618D01*
X4603400Y2690800D01*
Y2671186D01*
X4607786Y2666800D01*
X4615900D01*
X4616200Y2666500D01*
G01X4601300Y2694900D02*
X4601500Y2694700D01*
Y2693000D01*
X4601900Y2692600D01*
X4603030D01*
X4604400Y2691230D01*
Y2671600D01*
X4608200Y2667800D01*
X4615900D01*
X4616200Y2668100D01*
G54D15*
G01X4690646Y2698589D02*
Y2700200D01*
X4689446Y2701400D01*
X4680250D01*
X4677190Y2704460D01*
X4648250D01*
X4646723Y2702933D01*
X4641089D01*
X4640933Y2702777D01*
X4640873D01*
G01X4690646Y2698589D02*
Y2695439D01*
G54D16*
G01X4684410Y2660856D02*
X4686300Y2662746D01*
Y2667600D01*
X4685400Y2668500D01*
X4683100D01*
X4681400Y2670200D01*
Y2677200D01*
X4682400Y2678200D01*
Y2680800D01*
X4679700Y2683500D01*
X4678600D01*
X4676211Y2685889D01*
Y2696689D01*
X4678111Y2698589D01*
G01X4684410Y2673454D02*
X4691346D01*
X4695400Y2669400D01*
Y2657900D01*
X4692900Y2655400D01*
X4686100D01*
X4685200Y2656300D01*
X4667000D01*
X4665600Y2657700D01*
X4646780D01*
X4643180Y2661300D01*
X4626490D01*
X4623690Y2664100D01*
Y2673610D01*
X4622100Y2675200D01*
X4610500D01*
X4608200Y2677500D01*
Y2701200D01*
X4607298Y2702102D01*
X4606803D01*
X4606800Y2702100D01*
G01X4615426Y2697815D02*
X4617041Y2696200D01*
X4618100D01*
X4618800Y2695500D01*
Y2689100D01*
X4621500Y2686400D01*
X4623700D01*
X4626300Y2683800D01*
X4632743D01*
X4632748Y2683795D01*
X4633763D01*
X4633768Y2683800D01*
X4640100D01*
X4643400Y2680500D01*
Y2675000D01*
X4649800Y2668600D01*
Y2665800D01*
X4652400Y2663200D01*
X4656800D01*
X4658100Y2661900D01*
X4666100D01*
X4668400Y2659600D01*
X4682200D01*
X4682900Y2660300D01*
Y2661600D01*
X4684410Y2663110D01*
Y2664005D01*
G01X4672100Y2667500D02*
Y2667443D01*
X4670457Y2665800D01*
X4667900D01*
X4664900Y2668800D01*
X4661600D01*
X4660900Y2668100D01*
X4654400D01*
X4650500Y2672000D01*
Y2675700D01*
X4648800Y2677400D01*
Y2677600D01*
G01X4633236Y2700279D02*
X4633256Y2700259D01*
Y2697344D01*
X4636400Y2694200D01*
Y2692700D01*
X4637600Y2691500D01*
X4641500D01*
X4654870Y2678130D01*
Y2672350D01*
X4655220Y2672000D01*
X4657350D01*
X4657700Y2672350D01*
Y2673708D01*
X4658792Y2674800D01*
X4663100D01*
X4664000Y2673900D01*
Y2671817D01*
X4665512Y2670304D01*
G01X4630696Y2700374D02*
Y2697204D01*
X4634600Y2693300D01*
Y2687600D01*
X4636400Y2685800D01*
X4643400D01*
X4651500Y2677700D01*
Y2672600D01*
X4655000Y2669100D01*
X4660400D01*
X4662600Y2671300D01*
Y2673300D01*
G01X4666600Y2681600D02*
X4666700Y2681700D01*
Y2682670D01*
X4666270Y2683100D01*
X4661430D01*
X4661000Y2682670D01*
Y2680100D01*
X4665100Y2676000D01*
Y2673400D01*
X4666800Y2671700D01*
Y2669016D01*
X4668662Y2667155D01*
G01X4600100Y2665900D02*
X4599700Y2666300D01*
G01X4607800Y2703700D02*
Y2703500D01*
X4609200Y2702100D01*
Y2677940D01*
X4611040Y2676100D01*
X4622500D01*
X4624590Y2674010D01*
Y2664320D01*
X4626820Y2662090D01*
X4643550D01*
X4646940Y2658700D01*
X4665800D01*
X4667300Y2657200D01*
X4685600D01*
X4686400Y2656400D01*
X4689600D01*
X4692500Y2659300D01*
Y2669000D01*
X4690000Y2671500D01*
X4684400D01*
G01X4646812Y2677612D02*
X4646900Y2677524D01*
Y2674000D01*
X4651700Y2669200D01*
Y2666800D01*
X4652950Y2665550D01*
X4666350D01*
X4667300Y2664600D01*
Y2663400D01*
X4668200Y2662500D01*
X4669500D01*
X4670500Y2663500D01*
X4675500D01*
X4676400Y2662600D01*
X4678770D01*
X4679600Y2663430D01*
Y2665925D01*
X4678370Y2667155D01*
X4678048D01*
G01X4700096Y2673454D02*
X4699250Y2672608D01*
Y2658350D01*
X4694480Y2653580D01*
X4646715D01*
X4641905Y2658390D01*
X4624995D01*
X4620760Y2662625D01*
Y2667940D01*
X4619200Y2669500D01*
X4609400D01*
X4606100Y2672800D01*
Y2698500D01*
X4605200Y2699400D01*
G01X4668662Y2670304D02*
Y2671238D01*
X4665900Y2674000D01*
Y2676400D01*
X4662400Y2679900D01*
Y2681500D01*
G01X4696946Y2673454D02*
X4698200Y2672200D01*
Y2658785D01*
X4694045Y2654630D01*
X4647150D01*
X4642340Y2659440D01*
X4625430D01*
X4621810Y2663060D01*
Y2668375D01*
X4619635Y2670550D01*
X4609835D01*
X4607200Y2673185D01*
Y2699900D01*
X4606850Y2700250D01*
G01X4635755Y2702785D02*
X4634885D01*
X4633709Y2701609D01*
X4632350D01*
X4632000Y2701259D01*
Y2697200D01*
X4635600Y2693600D01*
Y2689800D01*
X4636500Y2688900D01*
X4642400D01*
X4654100Y2677200D01*
Y2671800D01*
X4655700Y2670200D01*
X4658200D01*
X4659400Y2671400D01*
Y2673300D01*
G01X4617985Y2697815D02*
X4620360Y2695440D01*
Y2690240D01*
X4621850Y2688750D01*
X4622750D01*
X4625200Y2686300D01*
X4634200D01*
X4635700Y2684800D01*
X4642000D01*
X4644800Y2682000D01*
Y2674800D01*
X4650700Y2668900D01*
Y2666300D01*
X4652750Y2664250D01*
X4657150D01*
X4658700Y2662700D01*
X4666600D01*
X4668500Y2660800D01*
X4678900D01*
X4680600Y2662500D01*
X4681500D01*
X4682700Y2663700D01*
Y2665445D01*
X4684410Y2667155D01*
G01X4638314Y2702785D02*
Y2702725D01*
X4637129Y2701540D01*
X4635040D01*
X4634500Y2701000D01*
Y2697200D01*
X4637300Y2694400D01*
X4638500D01*
X4640400Y2692500D01*
X4644500D01*
X4649900Y2687100D01*
Y2684800D01*
X4651485Y2683215D01*
X4651980D01*
X4653235Y2684470D01*
X4653730D01*
X4654225Y2683975D01*
Y2683480D01*
X4652970Y2682225D01*
Y2681730D01*
X4653465Y2681235D01*
X4653960D01*
X4655215Y2682490D01*
X4655710D01*
X4656205Y2681995D01*
Y2681500D01*
X4654950Y2680245D01*
Y2679750D01*
X4656000Y2678700D01*
Y2673700D01*
X4656200Y2673500D01*
G01X4612887Y2705391D02*
Y2704317D01*
X4610300Y2701730D01*
Y2679900D01*
X4613000Y2677200D01*
X4622900D01*
X4625700Y2674400D01*
Y2668570D01*
X4626810Y2667460D01*
X4640220D01*
X4644590Y2663090D01*
X4649250D01*
X4652840Y2659500D01*
X4666000D01*
X4667500Y2658000D01*
X4685800D01*
X4689000Y2661200D01*
Y2667700D01*
X4686500Y2670200D01*
X4683900D01*
X4683100Y2671000D01*
Y2675200D01*
X4684300Y2676400D01*
Y2682950D01*
X4678111Y2689140D01*
G01X4635800Y2700279D02*
X4635921D01*
X4639400Y2696800D01*
Y2694900D01*
X4640900Y2693400D01*
X4645800D01*
X4646600Y2694200D01*
X4665200D01*
X4669400Y2690000D01*
Y2681800D01*
X4670900Y2680300D01*
Y2671200D01*
X4671800Y2670300D01*
G01X4678048Y2664005D02*
X4673253Y2668800D01*
X4670600D01*
X4670100Y2669300D01*
Y2674770D01*
X4669670Y2675200D01*
X4667400D01*
X4666600Y2676000D01*
Y2677400D01*
X4664400Y2679600D01*
Y2681500D01*
G01X4678100Y2686000D02*
X4679000D01*
X4683300Y2681700D01*
Y2677500D01*
X4682400Y2676600D01*
Y2670600D01*
X4683600Y2669400D01*
X4685900D01*
X4687900Y2667400D01*
Y2661600D01*
X4685080Y2658780D01*
X4667920D01*
X4665600Y2661100D01*
X4657700D01*
X4656500Y2662300D01*
X4651920D01*
X4650270Y2663950D01*
X4645000D01*
X4640790Y2668160D01*
X4627360D01*
X4626500Y2669020D01*
Y2675090D01*
X4623290Y2678300D01*
X4613320D01*
X4611300Y2680320D01*
Y2701265D01*
X4615426Y2705391D01*
X4615446D01*
G54D17*
G01X4625683D02*
X4627024Y2704050D01*
X4646310D01*
X4648010Y2705750D01*
X4684577D01*
X4685007Y2705320D01*
Y2703630D01*
X4685437Y2703200D01*
X4686297D01*
X4686726Y2703630D01*
Y2705350D01*
X4687156Y2705780D01*
X4688016D01*
X4688446Y2705350D01*
Y2703630D01*
X4688876Y2703200D01*
X4689736D01*
X4690166Y2703630D01*
Y2705300D01*
X4690596Y2705730D01*
X4691455D01*
X4691885Y2705300D01*
Y2703630D01*
X4692315Y2703200D01*
X4693175D01*
X4693605Y2703630D01*
Y2705270D01*
X4694035Y2705700D01*
X4694895D01*
X4695324Y2705270D01*
Y2703630D01*
X4695754Y2703200D01*
X4696614D01*
X4697044Y2703630D01*
Y2705290D01*
X4697474Y2705720D01*
X4698566D01*
X4698996Y2705290D01*
Y2703830D01*
X4699426Y2703400D01*
X4700286D01*
X4700716Y2703830D01*
Y2705350D01*
X4701146Y2705780D01*
X4704270D01*
X4704700Y2705350D01*
Y2704349D01*
X4704270Y2703919D01*
X4702530D01*
X4702100Y2703489D01*
Y2702630D01*
X4702530Y2702200D01*
X4704270D01*
X4704700Y2701770D01*
Y2687445D01*
X4703245Y2685990D01*
G54D18*
G01X4599700Y2667700D02*
Y2666300D01*
G01D02*
Y2665500D01*
X4599150Y2664950D01*
X4595342D01*
X4591600Y2668692D01*
Y2670500D01*
G01X4712400Y2675900D02*
X4712600Y2675700D01*
G01D02*
Y2662700D01*
X4710693Y2660793D01*
X4703245D01*
M02*
