G04 ================== begin FILE IDENTIFICATION RECORD ==================*
G04 Layout Name:  AS2258_ASM235CM_BGA272_V2_0801.brd*
G04 Film Name:    GND5*
G04 File Format:  Gerber RS274X*
G04 File Origin:  Cadence Allegro -unreleased*
G04 Origin Date:  Tue Aug  3 11:42:56 2021*
G04 *
G04 Layer:  BOARD GEOMETRY/OUTLINE*
G04 Layer:  ETCH/GND5*
G04 Layer:  PIN/GND5*
G04 Layer:  VIA CLASS/GND5*
G04 *
G04 Offset:    (0.000 0.000)*
G04 Mirror:    No*
G04 Mode:      Positive*
G04 Rotation:  0*
G04 FullContactRelief:  No*
G04 UndefLineWidth:     0.000*
G04 ================== end FILE IDENTIFICATION RECORD ====================*
%FSLAX25Y25*MOIN*%
%IR0*IPPOS*OFA0.00000B0.00000*MIA0B0*SFA1.00000B1.00000*%
%ADD10O,.14961X.07087*%
%ADD12C,.014*%
%ADD11C,.03937*%
%ADD13C,.005*%
%ADD14C,.008*%
%ADD15C,.020004*%
G75*
%LPD*%
G75*
G36*
G01X4647916Y2675100D02*
X4646000D01*
X4637100Y2666200D01*
X4632114D01*
X4632086Y2666367D01*
G03X4630114I-986J-167D01*
G01X4630086Y2666200D01*
X4624700D01*
X4620803Y2670097D01*
G02X4620944Y2670754I283J283D01*
G03X4620168Y2672597I-354J935D01*
G02X4619600Y2672960I-169J363D01*
G01Y2681900D01*
X4621980D01*
G03X4623209Y2681091I1170J440D01*
G01X4624450Y2679850D01*
Y2679589D01*
X4627789Y2676250D01*
X4628130D01*
Y2675882D01*
X4627964Y2675853D01*
G03X4628850Y2675569I173J-985D01*
G02X4629135Y2676250I285J281D01*
G01X4634900D01*
G02X4635186Y2675569I0J-400D01*
G03X4636071Y2675853I713J-702D01*
G01X4635906Y2675882D01*
Y2676250D01*
X4636511D01*
X4637661Y2677400D01*
X4637680D01*
X4642150Y2681870D01*
X4661016D01*
X4661386Y2681500D01*
X4661414Y2681333D01*
G03X4662329Y2680502I986J167D01*
G01X4662403Y2680497D01*
X4666400Y2676500D01*
X4667710D01*
X4667757Y2676367D01*
G03X4669643I943J333D01*
G01X4669690Y2676500D01*
X4685686D01*
G03X4687114I714J700D01*
G01X4689776D01*
X4689834Y2676400D01*
G03X4691566I866J500D01*
G01X4691624Y2676500D01*
X4709900D01*
X4710300Y2676100D01*
Y2674808D01*
G02X4709798Y2674421I-400J0D01*
G03Y2672486I-254J-967D01*
G02X4710300Y2672100I102J-387D01*
G01Y2670000D01*
X4709800Y2669500D01*
X4673142D01*
G02X4672758Y2670014I0J400D01*
G03X4670842I-958J286D01*
G02X4670458Y2669500I-383J-114D01*
G01X4670002D01*
G02X4669619Y2670016I0J400D01*
G03X4667704I-958J289D01*
G02X4667321Y2669500I-383J-116D01*
G01X4666853D01*
G02X4666470Y2670016I0J400D01*
G03X4664555I-958J289D01*
G02X4664172Y2669500I-383J-116D01*
G01X4661900D01*
X4659670Y2671730D01*
G02X4659794Y2672381I283J283D01*
G03X4658481Y2673694I-395J919D01*
G02X4657830Y2673570I-368J158D01*
G01X4656300Y2675100D01*
X4649818D01*
X4649763Y2675211D01*
G03X4647971I-896J-444D01*
G01X4647916Y2675100D01*
G37*
G36*
G01X4628671Y2695020D02*
X4628486D01*
X4624394Y2690928D01*
Y2690744D01*
X4624100Y2690450D01*
Y2689500D01*
X4623600Y2689000D01*
X4618800D01*
X4617500Y2690300D01*
Y2693135D01*
X4621362Y2696998D01*
G02X4621946Y2696978I283J-283D01*
G03X4623922Y2698954I1054J922D01*
G02X4623902Y2699538I263J301D01*
G01X4624227Y2699862D01*
G02X4624839Y2699806I283J-283D01*
G03X4626230Y2701197I824J567D01*
G02X4626174Y2701810I227J329D01*
G01X4629242Y2704878D01*
G02X4629854Y2704822I283J-283D01*
G03X4631666Y2705540I822J569D01*
G02X4632061Y2706000I396J60D01*
G01X4632307D01*
Y2705765D01*
X4632295Y2705732D01*
G03X4634225Y2705540I940J-341D01*
G02X4634620Y2706000I396J60D01*
G01X4634886D01*
Y2705765D01*
X4634874Y2705732D01*
G03X4636804Y2705540I940J-341D01*
G02X4637199Y2706000I396J60D01*
G01X4637425D01*
Y2705765D01*
X4637413Y2705732D01*
G03X4639052Y2704675I940J-341D01*
G02X4639608Y2704678I279J-286D01*
G03X4640972Y2704659I692J722D01*
G02X4641530Y2704639I269J-296D01*
G03X4642924Y2704588I723J691D01*
G02X4643440Y2704605I268J-297D01*
G03X4644718Y2704637I620J785D01*
G02X4645242Y2704640I263J-301D01*
G03X4646882Y2705543I650J760D01*
G02X4647278Y2706000I396J57D01*
G01X4705500D01*
X4705510Y2705990D01*
X4714560D01*
X4715460Y2705090D01*
Y2688500D01*
X4711893D01*
X4711593Y2688200D01*
X4711590D01*
X4710590Y2687200D01*
X4709100D01*
X4708400Y2686500D01*
Y2680500D01*
X4707600Y2679700D01*
X4695100D01*
X4692800Y2682000D01*
Y2687873D01*
G02X4693370Y2688235I400J0D01*
G03X4693100Y2689858I426J905D01*
G02X4692538Y2689862I-279J287D01*
G01X4691368Y2691032D01*
G02X4691364Y2691593I283J283D01*
G03X4689950Y2693007I-718J696D01*
G02X4689389Y2693011I-279J287D01*
G01X4687305Y2695095D01*
X4682661D01*
G02X4682261Y2695497I0J400D01*
G03X4680260I-1000J4D01*
G02X4679860Y2695095I-400J-2D01*
G01X4679510D01*
G02X4679110Y2695479I0J400D01*
G03X4677111I-999J-40D01*
G02X4676712Y2695095I-400J16D01*
G01X4672950D01*
G02X4672550Y2695497I0J400D01*
G03X4670949I-800J4D01*
G02X4670549Y2695095I-400J-2D01*
G01X4666912D01*
G02X4666512Y2695497I0J400D01*
G03X4664512I-1000J4D01*
G02X4664112Y2695095I-400J-2D01*
G01X4660613D01*
G02X4660213Y2695497I0J400D01*
G03X4658213I-1000J5D01*
G02X4657813Y2695095I-400J-2D01*
G01X4644414D01*
X4644387Y2695262D01*
G03X4642413I-987J-163D01*
G01X4642386Y2695095D01*
X4641939D01*
X4641932Y2695288D01*
G03X4639933I-1000J-33D01*
G01X4639927Y2695095D01*
X4628746D01*
X4628671Y2695020D01*
G37*
G36*
G01X4602000Y2690600D02*
G02X4602200Y2690800I200J0D01*
G01X4611737D01*
X4611791Y2690683D01*
G03X4613121Y2690193I909J417D01*
G01X4613248Y2690252D01*
X4619100Y2684400D01*
Y2682400D01*
X4619100Y2672960D01*
G03X4619100Y2672942I900J2D01*
G01Y2671100D01*
X4620384Y2669816D01*
X4620390Y2669809D01*
G03X4620449Y2669744I696J571D01*
G01X4624493Y2665700D01*
X4630234D01*
G03X4631966I866J500D01*
G01X4637307D01*
X4646007Y2674400D01*
X4647928D01*
X4647985Y2674294D01*
G03X4649748I882J472D01*
G01X4649805Y2674400D01*
X4654892D01*
G02X4655266Y2673857I0J-400D01*
G03X4656846Y2672736I934J-357D01*
G02X4657387Y2672713I258J-306D01*
G01X4661100Y2669000D01*
X4661693D01*
X4664172Y2669000D01*
G03X4664189Y2669000I-2J900D01*
G01X4666836D01*
G03X4666853Y2669000I19J900D01*
G01X4667321D01*
G03X4667338Y2669000I-2J900D01*
G01X4669985D01*
G03X4670002Y2669000I19J900D01*
G01X4670458D01*
G03X4670475Y2669000I-2J900D01*
G01X4673125D01*
G03X4673142Y2669000I19J900D01*
G01X4710007D01*
X4710800Y2669793D01*
Y2672100D01*
G03X4710800Y2672117I-900J-2D01*
G01Y2674791D01*
G03X4710800Y2674808I-900J19D01*
G01Y2676307D01*
X4710107Y2677000D01*
X4709320D01*
X4709200Y2677120D01*
Y2677800D01*
G03Y2679400I-600J800D01*
G01Y2684591D01*
G02X4709584Y2684991I400J0D01*
G03X4710507Y2686262I-40J999D01*
G01X4710475Y2686375D01*
X4712100Y2688000D01*
X4715510D01*
X4715690Y2687820D01*
Y2684556D01*
G02X4715064Y2684226I-400J0D01*
G03Y2682574I-564J-826D01*
G02X4715690Y2682244I226J-330D01*
G01Y2656110D01*
X4715695Y2656105D01*
Y2655715D01*
X4713420Y2653440D01*
X4642300D01*
G02X4641900Y2653829I0J400D01*
G03X4640054Y2654333I-1000J-29D01*
G02X4639397Y2654305I-338J213D01*
G03X4637759Y2654241I-797J-605D01*
G02X4637130Y2654184I-337J216D01*
G03X4635731Y2654244I-730J-684D01*
G02X4635160Y2654281I-267J297D01*
G03X4633709Y2654354I-760J-650D01*
G02X4633167Y2654346I-276J289D01*
G03X4631857Y2654366I-667J-746D01*
G02X4631343I-257J306D01*
G03X4630015Y2654328I-643J-766D01*
G02X4629500Y2654300I-274J291D01*
G03X4627907Y2653617I-600J-800D01*
G01X4627886Y2653440D01*
X4616522D01*
G02X4616145Y2653971I0J400D01*
G03X4614354Y2654833I-945J329D01*
G02X4613697Y2654805I-338J213D01*
G03X4612186Y2654900I-797J-605D01*
G01X4612185Y2654899D01*
X4612043Y2654757D01*
X4601087Y2665713D01*
X4601096Y2665807D01*
G03X4600692Y2666706I-996J93D01*
G02X4600578Y2667220I237J322D01*
G03X4600006Y2668652I-878J480D01*
G02X4599847Y2669317I122J381D01*
G03X4595616Y2671994I-1808J1825D01*
G02X4594956Y2671844I-377J133D01*
G01X4588500Y2678300D01*
Y2682103D01*
G02X4588929Y2682502I400J0D01*
G03X4589990Y2683356I71J998D01*
G02X4590532Y2683670I396J-58D01*
G03X4589910Y2684744I367J930D01*
G02X4589368Y2684430I-396J58D01*
G03X4588929Y2684498I-367J-930D01*
G02X4588500Y2684897I-29J399D01*
G01Y2685420D01*
G02X4588911Y2685820I400J0D01*
G03Y2687820I29J1000D01*
G02X4588500Y2688220I-11J400D01*
G01Y2690000D01*
X4589300Y2690800D01*
X4595502D01*
G02X4595844Y2690192I0J-400D01*
G03X4600591Y2689154I2195J-1334D01*
G02X4600991Y2689600I397J46D01*
G03X4602000Y2690600I9J1000D01*
G37*
G36*
G01X4626800Y2684200D02*
X4625950Y2685050D01*
Y2685611D01*
X4624894Y2686666D01*
Y2690721D01*
X4628693Y2694520D01*
X4640255D01*
G03X4641610I678J736D01*
G01X4642585D01*
G03X4644215I815J580D01*
G01X4659021D01*
X4659039Y2694517D01*
G03X4659388I174J985D01*
G01X4659405Y2694520D01*
X4662280D01*
X4663900Y2692900D01*
Y2688700D01*
X4662536Y2687337D01*
X4662498Y2687321D01*
G03X4662482Y2687315I364J-932D01*
G01X4662446Y2687300D01*
X4649063D01*
X4649009Y2687417D01*
G03X4647191I-909J-417D01*
G01X4647137Y2687300D01*
X4642327D01*
G02X4641929Y2687665I0J400D01*
G03X4639937Y2687680I-996J-87D01*
G01X4639919Y2687500D01*
X4639379D01*
X4639373Y2687694D01*
G03X4637374I-1000J-31D01*
G01X4637368Y2687500D01*
X4637100D01*
X4633800Y2684200D01*
X4626800D01*
G37*
G36*
G01X4615461Y2695600D02*
X4618291D01*
G02X4618574Y2694917I0J-400D01*
G01X4617000Y2693342D01*
Y2690093D01*
X4618593Y2688500D01*
X4623807D01*
X4624053Y2688746D01*
G02X4624394Y2688604I141J-141D01*
G01Y2688132D01*
G02X4623712Y2687850I-400J0D01*
G01X4623711Y2687850D01*
X4618331D01*
X4615050Y2691131D01*
Y2695189D01*
X4615461Y2695600D01*
G37*
G36*
G01X4622173Y2697546D02*
X4622135Y2697634D01*
X4621580Y2698189D01*
X4621564Y2698227D01*
G03X4619445Y2697852I-1020J-413D01*
G01X4619442Y2697773D01*
X4619186Y2697516D01*
X4618985Y2697718D01*
X4618986Y2697802D01*
G03X4617011Y2697590I-1000J13D01*
G02X4616621Y2697100I-390J-90D01*
G01X4616311D01*
Y2697345D01*
X4616330Y2697386D01*
G03X4614657Y2697175I-904J429D01*
G01X4614774Y2697035D01*
X4613550Y2695811D01*
Y2691623D01*
G02X4612914Y2691300I-400J0D01*
G01X4601714D01*
G03X4600286I-714J-700D01*
G01X4598836D01*
X4598807Y2691309D01*
G03X4597271I-768J-2451D01*
G01X4597242Y2691300D01*
X4589093D01*
X4588891Y2691098D01*
G02X4588208Y2691381I-283J283D01*
G01Y2698182D01*
G02X4588747Y2698557I400J0D01*
G03Y2700433I348J938D01*
G02X4588208Y2700808I-139J375D01*
G01Y2706100D01*
X4611522D01*
G02X4611912Y2705612I0J-400D01*
G03X4613863I976J-220D01*
G02X4614253Y2706100I390J88D01*
G01X4614559D01*
Y2705856D01*
X4614540Y2705815D01*
G03X4616422Y2705612I906J-424D01*
G02X4616812Y2706100I390J88D01*
G01X4619199D01*
G02X4619589Y2705612I0J-400D01*
G03X4621540I976J-220D01*
G02X4621930Y2706100I390J88D01*
G01X4622236D01*
Y2705856D01*
X4622218Y2705815D01*
G03X4624099Y2705612I906J-424D01*
G02X4624489Y2706100I390J88D01*
G01X4624796D01*
Y2705856D01*
X4624777Y2705815D01*
G03X4626658Y2705612I906J-424D01*
G02X4627048Y2706100I390J88D01*
G01X4628792D01*
G02X4629074Y2705417I0J-400D01*
G01X4627069Y2703412D01*
G02X4626471Y2703448I-283J283D01*
G03X4625067Y2702044I-788J-616D01*
G02X4625104Y2701446I-246J-315D01*
G01X4622844Y2699187D01*
X4623266Y2698765D01*
X4623354Y2698727D01*
G02X4622173Y2697546I-354J-827D01*
G37*
G36*
G01X4588208Y2653382D02*
Y2676919D01*
G02X4588891Y2677202I400J0D01*
G01X4595538Y2670555D01*
X4595551Y2670502D01*
G03X4597399Y2668654I2488J640D01*
G01X4597452Y2668641D01*
X4597950Y2668143D01*
G02X4597762Y2667472I-283J-283D01*
G03X4598578Y2665684I238J-971D01*
G02X4599178Y2665512I231J-326D01*
G03X4599603Y2665032I922J388D01*
G02X4599689Y2664403I-199J-347D01*
G03X4600652Y2664668I711J-703D01*
G02X4600602Y2665035I50J194D01*
G03X4600724Y2665118I-501J865D01*
G01X4600863Y2665229D01*
X4612028Y2654065D01*
G02X4611745Y2653382I-283J-283D01*
G01X4588208D01*
G37*
G36*
G01X4666607Y2677000D02*
X4662961Y2680646D01*
X4663103Y2680788D01*
X4663103Y2680789D01*
G03X4663114Y2680800I-705J710D01*
G02X4663686I286J-280D01*
G03X4665214Y2680919I714J700D01*
G02X4665842Y2680947I325J-233D01*
G03X4665872Y2680915I758J652D01*
G02X4665900Y2680400I-291J-274D01*
G03X4667377Y2679064I800J-600D01*
G02X4667627Y2679080I135J-147D01*
G03X4668031Y2680886I573J820D01*
G02X4667574Y2681371I-68J394D01*
G03X4667395Y2682207I-974J229D01*
G02X4667713Y2682850I318J243D01*
G01X4682268D01*
X4684306Y2684888D01*
X4684385Y2684891D01*
G03X4685097Y2686795I-37J1100D01*
G01Y2688335D01*
G03X4683597I-750J805D01*
G01Y2686795D01*
G03X4683248Y2686028I750J-805D01*
G01X4683245Y2685949D01*
X4681646Y2684350D01*
X4661589D01*
X4660689Y2683450D01*
X4641589D01*
X4635889Y2677750D01*
X4628681D01*
X4625950Y2680481D01*
Y2683377D01*
G02X4626586Y2683700I400J0D01*
G01X4627051D01*
G02X4627379Y2683071I0J-400D01*
G03X4629021I821J-571D01*
G02X4629349Y2683700I328J229D01*
G01X4629551D01*
G02X4629879Y2683071I0J-400D01*
G03X4631521I821J-571D01*
G02X4631849Y2683700I328J229D01*
G01X4632135D01*
G02X4632455Y2683060I0J-400D01*
G03X4633221Y2681461I801J-600D01*
G02X4633605Y2681101I-14J-400D01*
G03X4634543Y2680202I995J99D01*
G02X4634918Y2679836I-23J-399D01*
G03X4635972Y2680920I997J85D01*
G02X4635597Y2681285I23J399D01*
G03X4634635Y2682200I-997J-85D01*
G02X4634251Y2682560I14J400D01*
G03X4633756Y2683327I-995J-99D01*
G01X4633656Y2683384D01*
Y2683700D01*
X4634007D01*
X4637307Y2687000D01*
X4637620D01*
X4637678Y2686944D01*
G03X4639123Y2687000I695J719D01*
G01X4641293D01*
X4641493Y2686800D01*
X4647110D01*
X4647157Y2686666D01*
G03X4649043I943J333D01*
G01X4649090Y2686800D01*
X4651575D01*
G02X4651958Y2686283I0J-400D01*
G03X4653871I956J-293D01*
G02X4654253Y2686800I383J117D01*
G01X4654725D01*
G02X4655107Y2686283I0J-400D01*
G03X4657020I956J-293D01*
G02X4657403Y2686800I383J117D01*
G01X4657958D01*
G02X4658341Y2686286I0J-400D01*
G03X4660259I959J-286D01*
G02X4660642Y2686800I383J114D01*
G01X4661463D01*
G02X4661863Y2686397I0J-400D01*
G03X4663570Y2687097I1000J-7D01*
G02X4663570Y2687663I283J283D01*
G01X4664317Y2688410D01*
G02X4664857Y2688434I283J-283D01*
G03X4665000Y2690066I643J766D01*
G02X4664400Y2690413I-200J346D01*
G01Y2693107D01*
X4663595Y2693912D01*
G02X4663878Y2694595I283J283D01*
G01X4677572D01*
X4677618Y2694569D01*
G03X4678604I493J870D01*
G01X4678650Y2694595D01*
X4687098D01*
X4689686Y2692007D01*
X4689701Y2691963D01*
G03X4690320Y2691344I945J326D01*
G01X4690364Y2691329D01*
X4690871Y2690822D01*
G02X4690605Y2690139I-283J-283D01*
G03X4691529Y2689610I42J-999D01*
G01X4691460Y2689741D01*
X4691706Y2689987D01*
X4692300Y2689393D01*
Y2681793D01*
X4694893Y2679200D01*
X4707214D01*
G02X4707610Y2678743I0J-400D01*
G03X4708516Y2677603I990J-143D01*
G02X4708700Y2677404I-17J-199D01*
G01Y2677000D01*
X4691707D01*
X4691668Y2677150D01*
G03X4691436Y2677577I-968J-250D01*
G02X4691420Y2677827I147J135D01*
G03X4689864Y2677723I-820J573D01*
G02X4689880Y2677473I-147J-135D01*
G03X4689732Y2677150I820J-573D01*
G01X4689693Y2677000D01*
X4687400D01*
Y2677200D01*
G03X4685400I-1000J0D01*
G01Y2677000D01*
X4669663D01*
X4669609Y2677117D01*
G03X4667791I-909J-417D01*
G01X4667737Y2677000D01*
X4666607D01*
G37*
G36*
G01X4619600Y2682400D02*
Y2684607D01*
X4618540Y2685667D01*
G02X4618823Y2686350I283J283D01*
G01X4623089D01*
X4624450Y2684989D01*
Y2683413D01*
G02X4623793Y2683106I-400J0D01*
G03X4622174Y2682557I-643J-766D01*
G01X4622139Y2682400D01*
X4619600D01*
G37*
%LPC*%
G75*
G36*
G01X4637406Y2671756D02*
G02X4636707Y2670922I294J-956D01*
G03X4636193Y2671353I-397J49D01*
G02X4636891Y2672187I-294J956D01*
G03X4637406Y2671756I397J-49D01*
G37*
G36*
G01X4685123Y2672752D02*
G03X4685120Y2672194I285J-280D01*
G02X4683687Y2672202I-720J-694D01*
G03X4683690Y2672760I-285J280D01*
G02X4685123Y2672752I720J694D01*
G37*
G36*
G01X4647526Y2678312D02*
G03X4648094Y2678309I286J280D01*
G02X4648086Y2676900I706J-709D01*
G03X4647518Y2676903I-286J-280D01*
G02X4647526Y2678312I-706J709D01*
G37*
G36*
G01X4682072Y2702522D02*
G03X4681533Y2702489I-251J-311D01*
G02X4681443Y2703963I-718J696D01*
G03X4681982Y2703996I251J311D01*
G02X4682072Y2702522I718J-696D01*
G37*
G36*
G01X4616946Y2667433D02*
G03Y2667167I149J-133D01*
G02X4615454I-746J-667D01*
G03Y2667433I-149J133D01*
G02X4616946I746J667D01*
G37*
G36*
G01X4630582Y2662844D02*
G03X4630068Y2662759I-207J-342D01*
G02X4629818Y2664256I-768J641D01*
G03X4630332Y2664341I207J342D01*
G02X4630582Y2662844I768J-641D01*
G37*
G36*
G01X4657725Y2655232D02*
G03X4657205Y2655180I-230J-327D01*
G02X4657056Y2656688I-725J690D01*
G03X4657575Y2656740I230J327D01*
G02X4657725Y2655232I725J-690D01*
G37*
G36*
G01X4646879Y2664865D02*
G02Y2666335I-679J735D01*
G03X4647421I271J294D01*
G02X4647441Y2666353I679J-735D01*
G03X4647325Y2666703I-132J150D01*
G02X4648231Y2667144I75J997D01*
G03X4648431Y2666544I332J-222D01*
G02X4647421Y2664865I-331J-944D01*
G03X4646879I-271J-294D01*
G37*
G36*
G01X4629692Y2690789D02*
G02X4629681Y2689626I808J-589D01*
G03X4629030Y2689632I-328J-229D01*
G02X4629041Y2690796I-808J589D01*
G03X4629692Y2690789I328J229D01*
G37*
G36*
G01X4606604Y2699281D02*
G03X4606132Y2699038I-99J-388D01*
G02X4605446Y2700369I-932J362D01*
G03X4605918Y2700612I99J388D01*
G02X4606082Y2700890I932J-362D01*
G03X4606068Y2701419I-307J256D01*
G02X4606530Y2703063I733J681D01*
G03X4606816Y2703520I-108J385D01*
G02X4608070Y2702737I984J180D01*
G03X4607784Y2702280I108J-385D01*
G02X4607568Y2701460I-984J-180D01*
G03X4607582Y2700931I307J-256D01*
G02X4606604Y2699281I-733J-681D01*
G37*
G54D15*
X4703245Y2673454D03*
X4693796D03*
X4706395D03*
X4696946D03*
X4700096D03*
X4668600D03*
X4662300Y2676600D03*
X4641016Y2672309D03*
X4631900Y2671200D03*
X4630200Y2669400D03*
X4627800Y2672200D03*
X4662600Y2673300D03*
X4638384Y2700295D03*
X4678426Y2701230D03*
X4674000Y2701130D03*
X4633236Y2700279D03*
X4649370Y2702960D03*
X4640873Y2702777D03*
X4638314Y2702785D03*
X4635755D03*
X4633236Y2702825D03*
X4630676D03*
X4635800Y2700279D03*
X4635815Y2697815D03*
X4630696Y2700374D03*
X4678111Y2698589D03*
X4696946Y2695439D03*
Y2689140D03*
X4693796Y2692289D03*
X4690646Y2695439D03*
Y2698589D03*
X4659213Y2698651D03*
X4674961Y2698651D03*
X4696946Y2698589D03*
X4693796Y2701738D03*
X4625578Y2695256D03*
X4706395Y2685990D03*
X4703245D03*
X4700096D03*
X4706395Y2698651D03*
X4709544Y2695501D03*
X4706395Y2695439D03*
X4709544Y2692289D03*
X4703245Y2698589D03*
X4700096Y2695439D03*
Y2698589D03*
X4706395Y2692289D03*
X4703245Y2695439D03*
X4700096Y2692289D03*
X4703245D03*
X4615280Y2671900D03*
X4662363Y2664005D03*
X4659213D03*
X4665512D03*
X4684410Y2660856D03*
X4696946Y2667155D03*
X4684410Y2664005D03*
X4672100Y2667500D03*
X4668662Y2667155D03*
X4668599Y2663942D03*
X4620800Y2655883D03*
X4678048Y2667155D03*
X4671800Y2662100D03*
Y2664800D03*
X4684410Y2667155D03*
X4693796Y2660793D03*
X4598700Y2682000D03*
X4678048Y2664005D03*
X4647500Y2660800D03*
X4653000Y2667300D03*
X4696946Y2664005D03*
X4693796D03*
X4690646Y2667155D03*
Y2664005D03*
X4681198D03*
Y2660856D03*
X4599000Y2675600D03*
X4595100Y2674100D03*
X4595000Y2685900D03*
X4615300Y2682300D03*
X4597000Y2683700D03*
X4709544Y2663942D03*
X4706395Y2664005D03*
X4703245D03*
Y2667155D03*
X4706395D03*
X4709544D03*
X4638374Y2692780D03*
Y2690222D03*
X4655000Y2690100D03*
X4659200Y2692700D03*
X4649700Y2689200D03*
X4630696Y2687578D03*
X4628137D03*
X4623124Y2702833D03*
X4620564D03*
X4618005D03*
X4615426Y2700374D03*
X4620500Y2700400D03*
X4617985Y2700374D03*
X4593900Y2695000D03*
X4598100Y2696200D03*
X4601300Y2694900D03*
X4591600Y2670500D03*
X4678111Y2692289D03*
X4666012Y2686390D03*
X4687497Y2685990D03*
X4690646D03*
X4678111Y2689140D03*
X4678100Y2686000D03*
%LPD*%
G75*
G54D10*
X4598039Y2656969D03*
Y2703031D03*
G54D11*
Y2688858D03*
Y2671142D03*
G54D12*
X4709600Y2670300D03*
X4706400D03*
X4620500Y2679900D03*
X4623100D03*
X4709544Y2689140D03*
X4700096Y2701738D03*
X4696946D03*
Y2685990D03*
X4712694Y2689140D03*
X4704400Y2682100D03*
Y2680500D03*
X4705900D03*
Y2682100D03*
X4712694Y2692352D03*
X4623020Y2695256D03*
Y2692696D03*
Y2690137D03*
X4628222Y2697815D03*
X4625663D03*
X4668662Y2698651D03*
X4653000Y2695700D03*
X4652800Y2673500D03*
X4589100Y2689600D03*
X4713800Y2687200D03*
X4615200Y2673900D03*
X4618300Y2683100D03*
X4712694Y2685990D03*
X4703245Y2660793D03*
X4687497Y2657706D03*
X4665700Y2655820D03*
X4662200D03*
X4664100D03*
X4656001Y2660856D03*
X4600814Y2673914D03*
X4600300Y2686500D03*
X4684347Y2685990D03*
Y2689140D03*
X4620544Y2697815D03*
X4633256Y2685020D03*
X4625578Y2690137D03*
X4633256Y2692780D03*
X4630696D03*
X4628137D03*
X4633339Y2690222D03*
Y2687663D03*
X4662300Y2692300D03*
Y2689200D03*
X4628150Y2705500D03*
X4589100Y2664100D03*
X4623300Y2684900D03*
X4606300Y2705300D03*
X4592900Y2664300D03*
X4595200Y2662000D03*
X4605900Y2657900D03*
X4606300Y2654200D03*
X4635815Y2682544D03*
X4681261Y2692352D03*
X4623000Y2697900D03*
X4680600Y2679700D03*
X4678200Y2678200D03*
X4676400Y2678300D03*
X4679000Y2679700D03*
X4677300D03*
X4675400D03*
X4671811Y2692289D03*
Y2689140D03*
Y2685990D03*
X4617000Y2694700D03*
X4589200Y2705200D03*
X4589000Y2702000D03*
X4589180Y2669600D03*
X4589100Y2654300D03*
X4589300Y2657900D03*
X4590800Y2667300D03*
X4610309Y2705291D03*
X4601400Y2698600D03*
X4612867Y2700374D03*
X4618005Y2705391D03*
X4615446Y2702825D03*
X4591500Y2694900D03*
X4589095Y2694505D03*
G54D13*
G01X4685300Y2679100D02*
X4684700Y2679700D01*
X4680600D01*
G01X4622200Y2700000D02*
Y2698700D01*
X4623000Y2697900D01*
G54D14*
G01X4684347Y2685990D02*
Y2689140D01*
G01X4620544Y2697815D02*
X4619080Y2696350D01*
X4615150D01*
X4614300Y2695500D01*
Y2690820D01*
X4618020Y2687100D01*
X4623400D01*
X4625200Y2685300D01*
Y2680170D01*
X4628370Y2677000D01*
X4636200D01*
X4641900Y2682700D01*
X4661000D01*
X4661900Y2683600D01*
X4681957D01*
X4684347Y2685990D01*
M02*
