G04 ================== begin FILE IDENTIFICATION RECORD ==================*
G04 Layout Name:  AS2258_ASM235CM_BGA272_V2_0801.brd*
G04 Film Name:    PAST_BOT*
G04 File Format:  Gerber RS274X*
G04 File Origin:  Cadence Allegro -unreleased*
G04 Origin Date:  Tue Aug  3 11:42:56 2021*
G04 *
G04 Layer:  PIN/PASTEMASK_BOTTOM*
G04 Layer:  PACKAGE GEOMETRY/PASTEMASK_BOTTOM*
G04 Layer:  BOARD GEOMETRY/OUTLINE*
G04 *
G04 Offset:    (0.000 0.000)*
G04 Mirror:    No*
G04 Mode:      Positive*
G04 Rotation:  0*
G04 FullContactRelief:  No*
G04 UndefLineWidth:     0.100*
G04 ================== end FILE IDENTIFICATION RECORD ====================*
%FSLAX25Y25*MOIN*%
%IR0*IPPOS*OFA0.00000B0.00000*MIA0B0*SFA1.00000B1.00000*%
%ADD13R,.01378X.009843*%
%ADD14R,.009843X.01378*%
%ADD11R,.015748X.009843*%
%ADD12R,.009843X.015748*%
%ADD17C,.013*%
%ADD10R,.019X.019*%
%ADD18C,.021654*%
%ADD15C,.039402*%
%ADD16R,.031496X.035433*%
%ADD20R,.03937X.033465*%
%ADD19C,.018898*%
%ADD21C,.0001*%
G75*
%LPD*%
G75*
G54D10*
X4602200Y2667900D03*
X4606200D03*
G54D20*
X4641552Y2665313D03*
X4634662D03*
X4641552Y2660194D03*
X4634662D03*
G54D11*
X4619400Y2660086D03*
Y2658314D03*
X4599900Y2697986D03*
Y2696214D03*
X4620300Y2665514D03*
Y2667286D03*
X4623000Y2665514D03*
Y2667286D03*
X4626000Y2665514D03*
Y2667286D03*
X4613300Y2668786D03*
Y2667014D03*
X4629000Y2665514D03*
Y2667286D03*
X4643964Y2656679D03*
Y2654907D03*
X4589095Y2697895D03*
Y2696123D03*
X4602900Y2696214D03*
Y2697986D03*
X4604700Y2681386D03*
Y2679614D03*
G54D21*
G01X4587008Y2652182D02*
X4716930D01*
Y2707300D01*
X4587008D01*
Y2652182D01*
G54D12*
X4641374Y2668690D03*
X4643146D03*
X4634146D03*
X4632374D03*
X4604214Y2663700D03*
X4605986D03*
G54D13*
X4592127Y2696083D03*
Y2697855D03*
X4605500Y2689186D03*
Y2687414D03*
X4602600D03*
Y2689186D03*
X4601700Y2681386D03*
Y2679614D03*
G54D14*
X4595086Y2683700D03*
X4593314D03*
X4599714Y2684200D03*
X4601486D03*
X4590414Y2689600D03*
X4592186D03*
X4590514Y2692600D03*
X4592286D03*
X4592186Y2686700D03*
X4590414D03*
X4596686Y2675600D03*
X4594914D03*
X4600814Y2675500D03*
X4602586D03*
X4638646Y2668690D03*
X4636874D03*
X4595114Y2697900D03*
X4596886D03*
Y2695000D03*
X4595114D03*
G54D15*
X4590400Y2680500D03*
X4590300Y2674700D03*
G54D16*
X4610135Y2662456D03*
Y2656944D03*
X4614465Y2662456D03*
Y2656944D03*
G54D17*
X4642254Y2673546D03*
Y2676105D03*
Y2678664D03*
Y2681223D03*
Y2683782D03*
Y2686341D03*
Y2688900D03*
Y2691459D03*
Y2694018D03*
Y2696577D03*
Y2699136D03*
Y2701695D03*
Y2704254D03*
X4639695Y2673546D03*
Y2676105D03*
Y2678664D03*
Y2681223D03*
Y2683782D03*
Y2686341D03*
Y2688900D03*
Y2691459D03*
Y2694018D03*
Y2696577D03*
Y2699136D03*
Y2701695D03*
Y2704254D03*
X4637136Y2673546D03*
Y2676105D03*
Y2678664D03*
Y2681223D03*
Y2683782D03*
Y2686341D03*
Y2688900D03*
Y2691459D03*
Y2694018D03*
Y2696577D03*
Y2699136D03*
Y2701695D03*
Y2704254D03*
X4634577Y2673546D03*
Y2676105D03*
Y2678664D03*
Y2683782D03*
Y2686341D03*
Y2688900D03*
Y2691459D03*
Y2694018D03*
Y2696577D03*
Y2699136D03*
Y2701695D03*
Y2704254D03*
X4632018Y2673546D03*
Y2676105D03*
Y2678664D03*
Y2681223D03*
Y2683782D03*
Y2686341D03*
Y2688900D03*
Y2691459D03*
Y2694018D03*
Y2696577D03*
Y2699136D03*
Y2701695D03*
Y2704254D03*
X4629459Y2673546D03*
Y2676105D03*
Y2678664D03*
Y2681223D03*
Y2683782D03*
Y2686341D03*
Y2688900D03*
Y2691459D03*
Y2694018D03*
Y2696577D03*
Y2699136D03*
Y2701695D03*
Y2704254D03*
X4626900Y2673546D03*
Y2676105D03*
Y2678664D03*
Y2681223D03*
Y2683782D03*
Y2686341D03*
Y2688900D03*
Y2691459D03*
Y2694018D03*
Y2696577D03*
Y2699136D03*
Y2701695D03*
Y2704254D03*
X4624341Y2673546D03*
Y2676105D03*
Y2678664D03*
Y2681223D03*
Y2683782D03*
Y2686341D03*
Y2688900D03*
Y2691459D03*
Y2694018D03*
Y2696577D03*
Y2699136D03*
Y2701695D03*
Y2704254D03*
X4621782Y2673546D03*
Y2676105D03*
Y2678664D03*
Y2681223D03*
Y2683782D03*
Y2686341D03*
Y2688900D03*
Y2691459D03*
Y2694018D03*
Y2696577D03*
Y2699136D03*
Y2701695D03*
Y2704254D03*
X4619223Y2673546D03*
Y2676105D03*
Y2678664D03*
Y2681223D03*
Y2683782D03*
Y2686341D03*
Y2688900D03*
Y2691459D03*
Y2694018D03*
Y2696577D03*
Y2699136D03*
Y2701695D03*
Y2704254D03*
X4616664Y2673546D03*
Y2676105D03*
Y2678664D03*
Y2681223D03*
Y2683782D03*
Y2688900D03*
Y2696577D03*
Y2699136D03*
Y2701695D03*
Y2704254D03*
X4614105Y2678664D03*
Y2683782D03*
Y2686341D03*
Y2696577D03*
Y2699136D03*
Y2701695D03*
Y2704254D03*
X4611546Y2673546D03*
Y2678664D03*
Y2688900D03*
Y2696577D03*
Y2699136D03*
Y2701695D03*
Y2704254D03*
G54D18*
X4651308Y2693895D03*
Y2690746D03*
Y2687596D03*
Y2684446D03*
Y2674998D03*
Y2671848D03*
Y2668698D03*
Y2665549D03*
X4654457Y2697045D03*
Y2693895D03*
Y2690746D03*
Y2687596D03*
Y2684446D03*
Y2674998D03*
Y2671848D03*
Y2668698D03*
Y2665549D03*
Y2662399D03*
X4657607Y2700194D03*
Y2697045D03*
Y2693895D03*
Y2690746D03*
Y2687596D03*
Y2684446D03*
Y2674998D03*
Y2671848D03*
Y2668698D03*
Y2665549D03*
Y2662399D03*
Y2659250D03*
X4660757Y2700194D03*
Y2697045D03*
Y2693895D03*
Y2690746D03*
Y2687596D03*
Y2684446D03*
Y2674998D03*
Y2671848D03*
Y2668698D03*
Y2665549D03*
Y2662399D03*
Y2659250D03*
X4663906Y2700194D03*
Y2697045D03*
Y2693895D03*
Y2690746D03*
Y2687596D03*
Y2684446D03*
Y2674998D03*
Y2671848D03*
Y2668698D03*
Y2665549D03*
Y2662399D03*
Y2659250D03*
X4667056Y2700194D03*
Y2697045D03*
Y2693895D03*
Y2690746D03*
Y2687596D03*
Y2684446D03*
Y2674998D03*
Y2671848D03*
Y2668698D03*
Y2665549D03*
Y2662399D03*
Y2659250D03*
X4670206Y2700194D03*
Y2697045D03*
Y2693895D03*
Y2684446D03*
Y2674998D03*
Y2668698D03*
Y2665549D03*
Y2662399D03*
Y2659250D03*
X4673355Y2693895D03*
Y2690746D03*
Y2687596D03*
Y2684446D03*
Y2668698D03*
Y2665549D03*
Y2662399D03*
X4676505Y2700194D03*
Y2697045D03*
Y2693895D03*
Y2690746D03*
Y2687596D03*
Y2684446D03*
Y2671848D03*
Y2668698D03*
Y2665549D03*
X4679654Y2697045D03*
Y2693895D03*
Y2690746D03*
Y2687596D03*
Y2684446D03*
Y2671848D03*
Y2668698D03*
Y2665549D03*
Y2662399D03*
Y2659250D03*
X4682804Y2700194D03*
Y2697045D03*
Y2693895D03*
Y2690746D03*
Y2687596D03*
Y2684446D03*
Y2674998D03*
Y2671848D03*
Y2668698D03*
Y2665549D03*
Y2662399D03*
X4685954Y2687596D03*
Y2684446D03*
Y2674998D03*
Y2671848D03*
Y2668698D03*
Y2665549D03*
Y2662399D03*
Y2659250D03*
X4689103Y2697045D03*
Y2693895D03*
Y2690746D03*
Y2687596D03*
Y2684446D03*
Y2674998D03*
Y2671848D03*
Y2668698D03*
Y2665549D03*
X4692253Y2700194D03*
Y2697045D03*
Y2693895D03*
Y2690746D03*
Y2687596D03*
Y2684446D03*
Y2674998D03*
Y2665549D03*
Y2662399D03*
Y2659250D03*
X4695402Y2700194D03*
Y2697045D03*
Y2693895D03*
Y2690746D03*
Y2687596D03*
Y2684446D03*
Y2674998D03*
Y2671848D03*
Y2668698D03*
Y2665549D03*
Y2662399D03*
Y2659250D03*
X4698552Y2700194D03*
Y2697045D03*
Y2693895D03*
Y2690746D03*
Y2687596D03*
Y2684446D03*
Y2674998D03*
Y2671848D03*
Y2668698D03*
Y2665549D03*
Y2662399D03*
Y2659250D03*
X4701702Y2700194D03*
Y2697045D03*
Y2693895D03*
Y2690746D03*
Y2687596D03*
Y2684446D03*
Y2674998D03*
Y2671848D03*
Y2668698D03*
Y2665549D03*
Y2662399D03*
Y2659250D03*
X4704851Y2700194D03*
Y2697045D03*
Y2693895D03*
Y2690746D03*
Y2687596D03*
Y2684446D03*
Y2674998D03*
Y2671848D03*
Y2668698D03*
Y2665549D03*
Y2662399D03*
Y2659250D03*
X4708001Y2697045D03*
Y2693895D03*
Y2690746D03*
Y2687596D03*
Y2684446D03*
Y2674998D03*
Y2671848D03*
Y2668698D03*
Y2665549D03*
Y2662399D03*
X4711150Y2693895D03*
Y2690746D03*
Y2687596D03*
Y2684446D03*
Y2674998D03*
Y2671848D03*
Y2668698D03*
Y2665549D03*
G54D19*
X4670206Y2671848D03*
X4673355Y2674998D03*
Y2671848D03*
X4676505Y2674998D03*
X4679654D03*
X4685954Y2693895D03*
Y2690746D03*
M02*
