G04 ================== begin FILE IDENTIFICATION RECORD ==================*
G04 Layout Name:  AS2258_ASM235CM_BGA272_V2_0801.brd*
G04 Film Name:    SOLD_TOP*
G04 File Format:  Gerber RS274X*
G04 File Origin:  Cadence Allegro -unreleased*
G04 Origin Date:  Tue Aug  3 11:42:56 2021*
G04 *
G04 Layer:  PIN/SOLDERMASK_TOP*
G04 Layer:  PACKAGE GEOMETRY/SOLDERMASK_TOP*
G04 Layer:  BOARD GEOMETRY/SOLDERMASK_TOP*
G04 Layer:  BOARD GEOMETRY/OUTLINE*
G04 *
G04 Offset:    (0.000 0.000)*
G04 Mirror:    No*
G04 Mode:      Positive*
G04 Rotation:  0*
G04 FullContactRelief:  No*
G04 UndefLineWidth:     0.100*
G04 ================== end FILE IDENTIFICATION RECORD ====================*
%FSLAX25Y25*MOIN*%
%IR0*IPPOS*OFA0.00000B0.00000*MIA0B0*SFA1.00000B1.00000*%
%ADD17R,.037988X.082988*%
%ADD23O,.15354X.0748*%
%ADD19R,.012X.022*%
%ADD18R,.056X.014*%
%ADD12R,.024X.028*%
%ADD11R,.023X.023*%
%ADD16R,.035402X.039402*%
%ADD24R,.09449X.0315*%
%ADD15R,.017717X.01378*%
%ADD25R,.165354X.165354*%
%ADD10R,.01378X.017717*%
%ADD22R,.07487X.07487*%
%ADD14R,.019685X.01378*%
%ADD13R,.01378X.019685*%
%ADD21R,.012799X.031559*%
%ADD20R,.031559X.012799*%
%ADD26C,.0001*%
G75*
%LPD*%
G75*
G54D10*
X4705471Y2676958D03*
X4707242D03*
X4648214Y2654900D03*
X4649986D03*
X4689386Y2676200D03*
X4687614D03*
X4675786Y2689700D03*
X4674014D03*
X4675886Y2686800D03*
X4674114D03*
X4679914Y2686300D03*
X4681686D03*
X4692814Y2687100D03*
X4694586D03*
X4623886Y2700500D03*
X4622114D03*
X4618886Y2654000D03*
X4617114D03*
X4699512Y2698763D03*
X4697740D03*
X4699552Y2695932D03*
X4697780D03*
X4655414Y2657600D03*
X4657186D03*
X4651814Y2691600D03*
X4653586D03*
X4620914Y2698000D03*
X4622686D03*
X4704586Y2669600D03*
X4702814D03*
G54D20*
X4683806Y2680050D03*
Y2678475D03*
Y2676900D03*
Y2675325D03*
X4671994Y2673750D03*
Y2675325D03*
Y2676900D03*
Y2678475D03*
Y2680050D03*
X4623583Y2661788D03*
Y2663363D03*
Y2669662D03*
Y2671237D03*
Y2675961D03*
Y2674387D03*
Y2672812D03*
Y2668087D03*
Y2666513D03*
Y2664938D03*
Y2660213D03*
Y2658639D03*
X4646417Y2658599D03*
Y2663324D03*
Y2669623D03*
Y2671198D03*
Y2672772D03*
Y2674347D03*
Y2675922D03*
G54D11*
X4662500Y2661700D03*
Y2657700D03*
X4628700Y2690500D03*
X4632700D03*
X4628069Y2705121D03*
Y2701121D03*
X4681000Y2690100D03*
X4685000D03*
X4656000Y2671200D03*
X4660000D03*
X4694400Y2672700D03*
X4690400D03*
G54D21*
X4681050Y2670994D03*
X4679475D03*
X4677900D03*
X4676325D03*
X4674750D03*
Y2682806D03*
X4676325D03*
X4677900D03*
X4679475D03*
X4681050D03*
X4632638Y2678717D03*
X4643661D03*
X4642087D03*
X4640512D03*
X4638937D03*
X4637362D03*
X4634213D03*
X4631063D03*
X4629488D03*
X4627913D03*
X4626339D03*
Y2655883D03*
X4627913D03*
X4629488D03*
X4631063D03*
X4632638D03*
X4634213D03*
X4635787D03*
X4637362D03*
X4638937D03*
X4640512D03*
X4642087D03*
X4643661D03*
G54D12*
X4656131Y2667200D03*
X4660069D03*
G54D13*
X4635157Y2695930D03*
X4636928D03*
X4621032Y2689661D03*
X4619260D03*
X4698102Y2660835D03*
X4699873D03*
X4703314Y2701200D03*
X4705086D03*
X4666186Y2675500D03*
X4664414D03*
X4664786Y2699200D03*
X4663014D03*
X4711394Y2663565D03*
X4713165D03*
X4619481Y2683752D03*
X4621253D03*
X4619300Y2686868D03*
X4621072D03*
X4630517Y2695290D03*
X4632288D03*
X4630496Y2698261D03*
X4632268D03*
X4620951Y2692214D03*
X4619180D03*
X4620871Y2695249D03*
X4619099D03*
X4691486Y2660800D03*
X4689714D03*
X4634914Y2684600D03*
X4636686D03*
X4617114Y2656400D03*
X4618886D03*
X4617514Y2674900D03*
X4619286D03*
X4617714Y2666000D03*
X4619486D03*
X4617684Y2668558D03*
X4619456D03*
X4619396Y2671690D03*
X4617624D03*
X4650414Y2660200D03*
X4652186D03*
X4650414Y2657500D03*
X4652186D03*
X4618886Y2659000D03*
X4617114D03*
X4625386Y2684400D03*
X4623614D03*
X4654486Y2654900D03*
X4652714D03*
X4686614Y2669000D03*
X4688386D03*
X4651914Y2688600D03*
X4653686D03*
X4666286Y2678600D03*
X4664514D03*
G54D22*
X4677900Y2676900D03*
G54D14*
X4699900Y2669086D03*
Y2667314D03*
X4636298Y2692927D03*
Y2691155D03*
X4711700Y2688586D03*
Y2686814D03*
X4694000Y2669086D03*
Y2667314D03*
X4696200Y2703614D03*
Y2705386D03*
X4627559Y2693936D03*
Y2695708D03*
X4657014Y2664434D03*
Y2662662D03*
X4653922Y2664394D03*
Y2662622D03*
X4639500Y2683414D03*
Y2685186D03*
X4650100Y2669314D03*
Y2671086D03*
X4631300Y2684814D03*
Y2686586D03*
X4628290Y2684803D03*
Y2686575D03*
X4636400Y2688986D03*
Y2687214D03*
X4625000Y2688486D03*
Y2686714D03*
G54D23*
X4598039Y2656969D03*
Y2703031D03*
G54D15*
X4680200Y2667686D03*
Y2665914D03*
X4682300Y2667686D03*
Y2665914D03*
X4690800Y2702686D03*
Y2700914D03*
X4666580Y2665912D03*
Y2667683D03*
X4664130Y2665932D03*
Y2667704D03*
X4653000Y2668814D03*
Y2670586D03*
X4639699Y2695170D03*
Y2693398D03*
X4618400Y2680686D03*
Y2678914D03*
X4615400D03*
Y2680686D03*
G54D24*
X4606700Y2664252D03*
Y2672126D03*
Y2680000D03*
Y2687874D03*
Y2695748D03*
Y2691811D03*
Y2683937D03*
Y2676063D03*
Y2668189D03*
G54D25*
X4635000Y2667300D03*
G54D16*
X4711561Y2683041D03*
Y2677041D03*
G54D26*
G01X4587008Y2652182D02*
X4716930D01*
Y2707300D01*
X4587008D01*
Y2652182D01*
G54D17*
X4695150Y2680000D03*
X4701650D03*
X4668650Y2692000D03*
X4662150D03*
X4675133Y2658624D03*
X4668633D03*
X4658750Y2679000D03*
X4652250D03*
G54D18*
X4646200Y2689900D03*
G54D19*
X4649200Y2694900D03*
X4647200D03*
X4645200D03*
X4643200D03*
Y2684900D03*
X4645200D03*
X4647200D03*
X4649200D03*
M02*
