G04 ================== begin FILE IDENTIFICATION RECORD ==================*
G04 Layout Name:  AS2258_ASM235CM_BGA272_V2_0801.brd*
G04 Film Name:    TOP*
G04 File Format:  Gerber RS274X*
G04 File Origin:  Cadence Allegro -unreleased*
G04 Origin Date:  Tue Aug  3 11:42:56 2021*
G04 *
G04 Layer:  BOARD GEOMETRY/OUTLINE*
G04 Layer:  ETCH/TOP*
G04 Layer:  PIN/TOP*
G04 Layer:  VIA CLASS/TOP*
G04 *
G04 Offset:    (0.000 0.000)*
G04 Mirror:    No*
G04 Mode:      Positive*
G04 Rotation:  0*
G04 FullContactRelief:  No*
G04 UndefLineWidth:     0.000*
G04 ================== end FILE IDENTIFICATION RECORD ====================*
%FSLAX25Y25*MOIN*%
%IR0*IPPOS*OFA0.00000B0.00000*MIA0B0*SFA1.00000B1.00000*%
%ADD19R,.008X.018*%
%ADD23O,.14961X.07087*%
%ADD15R,.01378X.009843*%
%ADD10R,.009843X.01378*%
%ADD14R,.015748X.009843*%
%ADD13R,.009843X.015748*%
%ADD18R,.052X.01*%
%ADD12R,.02X.024*%
%ADD21R,.008799X.027559*%
%ADD20R,.027559X.008799*%
%ADD28C,.012*%
%ADD27C,.014*%
%ADD16R,.0315X.035402*%
%ADD17R,.03402X.07902*%
%ADD11R,.019X.019*%
%ADD25C,.03937*%
%ADD26R,.153543X.153543*%
%ADD24R,.09055X.02756*%
%ADD22R,.07087X.07087*%
%ADD29C,.003*%
%ADD30C,.006*%
%ADD31C,.007*%
%ADD32C,.0035*%
%ADD33C,.008*%
%ADD34C,.01*%
%ADD35C,.02*%
%ADD36C,.015*%
%ADD37C,.022004*%
G75*
%LPD*%
G75*
G36*
G01X4623341Y2680610D02*
G03X4626032Y2681724I0J3805D01*
G01X4626207Y2681900D01*
X4627278D01*
G03X4628188Y2681400I922J600D01*
G01X4628270Y2681399D01*
X4628500Y2681168D01*
Y2677400D01*
X4628400Y2677300D01*
X4627500D01*
X4627400Y2677400D01*
Y2679900D01*
X4627179Y2680121D01*
Y2680495D01*
X4625498D01*
Y2679798D01*
X4625200Y2679500D01*
X4624200D01*
X4623500Y2678800D01*
X4622000D01*
X4621800Y2679000D01*
Y2680400D01*
X4622010Y2680610D01*
X4623341D01*
G37*
G36*
G01X4704200Y2668600D02*
X4704000Y2668800D01*
Y2670800D01*
X4704500Y2671300D01*
X4710300D01*
X4710600Y2671000D01*
Y2669200D01*
X4710000Y2668600D01*
X4704200D01*
G37*
G36*
G01X4646941Y2668700D02*
X4646400D01*
X4646100Y2668400D01*
Y2667100D01*
X4646900Y2666300D01*
X4652541D01*
G03X4654025Y2666902I459J1000D01*
G01X4654041Y2666941D01*
X4654400Y2667300D01*
Y2668200D01*
X4654800Y2668600D01*
X4657400D01*
X4657500Y2668500D01*
Y2666100D01*
X4658000Y2665600D01*
Y2664100D01*
X4657800Y2663900D01*
X4651600D01*
X4650791Y2664709D01*
X4644791D01*
X4643500Y2666000D01*
Y2669600D01*
X4644100Y2670200D01*
X4647800D01*
X4648100Y2669900D01*
Y2669100D01*
X4647749Y2668749D01*
X4647642Y2668773D01*
G03X4646941Y2668700I-242J-1073D01*
G37*
G36*
G01X4637800Y2689607D02*
X4637688Y2689720D01*
Y2689878D01*
X4637529D01*
X4637207Y2690200D01*
X4636000D01*
X4635800Y2690400D01*
Y2692035D01*
X4637486D01*
Y2693900D01*
X4639600D01*
X4639700Y2693800D01*
Y2687400D01*
X4639300Y2687000D01*
X4638000D01*
X4637700Y2687300D01*
Y2688293D01*
X4637800Y2688393D01*
Y2689607D01*
G37*
G36*
G01X4620900Y2688300D02*
X4620400Y2688800D01*
Y2696100D01*
X4620700Y2696400D01*
X4623700D01*
X4624000Y2696700D01*
Y2697440D01*
X4624015Y2697476D01*
G03Y2698324I-1015J423D01*
G01X4624000Y2698360D01*
Y2698600D01*
X4623578Y2699022D01*
Y2699089D01*
X4623511D01*
X4623300Y2699300D01*
Y2701400D01*
X4624000Y2702100D01*
X4624862D01*
G03X4625045Y2701936I821J733D01*
G02X4625040Y2701280I-232J-326D01*
G03X4626300Y2701270I623J-907D01*
G02X4626306Y2701926I232J326D01*
G03X4626503Y2702100I-623J907D01*
G01X4629100D01*
X4629300Y2701900D01*
Y2700400D01*
X4629641Y2700059D01*
X4629656Y2700015D01*
G03X4630815Y2699280I1040J359D01*
G01X4630910Y2699290D01*
X4631100Y2699100D01*
Y2694400D01*
X4631000Y2694300D01*
X4629600D01*
X4628747Y2695153D01*
Y2696600D01*
X4626372D01*
Y2696458D01*
X4625720D01*
X4625620Y2696358D01*
X4625541Y2696355D01*
G03X4624566Y2695686I37J-1100D01*
G01X4624551Y2695651D01*
X4624000Y2695100D01*
Y2693407D01*
X4623800Y2693207D01*
Y2688600D01*
X4623500Y2688300D01*
X4620900D01*
G37*
G36*
G01X4690800Y2662200D02*
X4691000Y2662400D01*
X4698100D01*
X4698600Y2661900D01*
Y2659400D01*
X4698400Y2659200D01*
X4691300D01*
X4690800Y2659700D01*
Y2662200D01*
G37*
G36*
G01X4694900Y2701200D02*
Y2704000D01*
X4695100Y2704200D01*
X4702500D01*
X4703900Y2702800D01*
Y2700400D01*
X4703700Y2700200D01*
X4701700D01*
X4701000Y2700900D01*
X4695200D01*
X4694900Y2701200D01*
G37*
G36*
G01X4698900Y2676600D02*
Y2683500D01*
X4700000Y2684600D01*
X4706300D01*
X4707100Y2683800D01*
Y2679900D01*
X4706400Y2679200D01*
X4705000D01*
X4704100Y2678300D01*
Y2676600D01*
X4703500Y2676000D01*
X4699500D01*
X4698900Y2676600D01*
G37*
G36*
G01X4673450Y2654450D02*
X4673400Y2654500D01*
Y2672400D01*
X4673600Y2672600D01*
X4674900D01*
X4675300Y2672200D01*
Y2663600D01*
X4677100Y2661800D01*
Y2654450D01*
X4673450D01*
G37*
G36*
G01X4670800Y2688707D02*
Y2686423D01*
G03Y2685557I1011J-433D01*
G01Y2683200D01*
X4673500Y2680500D01*
Y2680100D01*
X4673100Y2679700D01*
X4670200D01*
X4666900Y2683000D01*
Y2685740D01*
G03Y2687040I-888J650D01*
G01Y2695900D01*
X4667100Y2696100D01*
X4670309D01*
X4670800Y2695609D01*
Y2692722D01*
G03Y2691856I1011J-433D01*
G01Y2689573D01*
G03Y2688707I1011J-433D01*
G37*
G36*
G01X4693300Y2675300D02*
X4692800Y2675800D01*
Y2679000D01*
X4692200Y2679600D01*
X4682400D01*
X4682300Y2679700D01*
Y2683200D01*
X4682982Y2683882D01*
X4686157D01*
X4686389Y2683650D01*
X4692311D01*
X4692543Y2683882D01*
X4696518D01*
X4697100Y2683300D01*
Y2675600D01*
X4696800Y2675300D01*
X4693300D01*
G37*
G36*
G01X4662200Y2653900D02*
X4658078Y2658022D01*
Y2658689D01*
X4657411D01*
X4656400Y2659700D01*
X4655507D01*
X4655100Y2660107D01*
Y2661300D01*
X4655400Y2661600D01*
X4658200D01*
X4660800Y2659000D01*
X4666300D01*
X4666900Y2659600D01*
Y2662100D01*
X4667100Y2662300D01*
X4669400D01*
X4669700Y2662000D01*
X4670400D01*
Y2653900D01*
X4662200D01*
G37*
G36*
G01X4618004Y2682400D02*
X4617500Y2682904D01*
Y2689800D01*
X4618300Y2690600D01*
X4619700D01*
X4619800Y2690500D01*
Y2682800D01*
X4619400Y2682400D01*
X4618004D01*
G37*
G36*
G01X4641600Y2694900D02*
X4641200Y2694500D01*
X4636400D01*
Y2696400D01*
X4641200D01*
X4641600Y2696000D01*
Y2694900D01*
G37*
G36*
G01X4687000Y2655700D02*
X4686100Y2656600D01*
Y2658700D01*
X4686500Y2659100D01*
X4689700D01*
X4690500Y2658300D01*
X4698700D01*
X4699300Y2658900D01*
Y2663600D01*
X4697970Y2664930D01*
X4697544D01*
X4697497Y2664957D01*
G03X4696395I-551J-952D01*
G01X4696349Y2664930D01*
X4694394D01*
X4694348Y2664957D01*
G03X4693700Y2665101I-551J-952D01*
G01X4693607Y2665093D01*
X4692900Y2665800D01*
Y2667600D01*
X4693200Y2667900D01*
X4695486D01*
G02X4695875Y2667408I0J-400D01*
G03X4698017I1071J-253D01*
G02X4698406Y2667900I389J92D01*
G01X4701100D01*
X4701950Y2667050D01*
Y2665650D01*
X4702000Y2665600D01*
Y2663000D01*
X4703500Y2661500D01*
X4704200D01*
X4704800Y2660900D01*
Y2656400D01*
X4704100Y2655700D01*
X4687000D01*
G37*
G36*
G01X4705100Y2702900D02*
X4707600D01*
X4710900Y2699600D01*
Y2695400D01*
X4710100Y2694600D01*
X4709200D01*
X4704600Y2699200D01*
Y2702400D01*
X4705100Y2702900D01*
G37*
G36*
G01X4691100Y2668600D02*
X4687858Y2671842D01*
Y2674458D01*
X4688600Y2675200D01*
Y2676700D01*
X4688507Y2676793D01*
Y2677289D01*
X4688011D01*
X4687100Y2678200D01*
X4686860D01*
X4686824Y2678215D01*
G03X4685976I-423J-1015D01*
G01X4685940Y2678200D01*
X4685500D01*
X4685200Y2677900D01*
X4682300D01*
X4682200Y2678000D01*
Y2678900D01*
X4682400Y2679100D01*
X4691000D01*
X4692100Y2678000D01*
Y2671800D01*
X4692600Y2671300D01*
X4703100D01*
X4703500Y2670900D01*
Y2668900D01*
X4703200Y2668600D01*
X4691100D01*
G37*
G36*
G01X4666200Y2671500D02*
X4665600Y2672100D01*
Y2680100D01*
X4665900Y2680400D01*
X4668751D01*
X4669951Y2679200D01*
X4673400D01*
X4673600Y2679000D01*
Y2678100D01*
X4673500Y2678000D01*
X4668652D01*
X4668376Y2678276D01*
X4667750Y2677650D01*
Y2677257D01*
X4667727Y2677213D01*
G03Y2676187I973J-513D01*
G01X4667750Y2676143D01*
Y2674153D01*
G03X4669677Y2673230I850J-699D01*
G01X4669689Y2673289D01*
X4670700Y2674300D01*
X4673300D01*
X4673500Y2674100D01*
Y2673400D01*
X4673200Y2673100D01*
X4671700D01*
X4670100Y2671500D01*
X4666200D01*
G37*
G36*
G01X4632900Y2684400D02*
X4632500Y2684800D01*
Y2687900D01*
X4632100Y2688300D01*
Y2690600D01*
X4631500Y2691200D01*
X4630961D01*
X4630924Y2691215D01*
G03X4630464Y2691300I-424J-1015D01*
G02X4630050Y2691699I-13J400D01*
G01Y2691850D01*
X4627350D01*
Y2691200D01*
X4627000D01*
X4626700Y2690900D01*
Y2688500D01*
X4626200Y2688000D01*
X4624300D01*
Y2693000D01*
X4624800Y2693500D01*
X4633300D01*
X4633700Y2693900D01*
Y2696200D01*
X4634200Y2696700D01*
X4635600D01*
Y2694000D01*
X4635300Y2693700D01*
Y2692048D01*
X4635110D01*
Y2690263D01*
X4635300D01*
Y2689900D01*
X4635500Y2689700D01*
X4637000D01*
X4637300Y2689400D01*
Y2688600D01*
X4636807Y2688107D01*
X4635212D01*
Y2687900D01*
X4634400D01*
X4634000Y2687500D01*
Y2684700D01*
X4633700Y2684400D01*
X4632900D01*
G37*
G36*
G01X4624700Y2682400D02*
Y2685500D01*
X4624300Y2685900D01*
Y2687200D01*
X4625800D01*
X4626200Y2686800D01*
Y2685900D01*
X4626750Y2685350D01*
X4628950D01*
X4629100Y2685200D01*
Y2684200D01*
X4627093D01*
X4625330Y2682437D01*
G03X4625324Y2682432I351J-356D01*
G02X4625292Y2682400I-1980J1986D01*
G01X4624700D01*
G37*
G36*
G01X4648799Y2673497D02*
X4648972Y2673670D01*
X4649036Y2673680D01*
G03X4649967Y2674781I-170J1087D01*
G01X4649966Y2674866D01*
X4650100Y2675000D01*
Y2682800D01*
X4650300Y2683000D01*
X4653800D01*
X4653900Y2682900D01*
Y2676500D01*
X4654700Y2675700D01*
Y2672700D01*
X4653559Y2671559D01*
X4652484D01*
X4652008Y2672036D01*
X4651664D01*
X4651400Y2672300D01*
X4644900D01*
X4644800Y2672400D01*
Y2673400D01*
X4644907Y2673507D01*
X4646286D01*
X4646300Y2673505D01*
G03X4646417Y2673497I117J842D01*
G01X4648799D01*
G37*
G36*
G01X4656500Y2683400D02*
X4656800Y2683700D01*
X4660000D01*
X4661300Y2682400D01*
Y2681516D01*
G03Y2681484I1100J-16D01*
G01Y2677060D01*
X4661285Y2677024D01*
G03Y2676176I1015J-423D01*
G01X4661300Y2676140D01*
Y2665800D01*
X4661000Y2665500D01*
X4659500D01*
X4658800Y2666200D01*
Y2671192D01*
X4657117Y2672875D01*
X4657182Y2673004D01*
G03X4656623Y2674516I-982J496D01*
G01X4656500Y2674567D01*
Y2683400D01*
G37*
G36*
G01X4641900Y2654500D02*
X4641600Y2654800D01*
Y2658200D01*
X4642200Y2658800D01*
X4644300D01*
X4647147Y2661647D01*
X4649045D01*
X4649593Y2661100D01*
X4650600D01*
X4651000Y2660700D01*
Y2656600D01*
X4650200D01*
X4650000Y2656400D01*
X4648600D01*
X4647300Y2657700D01*
X4643100D01*
X4643061Y2657661D01*
X4642821D01*
Y2657421D01*
X4642700Y2657300D01*
Y2654900D01*
X4642300Y2654500D01*
X4641900D01*
G37*
G36*
G01X4646900Y2683700D02*
X4646800Y2683800D01*
Y2686700D01*
X4648100Y2688000D01*
X4650700D01*
X4651100Y2688400D01*
Y2689100D01*
X4651800Y2689800D01*
X4652300D01*
X4652452Y2689952D01*
G02X4652793Y2689811I141J-141D01*
G01Y2689393D01*
X4652600Y2689200D01*
Y2687600D01*
X4648700Y2683700D01*
X4646900D01*
G37*
G36*
G01X4653193Y2666800D02*
X4650510D01*
G02X4650227Y2667483I0J400D01*
G01X4651166Y2668422D01*
X4651288D01*
Y2669586D01*
G02X4651629Y2669727I200J0D01*
G01X4651721Y2669636D01*
X4655779D01*
X4655994Y2669850D01*
X4657350D01*
Y2670969D01*
G02X4658033Y2671252I400J0D01*
G01X4658300Y2670985D01*
Y2669373D01*
G02X4657617Y2669090I-400J0D01*
G01X4657607Y2669100D01*
X4654593D01*
X4653900Y2668407D01*
Y2667507D01*
X4653193Y2666800D01*
G37*
G36*
G01X4614527Y2667981D02*
X4614207Y2668300D01*
X4612807D01*
X4612750Y2668357D01*
Y2669757D01*
X4611628Y2670880D01*
Y2676200D01*
X4612032D01*
Y2675256D01*
X4612442Y2674846D01*
G03X4612795Y2674700I354J354D01*
G01X4613375D01*
X4613882Y2675206D01*
X4614242Y2674846D01*
G03X4614275Y2674816I353J354D01*
G02X4614309Y2674545I-128J-154D01*
G03X4615835Y2674798I891J-645D01*
G02X4615695Y2675276I231J327D01*
G03X4615732Y2675464I-464J188D01*
G01Y2676200D01*
X4618393D01*
Y2673712D01*
X4618536D01*
Y2672877D01*
X4618503D01*
Y2670502D01*
X4620288D01*
Y2670632D01*
G03X4621187Y2670766I302J1058D01*
G02X4621805Y2670430I217J-336D01*
G01Y2668588D01*
X4620348D01*
Y2669745D01*
X4616792D01*
Y2669487D01*
G02X4616337Y2669091I-400J0D01*
G03X4615207Y2668217I-137J-991D01*
G02X4614527Y2667981I-397J47D01*
G37*
G36*
G01X4638312Y2684307D02*
Y2683915D01*
X4636137Y2681740D01*
G02X4635520Y2681803I-283J283D01*
G03X4635008Y2682222I-920J-603D01*
G02X4634873Y2682876I148J371D01*
G01X4635410Y2683412D01*
X4635807D01*
Y2685560D01*
X4636569Y2686322D01*
X4637588D01*
Y2686500D01*
X4639507D01*
X4640200Y2687193D01*
Y2692506D01*
X4640788D01*
Y2694000D01*
X4641407D01*
X4642100Y2694693D01*
Y2696207D01*
X4642054Y2696253D01*
X4642157Y2696500D01*
X4644400D01*
Y2693500D01*
X4643093D01*
X4641700Y2692107D01*
Y2686907D01*
X4641136Y2686344D01*
Y2683371D01*
X4641029Y2683264D01*
G02X4640688Y2683405I-141J141D01*
G01Y2684307D01*
X4638312D01*
G37*
G36*
G01X4650600Y2688607D02*
X4650493Y2688500D01*
X4647893D01*
X4646250Y2686857D01*
X4645807Y2687300D01*
X4644307D01*
X4643400Y2688207D01*
Y2690293D01*
X4644557Y2691450D01*
X4646557D01*
X4647700Y2692593D01*
Y2693600D01*
X4650100D01*
Y2692607D01*
X4650922Y2691785D01*
Y2690511D01*
X4651321D01*
G02X4651462Y2690169I0J-200D01*
G01X4651080Y2689788D01*
X4651022D01*
Y2689729D01*
X4650600Y2689307D01*
Y2688607D01*
G37*
G36*
G01X4664251Y2690437D02*
Y2696350D01*
X4666400D01*
Y2690614D01*
G02X4665866Y2690237I-400J0D01*
G03X4664878Y2690107I-367J-1037D01*
G02X4664251Y2690437I-226J330D01*
G37*
G36*
G01X4679367Y2653382D02*
G02X4679084Y2654065I0J400D01*
G01X4680050Y2655031D01*
Y2664845D01*
X4680227Y2665022D01*
X4681289D01*
Y2666793D01*
X4683363D01*
X4683417Y2666680D01*
G03X4685494Y2667344I992J475D01*
G02X4685888Y2667812I394J69D01*
G01X4687507D01*
Y2670188D01*
X4687200D01*
Y2670827D01*
G02X4687883Y2671110I400J0D01*
G01X4690893Y2668100D01*
X4692343D01*
X4692446Y2667853D01*
X4692400Y2667807D01*
Y2665593D01*
X4693562Y2664430D01*
X4697762D01*
X4698800Y2663393D01*
Y2662890D01*
G02X4698458Y2662749I-200J0D01*
G01X4698307Y2662900D01*
X4690793D01*
X4690300Y2662407D01*
Y2659690D01*
G02X4689958Y2659549I-200J0D01*
G01X4689907Y2659600D01*
X4686293D01*
X4685600Y2658907D01*
Y2656393D01*
X4686793Y2655200D01*
X4704307D01*
X4705300Y2656193D01*
Y2661107D01*
X4704407Y2662000D01*
X4703707D01*
X4702500Y2663207D01*
Y2665807D01*
X4702450Y2665857D01*
Y2667257D01*
X4702290Y2667417D01*
G02X4702573Y2668100I283J283D01*
G01X4703407D01*
X4703700Y2668393D01*
X4703993Y2668100D01*
X4710207D01*
X4711100Y2668993D01*
Y2671207D01*
X4710507Y2671800D01*
X4704293D01*
X4703800Y2671307D01*
X4703307Y2671800D01*
X4692807D01*
X4692600Y2672007D01*
Y2674810D01*
G02X4692942Y2674951I200J0D01*
G01X4693093Y2674800D01*
X4695782D01*
G02X4696092Y2674148I0J-400D01*
G03X4697414Y2674450I854J-694D01*
G02X4697302Y2675094I170J362D01*
G01X4697600Y2675393D01*
Y2683507D01*
X4697251Y2683856D01*
Y2684351D01*
X4696756D01*
X4696726Y2684382D01*
X4693526D01*
G02X4693384Y2684723I0J200D01*
G01X4693564Y2684904D01*
Y2686011D01*
X4695832D01*
X4695856Y2685838D01*
G03X4698014Y2686254I1090J152D01*
G02X4698402Y2686750I388J96D01*
G01X4698639D01*
G02X4699028Y2686254I0J-400D01*
G03X4699326Y2685204I1068J-264D01*
G02X4699329Y2684636I-280J-286D01*
G01X4698400Y2683707D01*
Y2676393D01*
X4699293Y2675500D01*
X4703707D01*
X4704237Y2676029D01*
G02X4704578Y2675888I141J-141D01*
G01Y2675869D01*
X4708134D01*
Y2676258D01*
X4709586D01*
Y2674568D01*
X4709411Y2674546D01*
G03X4710354Y2674200I134J-1092D01*
G02X4710648Y2674871I294J271D01*
G01X4713537D01*
Y2679211D01*
X4709515D01*
G03X4708160Y2679608I-915J-611D01*
G02X4707600Y2679975I-160J367D01*
G01Y2684007D01*
X4707062Y2684546D01*
G02X4707091Y2685138I283J283D01*
G03X4705355Y2685631I-696J852D01*
G02X4704977Y2685100I-378J-131D01*
G01X4704663D01*
G02X4704285Y2685631I0J400D01*
G03X4702660Y2686922I-1040J359D01*
G01X4702524Y2686836D01*
X4701111Y2688250D01*
X4698364D01*
G02X4697986Y2688781I0J400D01*
G03X4695906I-1040J359D01*
G02X4695528Y2688250I-378J-131D01*
G01X4695215D01*
G02X4694836Y2688781I0J400D01*
G03X4694871Y2689376I-1040J359D01*
G01X4694847Y2689483D01*
X4695900Y2690536D01*
Y2693307D01*
X4691807Y2697400D01*
X4691491D01*
X4691361Y2697752D01*
G03X4691665Y2699004I-715J836D01*
G01X4691650Y2699041D01*
Y2700022D01*
X4691889D01*
Y2702573D01*
X4692081Y2702764D01*
X4694400D01*
Y2700993D01*
X4694993Y2700400D01*
X4700793D01*
X4701493Y2699700D01*
X4704100D01*
Y2698993D01*
X4708993Y2694100D01*
X4710307D01*
X4711400Y2695193D01*
Y2699807D01*
X4707807Y2703400D01*
X4704893D01*
X4704450Y2702957D01*
X4702707Y2704700D01*
X4694893D01*
X4694657Y2704464D01*
X4691376D01*
X4690490Y2703578D01*
X4689711D01*
Y2700022D01*
X4689950D01*
Y2699440D01*
G03X4689600Y2698929I697J-851D01*
G02X4688937Y2698770I-380J124D01*
G01X4683907Y2703800D01*
X4683680D01*
G03X4681957Y2704111I-980J-500D01*
G02X4681454Y2704081I-270J295D01*
G03X4679818Y2703649I-639J-896D01*
G02X4679172Y2703535I-363J169D01*
G01X4678407Y2704300D01*
X4675093D01*
X4673500Y2702707D01*
Y2702110D01*
G03X4672944Y2701440I500J-980D01*
G02X4672278Y2701270I-384J113D01*
G01X4668130Y2705417D01*
G02X4668413Y2706100I283J283D01*
G01X4715730D01*
Y2684650D01*
G02X4715108Y2684317I-400J0D01*
G03X4714087Y2684420I-608J-917D01*
G02X4713537Y2684790I-150J371D01*
G01Y2685283D01*
G03X4713792Y2685926I-843J708D01*
G02X4713962Y2686112I200J-12D01*
G03X4714033Y2688275I-162J1088D01*
G02X4713738Y2688792I85J391D01*
G03X4711668Y2689535I-1044J347D01*
G03X4711402Y2689488I32J-950D01*
G01X4711372Y2689478D01*
X4710599D01*
X4710546Y2689595D01*
G03X4709961Y2688122I-1001J-455D01*
G02X4710512Y2687751I151J-370D01*
G01Y2685922D01*
X4711374D01*
G03X4711440Y2685900I326J892D01*
G01X4711629Y2685712D01*
X4711643Y2685665D01*
G03X4711709Y2685500I1051J326D01*
G01X4711730Y2685458D01*
Y2685211D01*
X4709586D01*
Y2680871D01*
X4713537D01*
Y2682010D01*
G02X4714087Y2682380I400J0D01*
G03X4715108Y2682483I413J1020D01*
G02X4715730Y2682150I221J-333D01*
G01Y2653382D01*
X4679367D01*
G37*
G36*
G01X4653607D02*
Y2656088D01*
X4651500D01*
Y2661100D01*
X4652693D01*
X4654762Y2659031D01*
G02X4654621Y2658689I-141J-141D01*
G01X4654522D01*
Y2656511D01*
X4656307D01*
Y2658120D01*
G02X4656989Y2658403I400J0D01*
G01X4661328Y2654065D01*
G02X4661045Y2653382I-283J-283D01*
G01X4653607D01*
G37*
G36*
G01X4611419Y2706100D02*
G02X4611811Y2705618I0J-400D01*
G03X4613826Y2704817I1077J-226D01*
G02X4614508I341J-209D01*
G03X4616523Y2705618I938J574D01*
G02X4616914Y2706100I391J82D01*
G01X4619096D01*
G02X4619488Y2705618I0J-400D01*
G03X4619990Y2704453I1077J-226D01*
G02Y2703771I-209J-341D01*
G03X4619626Y2703407I575J-938D01*
G02X4618944I-341J209D01*
G03X4617368Y2701936I-938J-574D01*
G02X4617362Y2701280I-232J-326D01*
G03X4617047Y2700948I623J-907D01*
G02X4616365I-341J209D01*
G03X4614852Y2699435I-938J-574D01*
G02Y2698753I-209J-341D01*
G03X4616365Y2697240I574J-938D01*
G02X4617047I341J-209D01*
G03X4618924Y2697240I938J574D01*
G02X4619606I341J-209D01*
G03X4620052Y2696831I938J574D01*
G02X4620103Y2696511I-90J-179D01*
G01X4620029Y2696437D01*
X4619978D01*
Y2696386D01*
X4619900Y2696307D01*
Y2691100D01*
X4618093D01*
X4617000Y2690007D01*
Y2682697D01*
X4617436Y2682261D01*
G02X4617311Y2681611I-283J-283D01*
G01Y2681211D01*
X4616489D01*
Y2681578D01*
X4614311D01*
Y2679793D01*
X4616489D01*
Y2680161D01*
X4617311D01*
Y2678250D01*
X4613807D01*
X4613800Y2678257D01*
Y2683307D01*
X4612670Y2684437D01*
X4611628D01*
Y2689652D01*
X4602655D01*
X4601970Y2690337D01*
X4601987Y2690438D01*
G03X4600122Y2691078I-987J162D01*
G02X4599537Y2690945I-351J191D01*
G03X4598768Y2686395I-1498J-2087D01*
G02X4599259Y2686142I114J-384D01*
G03X4601086Y2685730I1040J358D01*
G02X4601772Y2685451I286J-280D01*
G01Y2682159D01*
X4611628D01*
Y2683437D01*
X4612256D01*
X4612800Y2682893D01*
Y2677843D01*
X4613465Y2677177D01*
X4612982Y2676694D01*
X4612475Y2677200D01*
X4611628D01*
Y2677841D01*
X4601772D01*
Y2675307D01*
G02X4601224Y2674935I-400J0D01*
G03X4599716Y2673846I-409J-1021D01*
G02X4599145Y2673461I-399J-25D01*
G03X4598018Y2668573I-1106J-2319D01*
G02X4598400Y2668065I-3J-400D01*
G03X4598370Y2667931I1300J-365D01*
G02X4597982Y2667600I-394J69D01*
G03X4596900Y2666507I18J-1100D01*
G02X4596217Y2666227I-400J3D01*
G01X4594250Y2668194D01*
Y2676406D01*
X4598744Y2680901D01*
G03X4598145Y2682950I-45J1099D01*
G01X4598106D01*
X4598025Y2682869D01*
X4598016Y2682862D01*
G03X4597838Y2682684I684J-862D01*
G01X4597831Y2682675D01*
X4593133Y2677977D01*
G02X4592450Y2678260I-283J283D01*
G01Y2678448D01*
X4594050Y2680048D01*
Y2689848D01*
X4598950Y2694748D01*
Y2695502D01*
G03X4597250I-850J698D01*
G01Y2695452D01*
X4592350Y2690552D01*
Y2685672D01*
G02X4591670Y2685386I-400J0D01*
G03Y2683814I-770J-786D01*
G02X4592350Y2683528I280J-286D01*
G01Y2680752D01*
X4590750Y2679152D01*
Y2671198D01*
G03X4591856Y2669430I850J-698D01*
G02X4592350Y2669041I93J-389D01*
G01Y2667406D01*
X4597006Y2662750D01*
X4599845D01*
G03X4601113Y2662862I555J950D01*
G02X4601772Y2662558I259J-305D01*
G01Y2662474D01*
X4611628D01*
Y2665220D01*
X4612657Y2666250D01*
X4613358D01*
X4613450Y2666158D01*
Y2663443D01*
X4615243Y2661650D01*
X4617886D01*
X4618666Y2660870D01*
G02X4618383Y2660188I-283J-283D01*
G01X4617993D01*
Y2653382D01*
X4588208D01*
Y2688183D01*
G02X4588739Y2688561I400J0D01*
G03Y2690639I361J1039D01*
G02X4588208Y2691017I-131J378D01*
G01Y2698076D01*
G02X4588738Y2698454I400J0D01*
G03Y2700536I357J1041D01*
G02X4588208Y2700914I-130J378D01*
G01Y2706100D01*
X4611419D01*
G37*
G36*
G01X4661007Y2659500D02*
X4658407Y2662100D01*
X4655193D01*
X4654593Y2661500D01*
G02X4653917Y2661290I-393J73D01*
G01X4653107Y2662100D01*
X4650307D01*
X4650260Y2662148D01*
X4649960D01*
X4648284Y2663824D01*
X4648195D01*
Y2664209D01*
X4650584D01*
X4651393Y2663400D01*
X4658007D01*
X4658149Y2663541D01*
X4658202D01*
Y2663594D01*
X4658500Y2663893D01*
Y2664827D01*
G02X4659183Y2665110I400J0D01*
G01X4659293Y2665000D01*
X4661207D01*
X4661800Y2665593D01*
Y2671854D01*
G02X4662307Y2672240I400J0D01*
G03Y2674360I293J1060D01*
G02X4661800Y2674746I-107J386D01*
G01Y2680013D01*
G02X4662254Y2680410I400J0D01*
G03X4663133Y2680680I147J1090D01*
G02X4663667I267J-298D01*
G03X4664620Y2680422I733J820D01*
G02X4665100Y2680030I80J-392D01*
G01Y2671892D01*
G02X4664991Y2671273I-298J-266D01*
G03X4666591Y2670521I521J-969D01*
G02X4666983Y2671000I392J79D01*
G01X4667191D01*
G02X4667583Y2670521I0J-400D01*
G03X4669740I1079J-217D01*
G02X4670133Y2671000I392J79D01*
G01X4670307D01*
X4671907Y2672600D01*
X4672900D01*
Y2671627D01*
G02X4672313Y2671273I-400J0D01*
G03Y2669327I-513J-973D01*
G02X4672900Y2668973I187J-354D01*
G01Y2668946D01*
G02X4672393Y2668560I-400J0D01*
G03Y2666440I-293J-1060D01*
G02X4672900Y2666054I107J-386D01*
G01Y2665738D01*
G02X4672561Y2665594I-200J0D01*
G03X4672313Y2663827I-761J-794D01*
G02X4672900Y2663473I187J-354D01*
G01Y2663427D01*
G02X4672313Y2663073I-400J0D01*
G03X4671068Y2662921I-513J-973D01*
G01X4671011Y2662870D01*
X4670734D01*
Y2662975D01*
X4669988D01*
G02X4669618Y2663526I0J400D01*
G03X4668328Y2665009I-1019J416D01*
G01X4668218Y2664981D01*
X4667669Y2665530D01*
Y2665777D01*
G02X4668227Y2666144I400J0D01*
G03X4667562Y2667191I435J1011D01*
G02X4667162Y2666804I-400J13D01*
G01X4665220D01*
Y2666824D01*
X4663041D01*
Y2665040D01*
X4664315D01*
X4664649Y2664705D01*
X4664569Y2664572D01*
G03X4665967Y2663003I943J-566D01*
G02X4666532Y2662639I165J-364D01*
G01Y2662439D01*
X4666400Y2662307D01*
Y2659807D01*
X4666093Y2659500D01*
X4661007D01*
G37*
G36*
G01X4678251Y2668236D02*
G03X4678778Y2666332I-203J-1081D01*
G01X4678911Y2666382D01*
G02X4679111Y2666182I0J-200D01*
G01Y2665744D01*
X4678750Y2665384D01*
Y2665005D01*
X4678510D01*
X4678473Y2665020D01*
G03X4677201Y2663303I-425J-1015D01*
G02X4677047Y2662975I-154J-128D01*
G01X4676632D01*
X4675800Y2663807D01*
Y2672407D01*
X4675591Y2672617D01*
Y2672773D01*
X4675435D01*
X4675107Y2673100D01*
X4674000D01*
Y2674307D01*
X4673773Y2674535D01*
Y2677565D01*
X4674100Y2677893D01*
Y2679207D01*
X4673773Y2679535D01*
Y2679665D01*
X4674000Y2679893D01*
Y2680707D01*
X4671300Y2683407D01*
Y2694143D01*
G02X4671983Y2694426I400J0D01*
G01X4673264Y2693145D01*
Y2690789D01*
X4673122D01*
Y2688611D01*
X4675136D01*
Y2687889D01*
X4674993D01*
Y2685711D01*
X4675348D01*
X4677060Y2683999D01*
Y2681027D01*
X4680315D01*
Y2684584D01*
X4680175D01*
Y2684985D01*
X4680401Y2685211D01*
X4680807D01*
Y2686731D01*
X4681125Y2687050D01*
X4683089D01*
X4683469Y2686670D01*
X4683393Y2686538D01*
G03X4684839Y2685006I954J-547D01*
G01X4684968Y2685071D01*
X4685316Y2684723D01*
G02X4685174Y2684382I-141J-141D01*
G01X4682774D01*
X4681800Y2683407D01*
Y2679493D01*
X4681943Y2679350D01*
X4681700Y2679107D01*
Y2677793D01*
X4682027Y2677465D01*
Y2676060D01*
X4685584D01*
Y2676150D01*
X4686033D01*
G03X4686221Y2676102I367J1050D01*
G02X4686232Y2675808I-130J-152D01*
G01X4685800Y2675376D01*
Y2674581D01*
G02X4685136Y2674280I-400J0D01*
G03X4683571Y2672742I-726J-827D01*
G02X4683569Y2672221I-305J-259D01*
G03X4685415Y2671076I831J-721D01*
G01X4685467Y2671199D01*
X4685800D01*
Y2670188D01*
X4685722D01*
Y2668346D01*
G02X4685079Y2668028I-400J0D01*
G03X4683955Y2668156I-669J-874D01*
G02X4683389Y2668521I-165J364D01*
G01Y2668578D01*
X4680369D01*
X4680225Y2668722D01*
Y2669216D01*
X4680315D01*
Y2672773D01*
X4678635D01*
Y2669216D01*
X4678725D01*
Y2668629D01*
G02X4678251Y2668236I-400J0D01*
G37*
G36*
G01X4620000Y2682293D02*
X4620272Y2682564D01*
X4620373D01*
Y2684940D01*
X4620300D01*
Y2687710D01*
G02X4620642Y2687851I200J0D01*
G01X4620693Y2687800D01*
X4623800D01*
Y2685693D01*
X4624200Y2685293D01*
Y2683296D01*
G02X4624000Y2683250I-200J411D01*
G01X4623771D01*
X4623723Y2683279D01*
G03X4622077Y2682098I-573J-939D01*
G02X4621686Y2681610I-390J-88D01*
G01X4620283D01*
G02X4620000Y2682293I0J400D01*
G37*
G36*
G01X4629771Y2683636D02*
X4629600Y2683807D01*
Y2685407D01*
X4629477Y2685530D01*
Y2685696D01*
X4629312D01*
X4629157Y2685850D01*
X4626957D01*
X4626700Y2686107D01*
Y2687007D01*
X4626307Y2687400D01*
X4627200Y2688293D01*
Y2690693D01*
X4627207Y2690700D01*
X4631293D01*
X4631350Y2690643D01*
Y2689150D01*
X4631600D01*
Y2688093D01*
X4632000Y2687693D01*
Y2685707D01*
X4630112D01*
Y2683778D01*
G02X4629771Y2683636I-200J0D01*
G37*
G36*
G01X4654100Y2686638D02*
X4653808D01*
X4653748Y2686708D01*
G03X4653189Y2687055I-834J-718D01*
G01X4653136Y2687069D01*
X4652957Y2687249D01*
X4653100Y2687393D01*
Y2688993D01*
X4654500Y2690393D01*
Y2692407D01*
X4654478Y2692429D01*
Y2692732D01*
G02X4654820Y2692873I200J0D01*
G01X4655000Y2692693D01*
Y2691193D01*
X4655800Y2690393D01*
Y2688507D01*
X4654100Y2686807D01*
Y2686638D01*
G37*
G36*
G01X4677424Y2686868D02*
G02X4676778Y2687184I-246J316D01*
G01Y2687889D01*
X4676636D01*
Y2688611D01*
X4676678D01*
Y2688926D01*
X4677022D01*
X4677068Y2688789D01*
G03X4678925Y2689879I1043J351D01*
G02X4678938Y2690431I296J269D01*
G01X4680000Y2691493D01*
Y2693193D01*
X4680107Y2693300D01*
X4685693D01*
X4686997Y2691996D01*
Y2686970D01*
G03X4686885Y2686904I500J-980D01*
G01X4686748Y2686813D01*
X4685170Y2688391D01*
X4685261Y2688528D01*
G03X4685328Y2688641I-914J612D01*
G01X4685383Y2688750D01*
X4686350D01*
Y2691450D01*
X4683650D01*
Y2689991D01*
G03X4683256Y2689001I697J-851D01*
G02X4682859Y2688550I-397J-51D01*
G01X4680504D01*
X4679343Y2687389D01*
X4679022D01*
G02X4678483Y2687032I-400J17D01*
G03X4677424Y2686868I-383J-1031D01*
G37*
G36*
G01X4660049Y2691724D02*
G02X4659366Y2691441I-400J0D01*
G01X4658400Y2692407D01*
Y2697209D01*
G02X4658910Y2697594I400J0D01*
G03Y2699709I303J1058D01*
G02X4658400Y2700094I-110J385D01*
G01Y2700507D01*
X4657190Y2701717D01*
G02X4657473Y2702400I283J283D01*
G01X4666393D01*
X4667960Y2700833D01*
G02X4667677Y2700150I-283J-283D01*
G01X4665678D01*
Y2700388D01*
X4663893D01*
Y2699528D01*
X4663883Y2699498D01*
G03Y2698902I902J-298D01*
G01X4663893Y2698872D01*
Y2697850D01*
X4662639D01*
X4661400Y2696611D01*
Y2696351D01*
X4660049D01*
Y2691724D01*
G37*
G36*
G01X4686217Y2694190D02*
X4686107Y2694300D01*
X4679890D01*
G02X4679749Y2694642I0J200D01*
G01X4680000Y2694893D01*
Y2699407D01*
X4679221Y2700187D01*
G02X4679218Y2700467I141J141D01*
G03X4679226Y2700475I-788J768D01*
G02X4679513Y2700479I145J-137D01*
G01X4680443Y2699550D01*
X4682343D01*
X4686900Y2694993D01*
Y2694473D01*
G02X4686217Y2694190I-400J0D01*
G37*
G36*
G01X4631600Y2694000D02*
Y2699307D01*
X4631400Y2699507D01*
X4631524Y2699648D01*
G03X4631606Y2699754I-827J725D01*
G02X4632283Y2699729I331J-225D01*
G03X4633770Y2699317I953J550D01*
G01X4633902Y2699390D01*
X4634773Y2698520D01*
X4636473D01*
X4637193Y2697800D01*
G02X4636910Y2697117I-283J-283D01*
G01X4636100D01*
Y2697200D01*
X4633993D01*
X4633200Y2696407D01*
Y2694107D01*
X4633093Y2694000D01*
X4631600D01*
G37*
G36*
G01X4627173Y2702600D02*
G02X4626776Y2702956I0J400D01*
G03X4626257Y2703771I-1093J-123D01*
G02Y2704453I209J341D01*
G03X4626759Y2705618I-575J938D01*
G02X4627151Y2706100I391J82D01*
G01X4629208D01*
G02X4629600Y2705618I0J-400D01*
G03X4630101Y2704454I1077J-226D01*
G01X4630196Y2704395D01*
Y2704293D01*
X4630463Y2704026D01*
X4630293Y2703857D01*
X4630256Y2703842D01*
G03X4629584Y2702953I420J-1017D01*
G02X4629187Y2702600I-397J47D01*
G01X4627173D01*
G37*
G36*
G01X4637800Y2654301D02*
G02X4637192Y2654263I-320J240D01*
G03X4636762Y2654539I-792J-763D01*
G01X4636628Y2654586D01*
Y2657661D01*
X4625498D01*
Y2656733D01*
X4621498D01*
G03X4620151Y2656771I-698J-850D01*
G01X4620099Y2656733D01*
X4619778D01*
Y2658792D01*
G02X4620461Y2659075I400J0D01*
G01X4621398Y2658138D01*
X4621805D01*
Y2657798D01*
X4625361D01*
Y2664203D01*
X4621805D01*
Y2661597D01*
G02X4621122Y2661314I-400J0D01*
G01X4618736Y2663700D01*
X4616107D01*
X4615500Y2664307D01*
Y2665132D01*
G02X4615986Y2665523I400J0D01*
G03X4616358Y2665512I214J977D01*
G02X4616822Y2665118I63J-395D01*
G01Y2664812D01*
X4620378D01*
Y2666012D01*
X4621805D01*
Y2665672D01*
X4625361D01*
Y2672062D01*
X4625622D01*
X4627250Y2673689D01*
Y2675650D01*
X4641711D01*
X4642837Y2676776D01*
Y2676939D01*
X4644573D01*
G03X4644639Y2676854I427J261D01*
G01Y2673946D01*
X4644300Y2673607D01*
Y2672193D01*
X4644639Y2671854D01*
Y2670700D01*
X4643893D01*
X4643000Y2669807D01*
Y2665793D01*
X4644639Y2664154D01*
Y2662483D01*
X4646310D01*
G02X4646593Y2661801I0J-400D01*
G01X4644093Y2659300D01*
X4641993D01*
X4641100Y2658407D01*
Y2657661D01*
X4638097D01*
Y2654564D01*
G03X4637800Y2654301I503J-864D01*
G37*
%LPC*%
G75*
G36*
G01X4696694Y2699660D02*
X4696848Y2699696D01*
Y2699853D01*
X4698633D01*
Y2697674D01*
X4697560D01*
X4697513Y2697646D01*
G02X4696694Y2699660I-567J943D01*
G37*
G36*
G01X4696728Y2696517D02*
X4696888Y2696550D01*
Y2697022D01*
X4698673D01*
Y2694843D01*
X4697871D01*
G02X4696728Y2696517I-925J596D01*
G37*
G36*
G01X4712286Y2662922D02*
Y2662378D01*
X4710501D01*
Y2662465D01*
X4709466D01*
X4708766Y2663165D01*
G02X4710288Y2664753I778J778D01*
G01X4712286D01*
Y2664209D01*
G02Y2662922I-892J-644D01*
G37*
G36*
G01X4601563Y2695870D02*
X4601772Y2696080D01*
Y2697526D01*
X4611628D01*
Y2693970D01*
X4601669D01*
X4601637Y2693958D01*
G02X4601462Y2695887I-337J942D01*
G01X4601563Y2695870D01*
G37*
G36*
G01X4606056Y2701012D02*
G03X4606049Y2701296I-144J139D01*
G02X4606441Y2703140I751J804D01*
G03X4606708Y2703567I-130J378D01*
G02X4608159Y2702660I1092J133D01*
G03X4607892Y2702233I130J-378D01*
G02X4607594Y2701338I-1092J-133D01*
G03X4607601Y2701054I144J-139D01*
G02X4606641Y2699170I-751J-804D01*
G03X4606201Y2698943I-76J-393D01*
G02X4605409Y2700480I-1001J457D01*
G03X4605849Y2700707I76J393D01*
G02X4606056Y2701012I1001J-457D01*
G37*
G54D37*
X4652800Y2673500D03*
X4659400Y2673300D03*
X4684410Y2660856D03*
Y2664005D03*
X4700096Y2673454D03*
X4706395D03*
X4712694Y2692352D03*
X4703245Y2673454D03*
X4593900Y2695000D03*
%LPD*%
G75*
G54D10*
X4705471Y2676958D03*
X4707242D03*
X4648214Y2654900D03*
X4649986D03*
X4689386Y2676200D03*
X4687614D03*
X4675786Y2689700D03*
X4674014D03*
X4675886Y2686800D03*
X4674114D03*
X4679914Y2686300D03*
X4681686D03*
X4692814Y2687100D03*
X4694586D03*
X4623886Y2700500D03*
X4622114D03*
X4618886Y2654000D03*
X4617114D03*
X4699512Y2698763D03*
X4697740D03*
X4699552Y2695932D03*
X4697780D03*
X4655414Y2657600D03*
X4657186D03*
X4651814Y2691600D03*
X4653586D03*
X4620914Y2698000D03*
X4622686D03*
X4704586Y2669600D03*
X4702814D03*
G54D11*
X4662500Y2661700D03*
Y2657700D03*
X4628700Y2690500D03*
X4632700D03*
X4628069Y2705121D03*
Y2701121D03*
X4681000Y2690100D03*
X4685000D03*
X4656000Y2671200D03*
X4660000D03*
X4694400Y2672700D03*
X4690400D03*
G54D20*
X4683806Y2680050D03*
Y2678475D03*
Y2676900D03*
Y2675325D03*
X4671994Y2673750D03*
Y2675325D03*
Y2676900D03*
Y2678475D03*
Y2680050D03*
X4623583Y2661788D03*
Y2663363D03*
Y2669662D03*
Y2671237D03*
Y2675961D03*
Y2674387D03*
Y2672812D03*
Y2668087D03*
Y2666513D03*
Y2664938D03*
Y2660213D03*
Y2658639D03*
X4646417Y2658599D03*
Y2663324D03*
Y2669623D03*
Y2671198D03*
Y2672772D03*
Y2674347D03*
Y2675922D03*
G54D30*
G01X4630700Y2653600D02*
Y2653700D01*
X4631063Y2654063D01*
Y2655883D01*
G01X4668633Y2658624D02*
Y2654867D01*
G01D02*
X4669700Y2653800D01*
X4677900D01*
X4679400Y2655300D01*
Y2665114D01*
X4680200Y2665914D01*
G01X4628900Y2653500D02*
Y2653800D01*
X4629488Y2654388D01*
Y2655883D01*
G54D21*
X4681050Y2670994D03*
X4679475D03*
X4677900D03*
X4676325D03*
X4674750D03*
Y2682806D03*
X4676325D03*
X4677900D03*
X4679475D03*
X4681050D03*
X4632638Y2678717D03*
X4643661D03*
X4642087D03*
X4640512D03*
X4638937D03*
X4637362D03*
X4634213D03*
X4631063D03*
X4629488D03*
X4627913D03*
X4626339D03*
Y2655883D03*
X4627913D03*
X4629488D03*
X4631063D03*
X4632638D03*
X4634213D03*
X4635787D03*
X4637362D03*
X4638937D03*
X4640512D03*
X4642087D03*
X4643661D03*
G54D12*
X4656131Y2667200D03*
X4660069D03*
G54D31*
G01X4707242Y2676958D02*
X4711478D01*
X4711561Y2677041D01*
G01X4686614Y2669000D02*
X4686500Y2669114D01*
Y2675086D01*
X4687614Y2676200D01*
G01X4686400Y2677200D02*
X4686614D01*
X4687614Y2676200D01*
G01X4671994Y2676900D02*
X4668900D01*
X4668700Y2676700D01*
G01X4671994Y2675325D02*
X4670075D01*
X4668700Y2676700D01*
G01X4675886Y2686800D02*
Y2686164D01*
X4677900Y2684149D01*
Y2682806D01*
G01X4679475D02*
Y2685275D01*
X4679914Y2685714D01*
Y2686300D01*
G01X4666700Y2672414D02*
X4667214Y2671900D01*
X4669200D01*
X4671050Y2673750D01*
X4671994D01*
G01X4652200Y2689500D02*
X4653586Y2690886D01*
Y2691600D01*
G01X4664414Y2675500D02*
X4663314Y2676600D01*
X4662300D01*
G54D22*
X4677900Y2676900D03*
G54D13*
X4635157Y2695930D03*
X4636928D03*
X4621032Y2689661D03*
X4619260D03*
X4698102Y2660835D03*
X4699873D03*
X4703314Y2701200D03*
X4705086D03*
X4666186Y2675500D03*
X4664414D03*
X4664786Y2699200D03*
X4663014D03*
X4711394Y2663565D03*
X4713165D03*
X4619481Y2683752D03*
X4621253D03*
X4619300Y2686868D03*
X4621072D03*
X4630517Y2695290D03*
X4632288D03*
X4630496Y2698261D03*
X4632268D03*
X4620951Y2692214D03*
X4619180D03*
X4620871Y2695249D03*
X4619099D03*
X4691486Y2660800D03*
X4689714D03*
X4634914Y2684600D03*
X4636686D03*
X4617114Y2656400D03*
X4618886D03*
X4617514Y2674900D03*
X4619286D03*
X4617714Y2666000D03*
X4619486D03*
X4617684Y2668558D03*
X4619456D03*
X4619396Y2671690D03*
X4617624D03*
X4650414Y2660200D03*
X4652186D03*
X4650414Y2657500D03*
X4652186D03*
X4618886Y2659000D03*
X4617114D03*
X4625386Y2684400D03*
X4623614D03*
X4654486Y2654900D03*
X4652714D03*
X4686614Y2669000D03*
X4688386D03*
X4651914Y2688600D03*
X4653686D03*
X4666286Y2678600D03*
X4664514D03*
G54D32*
G01X4615400Y2680686D02*
X4618400D01*
G54D14*
X4699900Y2669086D03*
Y2667314D03*
X4636298Y2692927D03*
Y2691155D03*
X4711700Y2688586D03*
Y2686814D03*
X4694000Y2669086D03*
Y2667314D03*
X4696200Y2703614D03*
Y2705386D03*
X4627559Y2693936D03*
Y2695708D03*
X4657014Y2664434D03*
Y2662662D03*
X4653922Y2664394D03*
Y2662622D03*
X4639500Y2683414D03*
Y2685186D03*
X4650100Y2669314D03*
Y2671086D03*
X4631300Y2684814D03*
Y2686586D03*
X4628290Y2684803D03*
Y2686575D03*
X4636400Y2688986D03*
Y2687214D03*
X4625000Y2688486D03*
Y2686714D03*
G54D23*
X4598039Y2656969D03*
Y2703031D03*
G54D33*
G01X4638991Y2693398D02*
X4638374Y2692780D01*
G01X4639699Y2693398D02*
X4638991D01*
G01X4694586Y2687100D02*
X4694986Y2687500D01*
X4700800D01*
X4701650Y2686650D01*
Y2680000D01*
G01X4686400Y2677200D02*
X4686000D01*
X4685700Y2676900D01*
X4683806D01*
G01X4680200Y2667686D02*
X4682300D01*
G01X4679475Y2670994D02*
Y2668411D01*
X4680200Y2667686D01*
G01X4675786Y2689700D02*
X4675886Y2689600D01*
Y2686800D01*
G01X4679914Y2686300D02*
Y2686900D01*
X4680814Y2687800D01*
X4683400D01*
X4683700Y2687500D01*
X4685000D01*
X4685900Y2686600D01*
Y2685200D01*
X4686700Y2684400D01*
X4692000D01*
X4692814Y2685214D01*
Y2687100D01*
G01X4684347Y2689140D02*
Y2689447D01*
X4685000Y2690100D01*
G01X4622114Y2700500D02*
Y2699914D01*
X4620544Y2698345D01*
Y2697815D01*
G01X4674014Y2689700D02*
Y2693456D01*
X4670370Y2697100D01*
X4662950D01*
X4662150Y2696300D01*
Y2692250D01*
G01Y2692050D02*
Y2692000D01*
G01Y2692150D02*
Y2692050D01*
G01Y2692250D02*
Y2692150D01*
G01X4625386Y2684400D02*
Y2683386D01*
X4624854Y2682854D01*
G01D02*
G02X4624000Y2682500I-854J853D01*
G01X4623310D01*
X4623150Y2682340D01*
G01X4633256Y2682461D02*
X4633139D01*
X4631400Y2684200D01*
Y2684714D01*
X4631300Y2684814D01*
G01X4636400Y2687214D02*
X4634914Y2685728D01*
Y2684600D01*
G01X4619286Y2674900D02*
Y2671800D01*
X4619396Y2671690D01*
G01X4620590D02*
X4621712Y2672812D01*
X4623583D01*
G01X4620590Y2671690D02*
X4619396D01*
G01X4714500Y2683400D02*
X4714400Y2683500D01*
X4712021D01*
X4711561Y2683041D01*
G01X4642087Y2678717D02*
Y2677087D01*
X4641400Y2676400D01*
X4626600D01*
X4626500Y2676300D01*
G01X4626339Y2678717D02*
X4626500Y2678556D01*
Y2676300D01*
G01X4623583Y2672812D02*
X4625312D01*
X4626500Y2674000D01*
Y2676300D01*
G01X4627559Y2695708D02*
X4626031D01*
X4625578Y2695256D01*
G54D24*
X4606700Y2664252D03*
Y2672126D03*
Y2680000D03*
Y2687874D03*
Y2695748D03*
Y2691811D03*
Y2683937D03*
Y2676063D03*
Y2668189D03*
G54D15*
X4680200Y2667686D03*
Y2665914D03*
X4682300Y2667686D03*
Y2665914D03*
X4690800Y2702686D03*
Y2700914D03*
X4666580Y2665912D03*
Y2667683D03*
X4664130Y2665932D03*
Y2667704D03*
X4653000Y2668814D03*
Y2670586D03*
X4639699Y2695170D03*
Y2693398D03*
X4618400Y2680686D03*
Y2678914D03*
X4615400D03*
Y2680686D03*
G54D34*
G01X4646417Y2674347D02*
X4648447D01*
X4648867Y2674767D01*
G01X4591600Y2670500D02*
Y2678800D01*
X4593200Y2680400D01*
Y2690200D01*
X4598100Y2695100D01*
Y2696200D01*
G01X4618400Y2678914D02*
X4619514D01*
X4620500Y2679900D01*
G01D02*
X4623100D01*
G01X4632500Y2653600D02*
Y2654000D01*
X4632638Y2654138D01*
Y2655883D01*
G01X4618886Y2656400D02*
Y2659000D01*
G01X4626339Y2655883D02*
X4620800D01*
G01D02*
X4619403D01*
X4618886Y2656400D01*
G01X4639500Y2683414D02*
X4639014D01*
X4636007Y2680407D01*
Y2679922D01*
G01D02*
X4636362D01*
X4637362Y2678922D01*
Y2678717D01*
G01X4636007Y2679922D02*
X4635915D01*
G01X4690800Y2700914D02*
Y2698742D01*
X4690646Y2698589D01*
G01X4690800Y2702686D02*
X4691728Y2703614D01*
X4696200D01*
G01X4634700Y2693000D02*
X4634773Y2692927D01*
G01X4627559Y2693936D02*
Y2693358D01*
G01X4634773Y2692927D02*
X4636298D01*
G01X4627559Y2693358D02*
X4628137Y2692780D01*
G01X4633256Y2682461D02*
X4634914Y2684119D01*
Y2684600D01*
G01X4646417Y2658599D02*
X4646118Y2658300D01*
G01X4646417Y2658599D02*
X4649315D01*
X4650414Y2657500D01*
G01D02*
Y2655328D01*
X4649986Y2654900D01*
G01X4623000Y2697900D02*
X4622786D01*
X4622686Y2698000D01*
G01X4653000Y2668814D02*
Y2667300D01*
G54D25*
X4598039Y2688858D03*
Y2671142D03*
G54D16*
X4711561Y2683041D03*
Y2677041D03*
G54D35*
G01X4606700Y2668189D02*
X4600189D01*
X4599700Y2667700D01*
G01X4606700Y2691811D02*
X4611989D01*
X4612700Y2691100D01*
G01X4598700Y2678200D02*
X4600500Y2680000D01*
X4606700D01*
G54D26*
X4635000Y2667300D03*
G54D17*
X4695150Y2680000D03*
X4701650D03*
X4668650Y2692000D03*
X4662150D03*
X4675133Y2658624D03*
X4668633D03*
X4658750Y2679000D03*
X4652250D03*
G54D36*
G01X4711394Y2663565D02*
X4709922D01*
X4709544Y2663942D01*
G54D27*
X4665512Y2664005D03*
X4678111Y2692289D03*
X4645892Y2705400D03*
X4662863Y2686390D03*
X4620564Y2702833D03*
X4684410Y2660856D03*
X4678111Y2698589D03*
X4644060Y2705390D03*
X4684410Y2673454D03*
X4606800Y2702100D03*
X4630676Y2705391D03*
X4659300Y2686000D03*
X4693796Y2689140D03*
X4682700Y2703300D03*
X4696946Y2667155D03*
X4620564Y2705391D03*
X4684410Y2664005D03*
X4615426Y2697815D03*
X4672100Y2667500D03*
X4648800Y2677600D03*
X4665512Y2670304D03*
X4633236Y2700279D03*
X4630700Y2653600D03*
X4696946Y2695439D03*
X4636400Y2653500D03*
X4662600Y2673300D03*
X4630696Y2700374D03*
X4696946Y2689140D03*
X4625683Y2702833D03*
X4618005D03*
X4666012Y2686390D03*
X4633236Y2705391D03*
X4665500Y2689200D03*
X4693796Y2692289D03*
X4680815Y2703185D03*
X4593900Y2695000D03*
X4598000Y2666500D03*
X4648867Y2674767D03*
X4647400Y2667700D03*
X4706395Y2685990D03*
X4623124Y2705391D03*
X4666600Y2681600D03*
X4668662Y2667155D03*
X4708600Y2678600D03*
X4634600Y2681200D03*
X4649370Y2702960D03*
X4687497Y2685990D03*
X4709600Y2670300D03*
X4706400D03*
X4620500Y2679900D03*
X4623100D03*
X4599700Y2667700D03*
X4591600Y2670500D03*
X4598100Y2696200D03*
X4600100Y2665900D03*
X4684400Y2671500D03*
X4607800Y2703700D03*
X4668599Y2663942D03*
X4620800Y2655883D03*
X4632500Y2653600D03*
X4646200Y2665600D03*
X4648100D03*
X4635915Y2679922D03*
X4678048Y2667155D03*
X4646812Y2677612D03*
X4605200Y2699400D03*
X4700096Y2673454D03*
X4656064Y2685990D03*
X4638384Y2700295D03*
X4668662Y2670304D03*
X4662400Y2681500D03*
X4690646Y2685990D03*
X4623124Y2702833D03*
X4606850Y2700250D03*
X4696946Y2673454D03*
X4703245Y2685990D03*
X4625683Y2705391D03*
X4615426Y2700374D03*
X4706395Y2673454D03*
X4690646Y2695439D03*
Y2698589D03*
X4640873Y2702777D03*
X4671800Y2662100D03*
Y2664800D03*
X4690646Y2689140D03*
X4678426Y2701230D03*
X4700096Y2685990D03*
X4625663Y2700374D03*
X4638374Y2692780D03*
Y2690222D03*
Y2687663D03*
X4630676Y2702825D03*
X4652914Y2685990D03*
X4659400Y2673300D03*
X4635755Y2702785D03*
X4690646Y2692289D03*
X4674000Y2701130D03*
X4684410Y2667155D03*
X4617985Y2697815D03*
X4656200Y2673500D03*
X4638314Y2702785D03*
X4617985Y2700374D03*
X4709544Y2673454D03*
Y2689140D03*
X4700096Y2701738D03*
X4696946D03*
Y2685990D03*
X4712694Y2689140D03*
X4709544Y2663942D03*
X4704400Y2682100D03*
Y2680500D03*
X4705900D03*
Y2682100D03*
X4693796Y2660793D03*
X4712694Y2692352D03*
X4623020Y2695256D03*
Y2692696D03*
Y2690137D03*
X4628222Y2697815D03*
X4625663D03*
X4668662Y2698651D03*
X4653000Y2695700D03*
X4668600Y2673454D03*
X4686400Y2677200D03*
X4668700Y2676700D03*
X4652800Y2673500D03*
X4589100Y2689600D03*
X4713800Y2687200D03*
X4615200Y2673900D03*
X4618300Y2683100D03*
X4712694Y2685990D03*
X4703245Y2660793D03*
X4687497Y2657706D03*
X4665700Y2655820D03*
X4662200D03*
X4664100D03*
X4656001Y2660856D03*
X4600814Y2673914D03*
X4600300Y2686500D03*
X4706395Y2698651D03*
X4709544Y2695501D03*
X4659213Y2698651D03*
X4674961Y2698651D03*
X4640933Y2695256D03*
X4684347Y2685990D03*
Y2689140D03*
X4620544Y2697815D03*
X4668200Y2679900D03*
X4666700Y2679800D03*
X4690700Y2676900D03*
X4690600Y2678400D03*
X4600400Y2663700D03*
X4598700Y2682000D03*
X4633256Y2685020D03*
X4625578Y2690137D03*
X4633256Y2692780D03*
X4630696D03*
X4628137D03*
X4633339Y2690222D03*
Y2687663D03*
X4662300Y2692300D03*
Y2689200D03*
X4623150Y2682340D03*
X4633256Y2682461D03*
X4589095Y2699495D03*
X4628200Y2682500D03*
X4634400Y2653631D03*
X4678111Y2689140D03*
X4612887Y2705391D03*
X4628900Y2653500D03*
X4696946Y2698589D03*
X4678111Y2695439D03*
X4640300Y2705400D03*
X4635800Y2700279D03*
X4671800Y2670300D03*
X4678048Y2664005D03*
X4664400Y2681500D03*
X4714500Y2683400D03*
X4648100Y2687000D03*
X4620590Y2671690D03*
X4647500Y2660800D03*
X4620500Y2700400D03*
X4703245Y2673454D03*
X4678100Y2686000D03*
X4615446Y2705391D03*
X4590900Y2684600D03*
X4630700Y2682500D03*
X4628150Y2705500D03*
X4658300Y2656050D03*
X4656480Y2655870D03*
X4662363Y2664005D03*
X4659213D03*
X4589100Y2664100D03*
X4589000Y2683500D03*
X4625578Y2695256D03*
X4623300Y2684900D03*
X4606300Y2705300D03*
X4595000Y2685900D03*
X4592900Y2664300D03*
X4595200Y2662000D03*
X4605900Y2657900D03*
X4606300Y2654200D03*
X4612900D03*
X4615200Y2654300D03*
X4635815Y2705391D03*
X4638354D03*
X4595100Y2674100D03*
X4599000Y2675600D03*
X4629300Y2663400D03*
X4631100Y2663700D03*
Y2666200D03*
X4630200Y2669400D03*
X4631900Y2671200D03*
X4641016Y2672309D03*
X4637700Y2670800D03*
X4635898Y2672309D03*
Y2674868D03*
X4628137D03*
X4627800Y2672200D03*
X4630696Y2687578D03*
X4628137D03*
X4630500Y2690200D03*
X4628222Y2690222D03*
X4635815Y2697815D03*
X4643400Y2695100D03*
X4640932Y2687579D03*
X4635815Y2682544D03*
X4662300Y2676600D03*
X4681261Y2692352D03*
Y2695501D03*
X4709544Y2667155D03*
X4700096Y2692289D03*
X4703245Y2695439D03*
X4706395Y2692289D03*
X4700096Y2698589D03*
X4709544Y2685990D03*
Y2692289D03*
X4703245D03*
X4700096Y2695439D03*
X4703245Y2698589D03*
X4706395Y2695439D03*
X4681198Y2660856D03*
Y2664005D03*
X4693796Y2701738D03*
Y2664005D03*
X4690646D03*
Y2667155D03*
X4693796Y2673454D03*
X4696946Y2664005D03*
X4706395Y2667155D03*
X4703245D03*
Y2664005D03*
X4706395D03*
X4623000Y2697900D03*
X4633236Y2702825D03*
X4653000Y2667300D03*
X4680600Y2679700D03*
X4678200Y2678200D03*
X4676400Y2678300D03*
X4679000Y2679700D03*
X4677300D03*
X4675400D03*
X4665512Y2695501D03*
X4655000Y2690100D03*
X4659213Y2695502D03*
X4659200Y2692700D03*
X4649700Y2689200D03*
X4671811Y2692289D03*
Y2689140D03*
Y2685990D03*
X4617000Y2694700D03*
X4589200Y2705200D03*
X4589000Y2702000D03*
X4588940Y2686820D03*
X4589180Y2669600D03*
X4589100Y2654300D03*
X4589300Y2657900D03*
X4590800Y2667300D03*
X4615300Y2682300D03*
X4610309Y2705291D03*
X4601400Y2698600D03*
X4612867Y2700374D03*
X4618005Y2705391D03*
X4615446Y2702825D03*
X4612700Y2691100D03*
X4591500Y2694900D03*
X4589095Y2694505D03*
X4597000Y2683700D03*
X4642254Y2705330D03*
X4615280Y2671900D03*
G54D18*
X4646200Y2689900D03*
G54D28*
G01X4646417Y2671198D02*
X4649988D01*
X4650100Y2671086D01*
G01X4656000Y2671200D02*
X4655386Y2670586D01*
X4653000D01*
G01D02*
X4652114D01*
X4651614Y2671086D01*
X4650100D01*
G01X4647400Y2667700D02*
X4649100D01*
X4650100Y2668700D01*
Y2669314D01*
G01X4711700Y2688586D02*
X4712140D01*
X4712694Y2689140D01*
G01X4664786Y2699200D02*
X4668113D01*
X4668662Y2698651D01*
G01X4711700Y2686814D02*
X4711870D01*
X4712694Y2685990D01*
G01X4699873Y2660835D02*
X4703204D01*
X4703245Y2660793D01*
G01X4598700Y2682000D02*
X4598500D01*
X4593300Y2676800D01*
Y2667800D01*
X4597400Y2663700D01*
X4600400D01*
X4638600Y2653700D03*
X4601000Y2690600D03*
X4616200Y2666500D03*
X4640900Y2653800D03*
X4601300Y2694900D03*
X4616200Y2668100D03*
G54D19*
X4649200Y2694900D03*
X4647200D03*
X4645200D03*
X4643200D03*
Y2684900D03*
X4645200D03*
X4647200D03*
X4649200D03*
G54D29*
G01X4665512Y2664005D02*
Y2664550D01*
X4664130Y2665932D01*
G01X4645892Y2705400D02*
X4646192Y2705700D01*
X4667140D01*
X4672910Y2699930D01*
X4678770D01*
X4679500Y2699200D01*
Y2695100D01*
X4678111Y2693711D01*
Y2692289D01*
G01X4643661Y2678717D02*
Y2681561D01*
X4645200Y2683100D01*
Y2684900D01*
G01X4644060Y2705390D02*
Y2704440D01*
X4644700Y2703800D01*
X4646500D01*
X4647600Y2704900D01*
X4666880D01*
X4674430Y2697350D01*
X4676872D01*
X4678111Y2698589D01*
G01X4630676Y2705391D02*
X4630696Y2705371D01*
Y2704500D01*
X4631006Y2704191D01*
X4634109D01*
X4634555Y2703745D01*
Y2702288D01*
X4635257Y2701585D01*
X4638855D01*
X4639521Y2700919D01*
X4656081D01*
X4657100Y2699900D01*
Y2699073D01*
X4656800Y2698773D01*
X4656519D01*
X4656219Y2698473D01*
Y2697873D01*
X4656519Y2697573D01*
X4656800D01*
X4657100Y2697273D01*
Y2696673D01*
X4656800Y2696373D01*
X4656519D01*
X4656219Y2696073D01*
Y2695473D01*
X4656519Y2695173D01*
X4656800D01*
X4657100Y2694873D01*
Y2691800D01*
X4657700Y2691200D01*
Y2690242D01*
X4658000Y2689942D01*
X4658400D01*
X4658700Y2689642D01*
Y2689042D01*
X4658400Y2688742D01*
X4658000D01*
X4657700Y2688442D01*
Y2684700D01*
X4658100Y2684300D01*
X4659000D01*
X4659300Y2684600D01*
Y2686000D01*
G01X4693796Y2689140D02*
X4695400Y2690743D01*
Y2693100D01*
X4691600Y2696900D01*
X4690100D01*
X4683700Y2703300D01*
X4682700D01*
G01X4623583Y2658639D02*
X4621605D01*
X4618094Y2662150D01*
X4615450D01*
X4613950Y2663650D01*
Y2666365D01*
X4613565Y2666750D01*
X4612450D01*
X4609952Y2664252D01*
X4606700D01*
G01X4638937Y2655883D02*
Y2654000D01*
X4638637Y2653700D01*
X4638600D01*
G01X4697780Y2695932D02*
X4697439D01*
X4696946Y2695439D01*
G01X4636400Y2653500D02*
X4636000D01*
X4635787Y2653713D01*
Y2655883D01*
G01X4633236Y2705391D02*
X4634109D01*
X4635309Y2704191D01*
X4639309D01*
X4639635Y2703865D01*
Y2702185D01*
X4640250Y2701570D01*
X4656630D01*
X4657900Y2700300D01*
Y2692200D01*
X4659600Y2690500D01*
Y2687800D01*
X4661100Y2686300D01*
Y2684200D01*
X4662500Y2682800D01*
X4664000D01*
X4664600Y2683400D01*
Y2688300D01*
X4665500Y2689200D01*
G01X4638937Y2678717D02*
Y2680464D01*
X4641636Y2683164D01*
Y2686136D01*
X4642200Y2686700D01*
Y2691900D01*
X4643300Y2693000D01*
X4645800D01*
X4646200Y2693400D01*
Y2696100D01*
X4646600Y2696500D01*
X4648900D01*
X4649200Y2696200D01*
Y2694900D01*
G01X4680815Y2703185D02*
X4682300Y2701700D01*
X4683700D01*
X4689000Y2696400D01*
Y2695300D01*
X4690300Y2694000D01*
X4692086D01*
X4693796Y2692289D01*
G01X4705471Y2676958D02*
Y2677770D01*
X4706300Y2678600D01*
X4708600D01*
G01X4634213Y2678717D02*
Y2680613D01*
X4634300Y2680701D01*
Y2680800D01*
X4634600Y2681100D01*
Y2681200D01*
G01X4649370Y2702960D02*
X4649430Y2702900D01*
X4666600D01*
X4676400Y2693100D01*
Y2691700D01*
X4677300Y2690800D01*
X4678600D01*
X4679500Y2691700D01*
Y2693400D01*
X4679900Y2693800D01*
X4685900D01*
X4687497Y2692203D01*
Y2685990D01*
G01X4668599Y2663942D02*
X4668549D01*
X4666580Y2665912D01*
G01X4638384Y2700295D02*
X4639055D01*
X4639667Y2699683D01*
Y2699400D01*
X4639467Y2699200D01*
X4638900D01*
X4638600Y2698900D01*
Y2698300D01*
X4639000Y2697900D01*
X4640900D01*
X4641200Y2698200D01*
Y2699660D01*
X4641500Y2699960D01*
X4642040D01*
X4642400Y2699600D01*
Y2698200D01*
X4642700Y2697900D01*
X4643300D01*
X4643600Y2698200D01*
Y2699600D01*
X4644100Y2700100D01*
X4644900D01*
X4645200Y2699800D01*
Y2699100D01*
X4645500Y2698800D01*
X4646100D01*
X4646400Y2699100D01*
Y2699800D01*
X4646700Y2700100D01*
X4647300D01*
X4647600Y2699800D01*
Y2699100D01*
X4647900Y2698800D01*
X4648500D01*
X4648800Y2699100D01*
Y2699800D01*
X4649100Y2700100D01*
X4649700D01*
X4650000Y2699800D01*
Y2699100D01*
X4650300Y2698800D01*
X4650900D01*
X4651200Y2699100D01*
Y2699800D01*
X4651500Y2700100D01*
X4655000D01*
X4655400Y2699700D01*
Y2698900D01*
X4655100Y2698600D01*
X4652400D01*
X4652090Y2698290D01*
Y2697710D01*
X4652400Y2697400D01*
X4655100D01*
X4655400Y2697100D01*
Y2694700D01*
X4656300Y2693800D01*
Y2691600D01*
X4657000Y2690900D01*
Y2686926D01*
X4656064Y2685990D01*
G01X4623583Y2660213D02*
X4621515D01*
X4618529Y2663200D01*
X4615900D01*
X4615000Y2664100D01*
Y2666800D01*
X4614000Y2667800D01*
X4612600D01*
X4612250Y2668150D01*
Y2669550D01*
X4609674Y2672126D01*
X4606700D01*
G01X4618886Y2654000D02*
X4619116Y2653770D01*
X4626770D01*
X4627913Y2654913D01*
Y2655883D01*
G01X4616200Y2666500D02*
X4617214D01*
X4617714Y2666000D01*
G01X4606700Y2687874D02*
X4606626Y2687800D01*
X4603800D01*
X4601000Y2690600D01*
G01X4678426Y2701230D02*
X4678370D01*
Y2701200D01*
X4679500D01*
X4680650Y2700050D01*
X4682550D01*
X4687400Y2695200D01*
Y2693900D01*
X4689300Y2692000D01*
Y2690486D01*
X4690646Y2689140D01*
G01X4652714Y2654900D02*
X4651484Y2653670D01*
X4649327D01*
X4648214Y2654783D01*
Y2654900D01*
G01X4643661Y2655883D02*
X4647232D01*
X4648214Y2654900D01*
G01X4652914Y2685990D02*
X4651890D01*
X4650600Y2684700D01*
Y2684000D01*
X4651000Y2683600D01*
X4654300D01*
X4654600Y2683900D01*
Y2686600D01*
X4656300Y2688300D01*
Y2690600D01*
X4655500Y2691400D01*
Y2692900D01*
X4654100Y2694300D01*
X4653200D01*
X4652900Y2694000D01*
Y2693400D01*
X4652700Y2693200D01*
X4652100D01*
X4651500Y2693800D01*
Y2696800D01*
X4650300Y2698000D01*
X4645600D01*
X4644600Y2697000D01*
X4638700D01*
X4636680Y2699020D01*
X4634980D01*
X4634570Y2699430D01*
Y2700930D01*
X4633890Y2701610D01*
X4631086D01*
X4630696Y2702000D01*
Y2702805D01*
X4630676Y2702825D01*
G01X4640512Y2655883D02*
Y2654100D01*
X4640812Y2653800D01*
X4640900D01*
G01X4674000Y2701130D02*
Y2702500D01*
X4675300Y2703800D01*
X4678200D01*
X4681100Y2700900D01*
X4683200D01*
X4688300Y2695800D01*
Y2694400D01*
X4690410Y2692289D01*
X4690646D01*
G01X4662150Y2692050D02*
X4662200Y2692100D01*
Y2692200D01*
G01D02*
X4662300Y2692300D01*
G01X4662150Y2692150D02*
X4662200Y2692200D01*
G01X4662300Y2692300D02*
X4662200D01*
X4662150Y2692250D01*
G01X4629488Y2678717D02*
Y2680888D01*
X4628200Y2682176D01*
Y2682500D01*
G01X4645200Y2694900D02*
Y2696300D01*
X4646100Y2697200D01*
X4649600D01*
X4650600Y2696200D01*
Y2692814D01*
X4651814Y2691600D01*
G01X4640512Y2678717D02*
Y2680912D01*
X4643200Y2683600D01*
Y2684900D01*
G01X4655414Y2657600D02*
Y2659086D01*
X4652900Y2661600D01*
X4649800D01*
X4648076Y2663324D01*
X4646417D01*
G01X4623583Y2668087D02*
X4619926D01*
X4619456Y2668558D01*
G01X4634400Y2653631D02*
X4634213Y2653818D01*
Y2655883D01*
G01X4623583Y2674387D02*
X4622128D01*
X4619815Y2676700D01*
X4615495D01*
X4615232Y2676436D01*
Y2675464D01*
X4614968Y2675200D01*
X4614595D01*
X4614332Y2675464D01*
Y2676436D01*
X4614068Y2676700D01*
X4613695D01*
X4613432Y2676436D01*
Y2675464D01*
X4613168Y2675200D01*
X4612795D01*
X4612532Y2675464D01*
Y2676436D01*
X4612268Y2676700D01*
X4607337D01*
X4606700Y2676063D01*
G01X4697740Y2698763D02*
X4697121D01*
X4696946Y2698589D01*
G01X4640300Y2705400D02*
X4642800Y2702900D01*
X4646700D01*
X4648000Y2704200D01*
X4666530D01*
X4675291Y2695439D01*
X4678111D01*
G01X4617684Y2668558D02*
X4617227Y2668100D01*
X4616200D01*
G01X4606700Y2695748D02*
X4606652Y2695700D01*
X4602100D01*
X4601300Y2694900D01*
G01X4649200Y2684900D02*
Y2685900D01*
X4648100Y2687000D01*
G01X4623583Y2666513D02*
X4619998D01*
X4619486Y2666000D01*
G01X4646417Y2675922D02*
X4646278D01*
X4645000Y2677200D01*
Y2681600D01*
X4646200Y2682800D01*
Y2686200D01*
X4645600Y2686800D01*
X4644100D01*
X4642900Y2688000D01*
Y2690500D01*
X4644350Y2691950D01*
X4646350D01*
X4647200Y2692800D01*
Y2694900D01*
G01X4606700Y2683937D02*
X4612463D01*
X4613300Y2683100D01*
Y2678050D01*
X4613600Y2677750D01*
X4620250D01*
X4622039Y2675961D01*
X4623583D01*
G01X4632638Y2678717D02*
Y2680562D01*
X4630700Y2682500D01*
G01X4631063Y2678717D02*
Y2680232D01*
X4629400Y2681895D01*
Y2683300D01*
X4629000Y2683700D01*
X4627300D01*
X4625678Y2682078D01*
G02X4623341Y2681110I-2337J2337D01*
G01X4619610D01*
X4619186Y2680686D01*
X4618400D01*
G01X4623614Y2684400D02*
X4623600D01*
G01X4623614D02*
Y2684686D01*
G01X4597000Y2683700D02*
X4597278Y2683978D01*
G01X4617624Y2671690D02*
X4615560D01*
G01X4615350Y2671860D02*
X4615320D01*
X4615280Y2671900D01*
M02*
